<svg width="232" height="125" viewBox="0 0 232 125" fill="none" xmlns="http://www.w3.org/2000/svg">
<path d="M18.2065 48.6128H23.5541C24.9426 48.6128 26.1685 48.894 27.2318 49.4571C28.2949 50.0074 29.1207 50.7829 29.7084 51.7837C30.2965 52.772 30.5902 53.9041 30.5902 55.1799C30.5902 56.4557 30.2965 57.594 29.7084 58.5949C29.1207 59.5832 28.2949 60.3587 27.2318 60.9215C26.1685 61.4718 24.9426 61.747 23.5541 61.747H18.2065V48.6128ZM23.479 60.5462C24.6299 60.5462 25.6368 60.3209 26.4999 59.8707C27.3631 59.4079 28.0324 58.7761 28.5076 57.9756C28.9829 57.1625 29.2207 56.2307 29.2207 55.1799C29.2207 54.1291 28.9829 53.2036 28.5076 52.403C28.0324 51.59 27.3631 50.9582 26.4999 50.5079C25.6368 50.0451 24.6299 49.8136 23.479 49.8136H19.595V60.5462H23.479Z" fill="#415164"/>
<path d="M39.4501 61.8595C38.149 61.8595 36.9669 61.572 35.9036 60.9965C34.8528 60.4087 34.0273 59.6082 33.427 58.5948C32.8389 57.5815 32.5449 56.4432 32.5449 55.1799C32.5449 53.9166 32.8389 52.7783 33.427 51.7649C34.0273 50.7516 34.8528 49.9573 35.9036 49.3821C36.9669 48.794 38.149 48.5 39.4501 48.5C40.7509 48.5 41.9205 48.7878 42.9588 49.3633C44.0093 49.9386 44.8351 50.7391 45.4354 51.7649C46.036 52.7783 46.3362 53.9166 46.3362 55.1799C46.3362 56.4432 46.036 57.5878 45.4354 58.6136C44.8351 59.6269 44.0093 60.4212 42.9588 60.9965C41.9205 61.572 40.7509 61.8595 39.4501 61.8595ZM39.4501 60.6212C40.4881 60.6212 41.4264 60.3899 42.2645 59.9269C43.1025 59.4516 43.7593 58.8011 44.2346 57.9755C44.7099 57.1375 44.9476 56.2057 44.9476 55.1799C44.9476 54.1541 44.7099 53.2285 44.2346 52.403C43.7593 51.5649 43.1025 50.9144 42.2645 50.4516C41.4264 49.9761 40.4881 49.7386 39.4501 49.7386C38.4118 49.7386 37.4672 49.9761 36.6167 50.4516C35.7786 50.9144 35.1156 51.5649 34.6278 52.403C34.1525 53.2285 33.9148 54.1541 33.9148 55.1799C33.9148 56.2057 34.1525 57.1375 34.6278 57.9755C35.1156 58.8011 35.7786 59.4516 36.6167 59.9269C37.4672 60.3899 38.4118 60.6212 39.4501 60.6212Z" fill="#415164"/>
<path d="M55.1525 61.8595C53.8515 61.8595 52.6756 61.572 51.6248 60.9965C50.5868 60.4212 49.7672 59.6269 49.167 58.6136C48.5789 57.5878 48.2852 56.4432 48.2852 55.1799C48.2852 53.9166 48.5789 52.7783 49.167 51.7649C49.7672 50.7391 50.593 49.9386 51.6436 49.3633C52.6944 48.7878 53.8702 48.5 55.1713 48.5C56.1468 48.5 57.0474 48.6628 57.8732 48.988C58.6987 49.3133 59.3993 49.7886 59.9746 50.4139L59.0928 51.2959C58.067 50.2576 56.7724 49.7386 55.2088 49.7386C54.1705 49.7386 53.2259 49.9761 52.3754 50.4516C51.5248 50.9269 50.8555 51.5774 50.3678 52.403C49.8925 53.2285 49.6547 54.1541 49.6547 55.1799C49.6547 56.2057 49.8925 57.1313 50.3678 57.9568C50.8555 58.7823 51.5248 59.4329 52.3754 59.9082C53.2259 60.3837 54.1705 60.6212 55.2088 60.6212C56.7849 60.6212 58.0795 60.0959 59.0928 59.0451L59.9746 59.9269C59.3993 60.5524 58.6925 61.034 57.8545 61.3717C57.0286 61.697 56.1281 61.8595 55.1525 61.8595Z" fill="#415164"/>
<path d="M65.3213 49.8136H60.7056V48.6128H71.3257V49.8136H66.7099V61.747H65.3213V49.8136Z" fill="#415164"/>
<path d="M79.1022 61.8595C77.8011 61.8595 76.619 61.572 75.556 60.9965C74.5051 60.4087 73.6796 59.6082 73.0791 58.5948C72.4913 57.5815 72.1973 56.4432 72.1973 55.1799C72.1973 53.9166 72.4913 52.7783 73.0791 51.7649C73.6796 50.7516 74.5051 49.9573 75.556 49.3821C76.619 48.794 77.8011 48.5 79.1022 48.5C80.403 48.5 81.5725 48.7878 82.6109 49.3633C83.6617 49.9386 84.4872 50.7391 85.0877 51.7649C85.688 52.7783 85.9883 53.9166 85.9883 55.1799C85.9883 56.4432 85.688 57.5878 85.0877 58.6136C84.4872 59.6269 83.6617 60.4212 82.6109 60.9965C81.5725 61.572 80.403 61.8595 79.1022 61.8595ZM79.1022 60.6212C80.1405 60.6212 81.0785 60.3899 81.9166 59.9269C82.7546 59.4516 83.4114 58.8011 83.8867 57.9755C84.3622 57.1375 84.5997 56.2057 84.5997 55.1799C84.5997 54.1541 84.3622 53.2285 83.8867 52.403C83.4114 51.5649 82.7546 50.9144 81.9166 50.4516C81.0785 49.9761 80.1405 49.7386 79.1022 49.7386C78.0638 49.7386 77.1195 49.9761 76.2687 50.4516C75.4307 50.9144 74.7679 51.5649 74.2799 52.403C73.8046 53.2285 73.5668 54.1541 73.5668 55.1799C73.5668 56.2057 73.8046 57.1375 74.2799 57.9755C74.7679 58.8011 75.4307 59.4516 76.2687 59.9269C77.1195 60.3899 78.0638 60.6212 79.1022 60.6212Z" fill="#415164"/>
<path d="M98.0693 61.747L95.0674 57.5253C94.7297 57.5628 94.3794 57.5815 94.0166 57.5815H90.4892V61.747H89.1006V48.6128H94.0166C95.6927 48.6128 97.0063 49.0131 97.9568 49.8136C98.9076 50.6141 99.3829 51.715 99.3829 53.1161C99.3829 54.1416 99.1201 55.0112 98.5949 55.7239C98.0818 56.4245 97.3441 56.9313 96.3807 57.2438L99.5892 61.747H98.0693ZM93.9791 56.3995C95.2799 56.3995 96.2745 56.1117 96.9625 55.5364C97.6503 54.9609 97.9943 54.1541 97.9943 53.1161C97.9943 52.0527 97.6503 51.2397 96.9625 50.6767C96.2745 50.1014 95.2799 49.8136 93.9791 49.8136H90.4892V56.3995H93.9791Z" fill="#415164"/>
<path d="M110.777 61.2985C109.88 60.9854 109.188 60.5716 108.699 60.0572L109.244 58.986C109.72 59.4634 110.354 59.8482 111.145 60.1422C111.936 60.4362 112.75 60.5852 113.591 60.5852C114.77 60.5852 115.654 60.3686 116.244 59.9354C116.834 59.5023 117.128 58.9414 117.128 58.2512C117.128 57.7251 116.967 57.3036 116.648 56.9903C116.329 56.677 115.937 56.4354 115.472 56.2653C115.008 56.0949 114.362 55.9113 113.535 55.7102C112.545 55.4588 111.754 55.2191 111.164 54.9871C110.574 54.755 110.07 54.4012 109.65 53.9235C109.231 53.4479 109.02 52.802 109.02 51.986C109.02 51.3208 109.196 50.7156 109.545 50.1702C109.898 49.6251 110.435 49.1901 111.164 48.8632C111.891 48.5362 112.794 48.374 113.873 48.374C114.625 48.374 115.362 48.4765 116.083 48.6852C116.805 48.8922 117.429 49.1784 117.955 49.542L117.485 50.6517C116.932 50.2882 116.344 50.0156 115.716 49.8338C115.089 49.652 114.475 49.5612 113.873 49.5612C112.719 49.5612 111.851 49.7835 111.267 50.2284C110.683 50.6729 110.392 51.2474 110.392 51.9493C110.392 52.4773 110.553 52.8988 110.872 53.2197C111.191 53.5387 111.593 53.7843 112.077 53.9526C112.56 54.1227 113.208 54.3064 114.024 54.5074C114.989 54.7455 115.77 54.9814 116.366 55.2134C116.961 55.4455 117.466 55.7974 117.88 56.2672C118.294 56.7371 118.5 57.3732 118.5 58.1757C118.5 58.8409 118.323 59.446 117.965 59.9914C117.607 60.5368 117.058 60.9699 116.319 61.289C115.579 61.608 114.67 61.7686 113.591 61.7686C112.612 61.7686 111.675 61.6118 110.779 61.2985" fill="#415164"/>
<path d="M126.817 48.4844H125.442L119.423 61.6545H120.871L122.451 58.1352H122.461L122.965 57.008H122.96L126.121 49.9346L129.281 57.0061V57.008L129.789 58.1352L131.369 61.6545H132.837L126.817 48.4844Z" fill="#415164"/>
<path d="M207.682 48.4844H206.309L200.289 61.6545H201.737L203.317 58.1352H203.325L203.832 57.008H203.826L206.986 49.9346L210.145 57.0061L210.147 57.008L210.654 58.1352H210.656L212.236 61.6545H213.703L207.682 48.4844Z" fill="#415164"/>
<path d="M135.02 48.4844H140.382C141.774 48.4844 143.004 48.7648 144.069 49.3216C145.135 49.8806 145.963 50.6577 146.552 51.6537C147.142 52.6515 147.436 53.7884 147.436 55.0686C147.436 56.3485 147.142 57.4857 146.552 58.4833C145.963 59.4811 145.135 60.2586 144.069 60.8173C143.004 61.3762 141.774 61.6545 140.382 61.6545H135.02V48.4844ZM140.306 60.4499C141.461 60.4499 142.47 60.2219 143.335 59.7635C144.201 59.3053 144.872 58.673 145.348 57.8626C145.823 57.0545 146.063 56.1224 146.063 55.0686C146.063 54.0145 145.825 53.0846 145.348 52.2743C144.87 51.4662 144.199 50.8319 143.335 50.3735C142.468 49.9154 141.459 49.6871 140.306 49.6871H136.412V60.448H140.306V60.4499Z" fill="#415164"/>
<path d="M154.511 57.1007V61.6545H153.136V57.1007L147.869 48.4844H149.356L153.871 55.8787L158.386 48.4844H159.779L154.511 57.1007Z" fill="#415164"/>
<path d="M165.742 55.4629L163.052 58.1914V61.6526H161.66V48.4844H163.052V56.4414L170.785 48.4844H172.384L166.682 54.4477L172.779 61.6526H171.123L165.742 55.4629Z" fill="#415164"/>
<path d="M176.778 60.8903C175.718 60.3063 174.891 59.5077 174.295 58.4925C173.7 57.4772 173.402 56.3365 173.402 55.068C173.402 53.7995 173.7 52.6604 174.295 51.6433C174.891 50.6281 175.718 49.8275 176.778 49.2435C177.838 48.6596 179.019 48.3696 180.324 48.3696C181.63 48.3696 182.805 48.6577 183.851 49.2359C184.899 49.812 185.723 50.6126 186.324 51.6338C186.926 52.6566 187.228 53.8014 187.228 55.068C187.228 56.3343 186.926 57.4791 186.324 58.502C185.723 59.5251 184.898 60.3237 183.851 60.9017C182.803 61.4781 181.628 61.7661 180.324 61.7661C179.021 61.7661 177.838 61.4742 176.778 60.8922M183.146 59.8188C183.987 59.349 184.644 58.6973 185.122 57.862C185.599 57.0286 185.837 56.0965 185.837 55.068C185.837 54.0392 185.599 53.109 185.122 52.2737C184.644 51.4403 183.987 50.7887 183.146 50.3169C182.304 49.8471 181.365 49.6109 180.324 49.6109C179.284 49.6109 178.34 49.8471 177.493 50.3169C176.646 50.7867 175.981 51.4384 175.5 52.2737C175.016 53.1071 174.775 54.0392 174.775 55.068C174.775 56.0965 175.016 57.0286 175.5 57.862C175.983 58.6954 176.648 59.349 177.493 59.8188C178.34 60.2889 179.284 60.5248 180.324 60.5248C181.365 60.5248 182.306 60.2889 183.146 59.8188Z" fill="#415164"/>
<path d="M200.904 48.4844L195.072 61.6545H193.699L187.867 48.4844H189.372L194.415 59.9241L199.494 48.4844H200.904Z" fill="#415164"/>
<path d="M113.466 37.5182C112.425 37.5182 111.464 37.085 110.828 36.3288C110.323 35.7293 109.786 34.6524 110.086 32.9334C110.298 31.7133 111.24 30.3673 112.599 29.0021C111.172 27.7337 109.386 26.4226 107.512 25.1793C105.46 29.8782 107.858 33.9002 107.972 34.0858L107.208 34.9038C103.929 33.1809 102.386 30.0212 101.666 27.6736C100.641 24.3246 97.3175 19.239 97.2827 19.1888L98.0273 18.3515C98.383 18.5294 102.668 20.6796 107.067 23.497C107.154 23.3462 107.247 23.1953 107.344 23.0445C109.817 19.1694 112.928 13.643 112.959 13.5869H113.97C114.001 13.643 117.113 19.1714 119.586 23.0445C119.676 23.1857 119.764 23.3268 119.845 23.468C124.248 20.6603 128.546 18.5255 128.902 18.3495L129.645 19.1888C129.612 19.239 126.286 24.3227 125.261 27.6736C124.544 30.0212 122.999 33.1809 119.719 34.9038L118.955 34.0858C119.069 33.9002 121.479 29.8608 119.4 25.1464C117.505 26.3994 115.701 27.7182 114.268 28.9983C115.639 30.3635 116.6 31.7073 116.84 32.9217C117.18 34.6407 116.67 35.7081 116.182 36.3019C115.548 37.0752 114.556 37.5182 113.464 37.5182H113.466ZM113.435 29.7834C112.22 30.9899 111.4 32.1385 111.228 33.1345C111.052 34.1478 111.221 34.9945 111.716 35.5845C112.129 36.0774 112.767 36.3597 113.464 36.3597C114.208 36.3597 114.873 36.0717 115.287 35.5671C115.759 34.9926 115.902 34.1573 115.703 33.1481C115.506 32.1502 114.666 30.9959 113.435 29.7834ZM99.377 20.3567C100.479 22.1956 102.088 25.0845 102.776 27.3353C103.294 29.0331 104.281 31.1929 106.131 32.7788C105.505 30.9067 105.002 27.8633 106.528 24.5373C103.996 22.9092 101.396 21.4318 99.377 20.3567ZM120.386 24.5064C121.927 27.844 121.425 30.901 120.796 32.7788C122.647 31.1929 123.633 29.0331 124.151 27.3353C124.841 25.0787 126.456 22.1802 127.558 20.3432C125.534 21.4125 122.923 22.884 120.386 24.5064ZM108.04 24.1312C109.981 25.4152 111.888 26.8132 113.433 28.2073C114.984 26.7997 116.907 25.3939 118.87 24.1003C118.787 23.9572 118.7 23.8122 118.607 23.6691C116.714 20.7028 114.454 16.7813 113.464 15.0468C112.474 16.7813 110.213 20.7028 108.32 23.6691C108.222 23.8238 108.129 23.9765 108.04 24.1312Z" fill="#415164"/>
<path d="M41.1949 82.1687H39.9232V85.0545H38.671V78.2067H39.9232V81.073H41.2341L43.2004 78.2067H44.5504L42.2123 81.523L44.6384 85.0545H43.2004L41.1949 82.1687ZM51.5142 78.2067V85.0545H50.262V79.2828H47.562L47.5033 80.9948C47.4707 81.9535 47.3925 82.7328 47.2686 83.3328C47.1447 83.9263 46.9457 84.3795 46.6718 84.6926C46.3979 84.9991 46.0197 85.1524 45.537 85.1524C45.3675 85.1524 45.136 85.1198 44.8425 85.0545L44.9305 83.9491C45.0153 83.9752 45.1131 83.9882 45.224 83.9882C45.6218 83.9882 45.9023 83.7535 46.0653 83.2839C46.2349 82.8078 46.3392 82.0611 46.3783 81.0437L46.4762 78.2067H51.5142ZM53.4504 78.2067H54.7025V83.0687L58.3808 78.2067H59.5645V85.0545H58.3123V80.2024L54.6341 85.0545H53.4504V78.2067ZM67.5691 78.2067V85.0545H66.2974V82.1198H62.7561V85.0545H61.4843V78.2067H62.7561V81.0339H66.2974V78.2067H67.5691ZM69.4998 78.2067H70.752V83.0687L74.4303 78.2067H75.6139V85.0545H74.3618V80.2024L70.6835 85.0545H69.4998V78.2067ZM80.058 82.1687H78.7862V85.0545H77.5341V78.2067H78.7862V81.073H80.0971L82.0634 78.2067H83.4134L81.0754 81.523L83.5014 85.0545H82.0634L80.058 82.1687ZM88.7892 83.4698H85.3653L84.6903 85.0545H83.3794L86.461 78.2067H87.7131L90.8044 85.0545H89.474L88.7892 83.4698ZM88.3686 82.4719L87.0773 79.4785L85.7957 82.4719H88.3686ZM97.708 85.1524C97.0167 85.1524 96.3906 85.0024 95.8297 84.7024C95.2754 84.3958 94.8384 83.9752 94.5188 83.4404C94.2058 82.9056 94.0493 82.3024 94.0493 81.6306C94.0493 80.9589 94.2091 80.3556 94.5286 79.8208C94.8482 79.2861 95.2851 78.8687 95.8395 78.5687C96.4004 78.2621 97.0265 78.1089 97.7178 78.1089C98.2786 78.1089 98.7906 78.2067 99.2536 78.4024C99.7167 78.598 100.108 78.8817 100.428 79.2535L99.6058 80.0263C99.1101 79.4915 98.5004 79.2241 97.7764 79.2241C97.3069 79.2241 96.8862 79.3285 96.5145 79.5372C96.1427 79.7393 95.8525 80.023 95.6438 80.3882C95.4351 80.7535 95.3308 81.1676 95.3308 81.6306C95.3308 82.0937 95.4351 82.5078 95.6438 82.873C95.8525 83.2382 96.1427 83.5252 96.5145 83.7339C96.8862 83.9361 97.3069 84.0371 97.7764 84.0371C98.5004 84.0371 99.1101 83.7665 99.6058 83.2252L100.428 84.0078C100.108 84.3795 99.7134 84.6632 99.2438 84.8589C98.7808 85.0545 98.2688 85.1524 97.708 85.1524ZM104.322 78.2067H105.574V83.0687L109.252 78.2067H110.436V85.0545H109.184V80.2024L105.506 85.0545H104.322V78.2067ZM118.441 78.2067V85.0545H117.169V82.1198H113.628V85.0545H112.356V78.2067H113.628V81.0339H117.169V78.2067H118.441ZM125.331 79.2828H123.062V85.0545H121.8V79.2828H119.54V78.2067H125.331V79.2828ZM131.564 83.9882V85.0545H126.428V78.2067H131.427V79.273H127.7V81.0535H131.006V82.1002H127.7V83.9882H131.564ZM137.628 79.2828H134.234L134.244 85.0545H132.991V78.2067H137.638L137.628 79.2828ZM141.521 78.2067C142.115 78.2067 142.63 78.3045 143.067 78.5002C143.51 78.6958 143.85 78.9763 144.084 79.3415C144.319 79.7067 144.437 80.1404 144.437 80.6426C144.437 81.1382 144.319 81.5719 144.084 81.9437C143.85 82.3089 143.51 82.5893 143.067 82.785C142.63 82.9806 142.115 83.0785 141.521 83.0785H139.976V85.0545H138.704V78.2067H141.521ZM141.463 82.0024C142.017 82.0024 142.438 81.885 142.725 81.6502C143.012 81.4154 143.155 81.0795 143.155 80.6426C143.155 80.2056 143.012 79.8698 142.725 79.635C142.438 79.4002 142.017 79.2828 141.463 79.2828H139.976V82.0024H141.463ZM149.835 83.4698H146.411L145.736 85.0545H144.425L147.507 78.2067H148.759L151.85 85.0545H150.52L149.835 83.4698ZM149.414 82.4719L148.123 79.4785L146.841 82.4719H149.414ZM158.798 78.2067V85.0545H157.546V79.2828H154.846L154.787 80.9948C154.754 81.9535 154.676 82.7328 154.552 83.3328C154.428 83.9263 154.229 84.3795 153.956 84.6926C153.682 84.9991 153.303 85.1524 152.821 85.1524C152.651 85.1524 152.42 85.1198 152.126 85.0545L152.214 83.9491C152.299 83.9752 152.397 83.9882 152.508 83.9882C152.906 83.9882 153.186 83.7535 153.349 83.2839C153.519 82.8078 153.623 82.0611 153.662 81.0437L153.76 78.2067H158.798ZM163.884 80.5252C164.706 80.5252 165.335 80.7111 165.772 81.0828C166.216 81.448 166.438 81.9926 166.438 82.7165C166.438 83.473 166.196 84.0534 165.714 84.4578C165.231 84.8556 164.553 85.0545 163.679 85.0545H160.734V78.2067H161.986V80.5252H163.884ZM163.62 84.0763C164.116 84.0763 164.497 83.9622 164.765 83.7339C165.032 83.5056 165.166 83.173 165.166 82.7361C165.166 81.9078 164.651 81.4937 163.62 81.4937H161.986V84.0763H163.62ZM173.821 78.2067V85.0545H172.55V82.1198H169.008V85.0545H167.737V78.2067H169.008V81.0339H172.55V78.2067H173.821ZM178.902 80.5252C179.724 80.5252 180.353 80.7111 180.79 81.0828C181.234 81.448 181.455 81.9926 181.455 82.7165C181.455 83.473 181.214 84.0534 180.731 84.4578C180.249 84.8556 179.57 85.0545 178.697 85.0545H175.752V78.2067H177.004V80.5252H178.902ZM178.638 84.0763C179.134 84.0763 179.515 83.9622 179.782 83.7339C180.05 83.5056 180.184 83.173 180.184 82.7361C180.184 81.9078 179.668 81.4937 178.638 81.4937H177.004V84.0763H178.638ZM182.443 78.2067H183.695V85.0545H182.443V78.2067ZM191.911 85.0545L191.901 80.5154L189.651 84.2719H189.084L186.834 80.5741V85.0545H185.63V78.2067H186.677L189.387 82.7361L192.067 78.2067H193.104L193.124 85.0545H191.911ZM39.4104 95.0545V101.902H38.1582V96.1306H34.6072V101.902H33.355V95.0545H39.4104ZM44.5107 102C43.8129 102 43.1835 101.85 42.6226 101.55C42.0618 101.244 41.6216 100.823 41.302 100.288C40.9824 99.7469 40.8226 99.1437 40.8226 98.4784C40.8226 97.8132 40.9824 97.2132 41.302 96.6785C41.6216 96.1371 42.0618 95.7165 42.6226 95.4165C43.1835 95.11 43.8129 94.9567 44.5107 94.9567C45.2085 94.9567 45.8379 95.11 46.3987 95.4165C46.9596 95.7165 47.3998 96.1339 47.7194 96.6687C48.0389 97.2034 48.1987 97.8067 48.1987 98.4784C48.1987 99.1502 48.0389 99.7535 47.7194 100.288C47.3998 100.823 46.9596 101.244 46.3987 101.55C45.8379 101.85 45.2085 102 44.5107 102ZM44.5107 100.885C44.9672 100.885 45.3781 100.784 45.7433 100.582C46.1085 100.373 46.3955 100.086 46.6042 99.7208C46.8129 99.3491 46.9172 98.935 46.9172 98.4784C46.9172 98.0219 46.8129 97.6111 46.6042 97.2458C46.3955 96.8741 46.1085 96.5872 45.7433 96.385C45.3781 96.1763 44.9672 96.0719 44.5107 96.0719C44.0542 96.0719 43.6433 96.1763 43.2781 96.385C42.9129 96.5872 42.6259 96.8741 42.4172 97.2458C42.2085 97.6111 42.1042 98.0219 42.1042 98.4784C42.1042 98.935 42.2085 99.3491 42.4172 99.7208C42.6259 100.086 42.9129 100.373 43.2781 100.582C43.6433 100.784 44.0542 100.885 44.5107 100.885ZM56.2028 100.826V103.36H55.0289V101.902H49.7756V103.36H48.5919L48.6017 100.826H48.8952C49.3256 100.807 49.6256 100.49 49.7952 99.8774C49.9713 99.2578 50.0789 98.3741 50.118 97.2263L50.1963 95.0545H55.2148V100.826H56.2028ZM51.2332 97.3437C51.2006 98.2306 51.1289 98.9708 51.018 99.5643C50.9072 100.151 50.7311 100.572 50.4898 100.826H53.9626V96.1306H51.2822L51.2332 97.3437ZM58.1928 95.0545L59.8069 97.3437L61.421 95.0545H62.908L60.6091 98.3415L63.0938 101.902H61.5873L59.8069 99.4078L58.0362 101.902H56.5688L59.0438 98.3904L56.7254 95.0545H58.1928ZM67.0949 102C66.3971 102 65.7677 101.85 65.2069 101.55C64.646 101.244 64.2058 100.823 63.8862 100.288C63.5667 99.7469 63.4069 99.1437 63.4069 98.4784C63.4069 97.8132 63.5667 97.2132 63.8862 96.6785C64.2058 96.1371 64.646 95.7165 65.2069 95.4165C65.7677 95.11 66.3971 94.9567 67.0949 94.9567C67.7928 94.9567 68.4221 95.11 68.983 95.4165C69.5438 95.7165 69.9841 96.1339 70.3036 96.6687C70.6232 97.2034 70.783 97.8067 70.783 98.4784C70.783 99.1502 70.6232 99.7535 70.3036 100.288C69.9841 100.823 69.5438 101.244 68.983 101.55C68.4221 101.85 67.7928 102 67.0949 102ZM67.0949 100.885C67.5514 100.885 67.9623 100.784 68.3275 100.582C68.6928 100.373 68.9797 100.086 69.1884 99.7208C69.3971 99.3491 69.5014 98.935 69.5014 98.4784C69.5014 98.0219 69.3971 97.6111 69.1884 97.2458C68.9797 96.8741 68.6928 96.5872 68.3275 96.385C67.9623 96.1763 67.5514 96.0719 67.0949 96.0719C66.6384 96.0719 66.2275 96.1763 65.8623 96.385C65.4971 96.5872 65.2101 96.8741 65.0014 97.2458C64.7928 97.6111 64.6884 98.0219 64.6884 98.4784C64.6884 98.935 64.7928 99.3491 65.0014 99.7208C65.2101 100.086 65.4971 100.373 65.8623 100.582C66.2275 100.784 66.6384 100.885 67.0949 100.885ZM78.787 100.826V103.36H77.6131V101.902H72.3599V103.36H71.1762L71.186 100.826H71.4794C71.9099 100.807 72.2099 100.49 72.3794 99.8774C72.5555 99.2578 72.6631 98.3741 72.7023 97.2263L72.7805 95.0545H77.799V100.826H78.787ZM73.8175 97.3437C73.7849 98.2306 73.7131 98.9708 73.6023 99.5643C73.4914 100.151 73.3153 100.572 73.074 100.826H76.5468V96.1306H73.8664L73.8175 97.3437ZM83.1539 102C82.4561 102 81.8267 101.85 81.2659 101.55C80.705 101.244 80.2648 100.823 79.9452 100.288C79.6256 99.7469 79.4658 99.1437 79.4658 98.4784C79.4658 97.8132 79.6256 97.2132 79.9452 96.6785C80.2648 96.1371 80.705 95.7165 81.2659 95.4165C81.8267 95.11 82.4561 94.9567 83.1539 94.9567C83.8517 94.9567 84.4811 95.11 85.0419 95.4165C85.6028 95.7165 86.043 96.1339 86.3626 96.6687C86.6822 97.2034 86.8419 97.8067 86.8419 98.4784C86.8419 99.1502 86.6822 99.7535 86.3626 100.288C86.043 100.823 85.6028 101.244 85.0419 101.55C84.4811 101.85 83.8517 102 83.1539 102ZM83.1539 100.885C83.6104 100.885 84.0213 100.784 84.3865 100.582C84.7517 100.373 85.0387 100.086 85.2474 99.7208C85.4561 99.3491 85.5604 98.935 85.5604 98.4784C85.5604 98.0219 85.4561 97.6111 85.2474 97.2458C85.0387 96.8741 84.7517 96.5872 84.3865 96.385C84.0213 96.1763 83.6104 96.0719 83.1539 96.0719C82.6974 96.0719 82.2865 96.1763 81.9213 96.385C81.5561 96.5872 81.2691 96.8741 81.0604 97.2458C80.8517 97.6111 80.7474 98.0219 80.7474 98.4784C80.7474 98.935 80.8517 99.3491 81.0604 99.7208C81.2691 100.086 81.5561 100.373 81.9213 100.582C82.2865 100.784 82.6974 100.885 83.1539 100.885ZM94.5384 101.902L94.5286 97.3632L92.2786 101.12H91.7112L89.4612 97.4219V101.902H88.258V95.0545H89.3047L92.0145 99.5839L94.6949 95.0545H95.7319L95.7514 101.902H94.5384ZM104.881 98.3415C105.318 98.4589 105.651 98.6611 105.879 98.948C106.107 99.2284 106.221 99.5806 106.221 100.005C106.221 100.605 106 101.071 105.556 101.403C105.113 101.736 104.47 101.902 103.629 101.902H100.381V95.0545H103.443C104.213 95.0545 104.813 95.2078 105.243 95.5143C105.673 95.8208 105.889 96.2545 105.889 96.8154C105.889 97.1741 105.801 97.4839 105.625 97.7448C105.455 98.0056 105.207 98.2045 104.881 98.3415ZM101.633 97.9795H103.335C103.746 97.9795 104.059 97.898 104.275 97.735C104.49 97.5719 104.597 97.3306 104.597 97.0111C104.597 96.6915 104.49 96.4502 104.275 96.2871C104.059 96.1176 103.746 96.0328 103.335 96.0328H101.633V97.9795ZM103.59 100.924C104.49 100.924 104.94 100.585 104.94 99.9067C104.94 99.2415 104.49 98.9089 103.59 98.9089H101.633V100.924H103.59ZM112.897 99.0165H111.626V101.902H110.373V95.0545H111.626V97.9208H112.936L114.903 95.0545H116.253L113.915 98.3708L116.341 101.902H114.903L112.897 99.0165ZM120.355 102C119.657 102 119.028 101.85 118.467 101.55C117.906 101.244 117.466 100.823 117.146 100.288C116.826 99.7469 116.667 99.1437 116.667 98.4784C116.667 97.8132 116.826 97.2132 117.146 96.6785C117.466 96.1371 117.906 95.7165 118.467 95.4165C119.028 95.11 119.657 94.9567 120.355 94.9567C121.053 94.9567 121.682 95.11 122.243 95.4165C122.804 95.7165 123.244 96.1339 123.563 96.6687C123.883 97.2034 124.043 97.8067 124.043 98.4784C124.043 99.1502 123.883 99.7535 123.563 100.288C123.244 100.823 122.804 101.244 122.243 101.55C121.682 101.85 121.053 102 120.355 102ZM120.355 100.885C120.811 100.885 121.222 100.784 121.587 100.582C121.953 100.373 122.239 100.086 122.448 99.7208C122.657 99.3491 122.761 98.935 122.761 98.4784C122.761 98.0219 122.657 97.6111 122.448 97.2458C122.239 96.8741 121.953 96.5872 121.587 96.385C121.222 96.1763 120.811 96.0719 120.355 96.0719C119.898 96.0719 119.487 96.1763 119.122 96.385C118.757 96.5872 118.47 96.8741 118.261 97.2458C118.053 97.6111 117.948 98.0219 117.948 98.4784C117.948 98.935 118.053 99.3491 118.261 99.7208C118.47 100.086 118.757 100.373 119.122 100.582C119.487 100.784 119.898 100.885 120.355 100.885ZM128.599 102C127.907 102 127.281 101.85 126.72 101.55C126.166 101.244 125.729 100.823 125.41 100.288C125.097 99.7535 124.94 99.1502 124.94 98.4784C124.94 97.8067 125.1 97.2034 125.419 96.6687C125.739 96.1339 126.176 95.7165 126.73 95.4165C127.291 95.11 127.917 94.9567 128.609 94.9567C129.169 94.9567 129.681 95.0545 130.144 95.2502C130.607 95.4458 130.999 95.7295 131.318 96.1013L130.497 96.8741C130.001 96.3393 129.391 96.0719 128.667 96.0719C128.198 96.0719 127.777 96.1763 127.405 96.385C127.034 96.5872 126.743 96.8708 126.535 97.2361C126.326 97.6013 126.222 98.0154 126.222 98.4784C126.222 98.9415 126.326 99.3556 126.535 99.7208C126.743 100.086 127.034 100.373 127.405 100.582C127.777 100.784 128.198 100.885 128.667 100.885C129.391 100.885 130.001 100.614 130.497 100.073L131.318 100.856C130.999 101.227 130.604 101.511 130.135 101.707C129.672 101.902 129.16 102 128.599 102ZM138.789 101.902L138.779 97.3632L136.529 101.12H135.962L133.712 97.4219V101.902H132.509V95.0545H133.556L136.265 99.5839L138.946 95.0545H139.983L140.002 101.902H138.789ZM147.054 100.836V101.902H141.919V95.0545H146.917V96.1208H143.19V97.9013H146.497V98.948H143.19V100.836H147.054ZM153.442 96.1306H151.172V101.902H149.91V96.1306H147.651V95.0545H153.442V96.1306ZM157.613 102C156.915 102 156.285 101.85 155.725 101.55C155.164 101.244 154.723 100.823 154.404 100.288C154.084 99.7469 153.925 99.1437 153.925 98.4784C153.925 97.8132 154.084 97.2132 154.404 96.6785C154.723 96.1371 155.164 95.7165 155.725 95.4165C156.285 95.11 156.915 94.9567 157.613 94.9567C158.31 94.9567 158.94 95.11 159.501 95.4165C160.061 95.7165 160.502 96.1339 160.821 96.6687C161.141 97.2034 161.301 97.8067 161.301 98.4784C161.301 99.1502 161.141 99.7535 160.821 100.288C160.502 100.823 160.061 101.244 159.501 101.55C158.94 101.85 158.31 102 157.613 102ZM157.613 100.885C158.069 100.885 158.48 100.784 158.845 100.582C159.21 100.373 159.497 100.086 159.706 99.7208C159.915 99.3491 160.019 98.935 160.019 98.4784C160.019 98.0219 159.915 97.6111 159.706 97.2458C159.497 96.8741 159.21 96.5872 158.845 96.385C158.48 96.1763 158.069 96.0719 157.613 96.0719C157.156 96.0719 156.745 96.1763 156.38 96.385C156.015 96.5872 155.728 96.8741 155.519 97.2458C155.31 97.6111 155.206 98.0219 155.206 98.4784C155.206 98.935 155.31 99.3491 155.519 99.7208C155.728 100.086 156.015 100.373 156.38 100.582C156.745 100.784 157.156 100.885 157.613 100.885ZM168.366 95.0545V101.902H167.113V96.1306H164.413L164.355 97.8426C164.322 98.8013 164.244 99.5806 164.12 100.181C163.996 100.774 163.797 101.227 163.523 101.54C163.249 101.847 162.871 102 162.388 102C162.219 102 161.987 101.968 161.694 101.902L161.782 100.797C161.867 100.823 161.964 100.836 162.075 100.836C162.473 100.836 162.754 100.601 162.917 100.132C163.086 99.6556 163.191 98.9089 163.23 97.8915L163.328 95.0545H168.366ZM173.462 102C172.764 102 172.134 101.85 171.573 101.55C171.013 101.244 170.572 100.823 170.253 100.288C169.933 99.7469 169.773 99.1437 169.773 98.4784C169.773 97.8132 169.933 97.2132 170.253 96.6785C170.572 96.1371 171.013 95.7165 171.573 95.4165C172.134 95.11 172.764 94.9567 173.462 94.9567C174.159 94.9567 174.789 95.11 175.35 95.4165C175.91 95.7165 176.351 96.1339 176.67 96.6687C176.99 97.2034 177.15 97.8067 177.15 98.4784C177.15 99.1502 176.99 99.7535 176.67 100.288C176.351 100.823 175.91 101.244 175.35 101.55C174.789 101.85 174.159 102 173.462 102ZM173.462 100.885C173.918 100.885 174.329 100.784 174.694 100.582C175.059 100.373 175.346 100.086 175.555 99.7208C175.764 99.3491 175.868 98.935 175.868 98.4784C175.868 98.0219 175.764 97.6111 175.555 97.2458C175.346 96.8741 175.059 96.5872 174.694 96.385C174.329 96.1763 173.918 96.0719 173.462 96.0719C173.005 96.0719 172.594 96.1763 172.229 96.385C171.864 96.5872 171.577 96.8741 171.368 97.2458C171.159 97.6111 171.055 98.0219 171.055 98.4784C171.055 98.935 171.159 99.3491 171.368 99.7208C171.577 100.086 171.864 100.373 172.229 100.582C172.594 100.784 173.005 100.885 173.462 100.885ZM183.203 96.1306H179.808L179.818 101.902H178.566V95.0545H183.212L183.203 96.1306ZM184.288 95.0545H185.54V99.9165L189.218 95.0545H190.402V101.902H189.15V97.0502L185.472 101.902H184.288V95.0545ZM192.332 95.0545H193.584V99.9165L197.262 95.0545H198.446V101.902H197.194V97.0502L193.516 101.902H192.332V95.0545Z" fill="#415164"/>
</svg>
