<svg width="256" height="125" viewBox="0 0 256 125" fill="none" xmlns="http://www.w3.org/2000/svg">
<path d="M10.8692 105.723C10.929 105.36 11.0486 104.677 11.1483 104.335C11.3676 103.503 11.4075 103.46 11.4075 103.396C11.4075 103.311 11.3477 103.289 11.2679 103.289C11.0885 103.289 11.0686 103.439 11.0287 103.546C10.8692 104.101 10.2911 104.89 9.95216 105.189C9.23447 105.808 8.31742 106 7.44024 106C5.56627 106 4.31031 105.018 3.53281 103.93C2.6955 102.777 2.27685 101.219 2.27685 99.6609C2.27685 98.9352 2.35659 98.2095 2.55595 97.5051C2.75531 96.8007 3.05434 96.1177 3.49293 95.5414C4.56947 94.09 6.02479 93.7485 7.04152 93.7485C8.07819 93.7485 9.37402 94.1967 10.012 94.6236C10.6699 95.0505 10.6699 95.4133 10.6699 95.7335V96.139C10.6699 96.2244 10.6699 96.3525 10.8094 96.3525C10.9888 96.3525 10.9888 96.075 11.0088 95.8402C11.0486 95.4774 11.0885 95.0291 11.2281 94.3888C11.3078 94.0259 11.3477 93.9619 11.3477 93.8979C11.3477 93.8338 11.3078 93.7698 11.2281 93.7698C11.1882 93.7698 10.8891 93.8552 10.7496 93.8552C10.5303 93.8552 10.2711 93.7698 9.95216 93.6844C9.11485 93.4283 8.25761 93.2789 7.40037 93.2789C5.52639 93.2789 3.93152 93.9406 2.79518 94.9651C1.1405 96.4806 0.761719 98.4656 0.761719 99.853C0.761719 101.689 1.4196 103.268 2.37652 104.357C3.45306 105.573 5.18748 106.47 7.34056 106.47C8.11806 106.47 8.67626 106.342 9.2544 106.192L10.8692 105.723Z" fill="#331F07"/>
<path d="M12.993 99.8317C12.993 101.475 13.5313 103.354 15.0464 104.848C16.2426 106.022 17.7577 106.577 19.2728 106.577C21.386 106.577 22.7815 105.573 23.5391 104.869C25.3134 103.183 25.6323 101.091 25.6323 99.8103C25.6323 97.7826 24.815 95.8402 23.3796 94.6236C22.2831 93.6844 20.8677 93.1935 19.4124 93.1935C17.658 93.1935 15.9634 93.9619 14.8072 95.1999C13.8104 96.2458 12.993 97.8253 12.993 99.8317ZM18.894 93.8765C20.4889 93.8765 21.685 94.6022 22.642 95.7335C23.878 97.1849 24.3565 98.9992 24.3565 100.6C24.3565 102.542 23.6587 103.93 22.8413 104.72C22.1635 105.381 21.1468 105.851 19.9307 105.851C19.2927 105.851 17.1995 105.701 15.6245 103.418C15.0663 102.585 14.2689 101.112 14.2689 99.1059C14.2689 97.7826 14.5281 96.4592 15.5249 95.3493C16.2027 94.5809 17.3191 93.8765 18.894 93.8765Z" fill="#331F07"/>
<path d="M28.0845 106.256C28.1044 106.192 28.1443 106.128 28.3038 106.128C28.4832 106.128 29.161 106.299 29.5597 106.384C30.1179 106.491 30.9752 106.577 31.4138 106.577C32.4504 106.577 33.3675 106.32 34.125 105.723C34.8427 105.146 35.3212 104.314 35.3212 103.14C35.3212 102.329 35.1019 101.625 34.6035 100.984C34.1051 100.344 33.507 99.9384 32.8491 99.6182L31.7726 99.1273C31.1147 98.8285 30.078 98.4016 29.5398 97.7826C29.161 97.3343 28.9816 96.8221 28.9816 96.1817C28.9816 95.1359 29.4002 94.4742 29.8189 94.1327C30.1977 93.8125 30.716 93.5564 31.4935 93.5564C32.5102 93.5564 33.6665 93.9192 34.2646 94.9651C34.7032 95.7122 34.6234 96.2031 34.7829 96.2031H34.8228C34.8826 96.2031 34.9424 96.1817 34.9424 96.075C34.9424 95.8402 34.8029 95.7548 34.8029 94.709C34.8029 94.3888 34.8427 94.0046 34.9025 93.7058C34.9424 93.535 34.9623 93.4923 34.9623 93.4283C34.9623 93.3216 34.8826 93.2789 34.8427 93.2789C34.763 93.2789 34.7032 93.3643 34.5636 93.4283C34.4241 93.4923 34.2646 93.5564 34.0453 93.5564C33.7263 93.5564 33.3874 93.4283 33.0086 93.3429C32.6298 93.2575 32.1115 93.1935 31.7128 93.1935C30.6363 93.1935 29.5796 93.5564 28.842 94.3034C28.3038 94.8584 27.8652 95.6908 27.8652 96.7794C27.8652 97.868 28.2838 98.5723 28.9018 99.1273C29.1012 99.3194 29.5996 99.7036 30.6961 100.216L31.2941 100.493C32.2311 100.942 32.8292 101.198 33.2877 101.582C33.9655 102.137 34.1649 102.777 34.1649 103.61C34.1649 104.527 33.826 105.082 33.5469 105.381C33.3077 105.637 32.7495 106.086 31.633 106.086C30.6961 106.086 29.46 105.787 28.6427 105.168C28.2041 104.826 28.0247 104.527 27.8851 104.122C27.8054 103.866 27.6857 103.439 27.6459 103.225C27.6259 103.119 27.606 103.012 27.4864 103.012C27.4066 103.012 27.307 103.055 27.307 103.183C27.307 103.311 27.3867 103.46 27.5263 104.122C27.6459 104.72 27.7655 105.296 27.7655 106.448H28.0047C28.0247 106.384 28.0446 106.32 28.0845 106.256Z" fill="#331F07"/>
<path d="M39.7557 93.4283C39.3968 93.4496 38.9184 93.471 38.3801 93.471C37.5627 93.471 36.6457 93.4069 36.4064 93.4069C36.3068 93.4069 36.2669 93.4069 36.2669 93.5137C36.2669 93.6417 36.4064 93.6204 36.7852 93.6844C37.2238 93.7698 37.782 93.9406 38.0811 94.3461C38.3402 94.709 38.4598 95.3706 38.4598 96.6513C38.4598 98.5296 38.3801 100.472 38.2605 102.244C38.0811 104.912 37.9614 105.232 37.6823 105.552C37.4431 105.808 37.164 106 36.5659 106.107C36.4862 106.128 36.2071 106.15 36.2071 106.32C36.2071 106.406 36.247 106.448 36.3068 106.448C36.3865 106.448 36.8052 106.384 37.0444 106.363C37.5229 106.32 37.9415 106.299 38.5994 106.299C38.9184 106.299 39.2373 106.32 39.5563 106.342C39.7756 106.363 39.9949 106.384 40.2142 106.384H40.4136C40.4933 106.384 40.5332 106.342 40.5332 106.278C40.5332 106.15 40.3537 106.107 40.3139 106.107L39.5762 105.936C39.337 105.872 39.0779 105.765 38.9184 105.403C38.7788 105.082 38.7589 104.677 38.7589 103.866V103.482C38.7589 102.116 38.7987 99.7463 39.0978 95.5627L39.1775 95.5414C40.274 97.7399 41.6097 100.515 43.1248 103.823C43.3441 104.293 43.7229 105.125 43.9023 105.829C44.0219 106.299 44.0818 106.32 44.1017 106.32C44.2213 106.32 44.5602 105.339 44.8792 104.549L45.8361 102.286C46.8528 100.002 47.8696 97.8253 49.1255 95.4774L49.2053 95.4987C49.2451 97.6545 49.285 101.411 49.285 102.841C49.285 103.973 49.2651 104.613 49.0857 105.082C48.9461 105.424 48.6869 105.787 48.1885 105.979C47.8696 106.107 47.8496 106.043 47.5107 106.128C47.411 106.15 47.3712 106.171 47.3712 106.278C47.3712 106.448 47.4509 106.448 47.5506 106.448C47.8496 106.448 48.2085 106.384 48.6471 106.342C49.2651 106.299 50.222 106.278 50.6606 106.278C51.4182 106.278 51.6375 106.342 52.076 106.342C52.1159 106.342 52.2355 106.342 52.2355 106.214C52.2355 106.086 52.096 106.043 52.0362 106.043L51.6175 106C51.3783 105.979 51.1391 105.894 50.9596 105.659C50.8201 105.467 50.7603 105.232 50.7204 104.976C50.4812 103.631 50.4413 101.817 50.4413 96.8861C50.4413 94.9438 50.521 94.0686 50.9596 93.8979C51.1191 93.8338 51.4381 93.8125 51.6175 93.8125C52.1558 93.7911 52.1957 93.6417 52.1957 93.5564C52.1957 93.4923 52.1757 93.4496 51.9764 93.4496C51.8169 93.4496 51.1391 93.5137 50.7603 93.5137C50.222 93.5137 49.8233 93.4923 49.5043 93.471L48.6271 95.328C47.2715 98.1881 46.0753 100.835 44.7596 103.332C44.6798 103.503 44.6001 103.61 44.5403 103.61C44.4406 103.61 44.3808 103.396 44.321 103.268L42.9454 100.493C41.6097 97.8039 40.6727 96.0964 39.7557 93.4283Z" fill="#331F07"/>
<path d="M62.1007 93.4283H61.2036C57.5752 93.4283 57.017 93.5137 55.1431 93.5137C54.0067 93.5137 53.927 93.4283 53.4086 93.4283C53.3488 93.4283 53.2292 93.4283 53.2292 93.5564C53.2292 93.6417 53.289 93.6844 53.3488 93.7058C53.5083 93.7698 53.7475 93.7698 54.0067 93.9192C54.4453 94.154 54.545 94.5382 54.545 96.2885V98.2735C54.545 104.207 54.3656 105.531 54.2061 105.787C54.0864 105.979 53.7077 106.043 53.5282 106.086C53.3488 106.128 53.1295 106.15 53.1295 106.32C53.1295 106.448 53.2491 106.448 53.3089 106.448C53.5083 106.448 53.6479 106.406 54.2061 106.384C55.3823 106.32 56.2395 106.278 57.6749 106.278C59.21 106.278 61.1437 106.342 62.0209 106.363C62.1605 106.022 62.4197 105.381 62.6389 104.591C62.7386 104.25 62.8383 103.823 62.8383 103.546C62.8383 103.439 62.8184 103.375 62.7187 103.375C62.6589 103.375 62.619 103.439 62.5991 103.482C62.4396 103.823 62.4795 103.866 62.2801 104.207C62.0409 104.613 61.7219 104.976 61.3431 105.232C60.4859 105.787 59.2498 105.851 58.2929 105.851C57.3958 105.851 56.6582 105.765 55.9206 105.637C55.8209 104.122 55.8209 103.183 55.8209 101.753V100.493C55.8209 100.301 55.8408 100.152 55.9405 100.066C56.0601 99.9811 56.3193 99.9597 57.017 99.9597H58.0936C59.3296 99.9597 59.7084 100.002 59.9675 100.066C60.0871 100.088 60.2068 100.13 60.3064 100.195C60.6055 100.365 60.7052 100.557 60.7849 100.878C60.8846 101.24 60.9045 101.603 60.9245 101.646C60.9444 101.689 60.9643 101.774 61.064 101.774C61.1238 101.774 61.1437 101.731 61.1637 101.689C61.1836 101.625 61.1836 101.582 61.1836 101.518L61.1637 101.198C61.1437 100.814 61.0839 100.685 61.0839 99.8317C61.0839 98.9992 61.2036 98.7217 61.2036 98.2308C61.2036 98.1881 61.2036 98.0814 61.1039 98.0814C61.0441 98.0814 60.9643 98.1454 60.9444 98.2095L60.8447 98.615C60.7052 99.0846 60.4061 99.298 59.9875 99.3621C59.19 99.4901 58.8113 99.4901 57.9939 99.4901H56.6981C56.2196 99.4901 56.0202 99.4688 55.9206 99.3834C55.8209 99.298 55.8209 99.1486 55.8209 99.0419V98.6364C55.8209 97.3557 55.8408 96.4165 55.9604 94.0686C56.4189 94.0046 57.1566 93.8979 58.3727 93.8979C58.7315 93.8979 59.8679 93.8979 60.446 94.0046C61.383 94.1753 61.4627 94.5809 61.4627 94.8157C61.4627 94.9438 61.4428 95.2212 61.4229 95.328C61.4029 95.4774 61.363 95.5627 61.363 95.6481C61.363 95.7762 61.4627 95.8189 61.5425 95.8189C61.8016 95.8189 61.8016 95.0505 61.8614 94.6663C61.9213 94.2607 61.9611 93.9832 62.1007 93.4283Z" fill="#331F07"/>
<path d="M75.2822 93.2789C75.1426 93.3856 75.043 93.4069 74.8835 93.4283C74.5047 93.471 74.086 93.471 73.6873 93.471C73.2089 93.471 72.1323 93.4496 71.3548 93.4496C70.9561 93.4496 70.0191 93.4283 69.3612 93.4283C67.8062 93.4283 67.5072 93.4923 65.7329 93.4923C65.1348 93.4923 64.7162 93.471 64.3374 93.1935C64.2377 93.1295 64.2178 93.0654 64.158 93.0654C64.0184 93.0654 64.0184 93.4283 63.9586 93.6417C63.8589 94.0473 63.6994 94.3888 63.5798 94.7303C63.4403 95.0932 63.3207 95.2212 63.3207 95.3706C63.3207 95.5201 63.4801 95.5201 63.52 95.5201C63.5998 95.5201 63.6197 95.456 63.6396 95.392C63.7194 95.1359 63.7792 94.9651 63.8589 94.837C63.9586 94.6663 64.0782 94.5382 64.2975 94.4315C64.9953 94.0686 66.1914 94.0473 66.63 94.0473C67.4275 94.0473 68.0853 94.0686 68.6435 94.1113C68.7033 94.9864 68.7432 95.8616 68.7432 96.7794V98.7858C68.7432 104.805 68.6834 105.467 68.504 105.701C68.4442 105.787 68.3644 105.829 68.2648 105.872C68.0056 105.979 67.7265 106 67.1683 106.086C67.0287 106.107 66.8692 106.128 66.8692 106.32C66.8692 106.47 66.949 106.47 67.0088 106.47C67.1483 106.47 67.6467 106.384 67.9458 106.342C68.4442 106.278 69.1818 106.214 69.8397 106.214C70.5973 106.214 71.6339 106.342 71.7735 106.342C71.913 106.342 71.9529 106.342 71.9529 106.128C71.9529 105.958 71.8333 105.958 71.7336 105.958C71.3149 105.958 70.5773 105.936 70.3182 105.531C70.2384 105.403 70.1985 105.189 70.1587 104.741C70.0989 104.122 70.0989 103.482 70.0789 102.841C70.059 101.518 70.059 100.216 70.059 98.9138C70.059 97.249 70.059 96.3098 70.1587 94.0686C70.5175 94.0473 70.996 94.0259 71.4744 94.0259C72.3317 94.0259 73.2487 94.09 73.787 94.218C74.4648 94.3888 74.6442 94.709 74.6442 95.0078C74.6442 95.1359 74.5844 95.3493 74.5844 95.4987C74.5844 95.5841 74.6243 95.6268 74.7439 95.6268C74.8436 95.6268 74.8835 95.6054 74.9034 95.456L75.023 94.8157C75.1028 94.4101 75.2024 94.0046 75.4217 93.4496L75.2822 93.2789Z" fill="#331F07"/>
<path d="M80.7135 93.3643C80.1154 93.3643 79.7366 93.4496 79.3578 93.471C78.979 93.5137 78.4408 93.535 78.1019 93.535C77.5237 93.535 76.7063 93.471 76.2279 93.471C76.1282 93.471 75.9687 93.471 75.9687 93.6417C75.9687 93.8125 76.2279 93.8125 76.3674 93.8125C76.6067 93.8125 77.0851 93.9192 77.2446 94.0259C77.4838 94.1753 77.5835 94.5169 77.6234 94.6876C77.743 95.1572 77.7829 95.6268 77.8028 96.1177C77.8626 97.1209 77.8626 98.1027 77.8626 99.1059V100.685C77.8626 104.207 77.7629 104.869 77.6433 105.21C77.5835 105.381 77.5038 105.552 77.3642 105.68C77.1649 105.872 76.826 105.958 76.5867 106C76.3076 106.043 76.0883 106 75.9687 106.064C75.9089 106.086 75.869 106.171 75.869 106.235C75.869 106.384 75.9289 106.384 76.0684 106.384C76.6266 106.384 77.3642 106.299 78.0022 106.299C78.6601 106.299 78.8794 106.406 80.5739 106.406C80.6537 106.406 80.7334 106.406 80.7932 106.342C80.8131 106.32 80.8331 106.278 80.8331 106.235C80.8331 106.107 80.7334 106.086 80.6736 106.086C80.3945 106.043 80.1553 106.064 79.8762 106C79.617 105.936 79.4774 105.851 79.3379 105.552C79.1983 105.21 79.1385 104.762 79.1385 103.482V101.497C79.1385 95.4774 79.2382 94.4101 79.5971 94.0473C79.7565 93.8979 80.0556 93.8125 80.4344 93.7058C80.6138 93.6631 80.8729 93.6417 80.8729 93.4923C80.8729 93.3643 80.7733 93.3643 80.7135 93.3643Z" fill="#331F07"/>
<path d="M92.3446 105.723C92.4044 105.36 92.5241 104.677 92.6237 104.335C92.843 103.503 92.8829 103.46 92.8829 103.396C92.8829 103.311 92.8231 103.289 92.7434 103.289C92.5639 103.289 92.544 103.439 92.5041 103.546C92.3446 104.101 91.7665 104.89 91.4276 105.189C90.7099 105.808 89.7929 106 88.9157 106C87.0417 106 85.7857 105.018 85.0082 103.93C84.1709 102.777 83.7523 101.219 83.7523 99.6609C83.7523 98.9352 83.832 98.2095 84.0314 97.5051C84.2307 96.8007 84.5298 96.1177 84.9684 95.5414C86.0449 94.09 87.5002 93.7485 88.517 93.7485C89.5536 93.7485 90.8495 94.1967 91.4874 94.6236C92.1453 95.0505 92.1453 95.4133 92.1453 95.7335V96.139C92.1453 96.2244 92.1453 96.3525 92.2848 96.3525C92.4643 96.3525 92.4643 96.075 92.4842 95.8402C92.5241 95.4774 92.5639 95.0291 92.7035 94.3888C92.7832 94.0259 92.8231 93.9619 92.8231 93.8979C92.8231 93.8338 92.7832 93.7698 92.7035 93.7698C92.6636 93.7698 92.3646 93.8552 92.225 93.8552C92.0057 93.8552 91.7466 93.7698 91.4276 93.6844C90.5903 93.4283 89.733 93.2789 88.8758 93.2789C87.0018 93.2789 85.407 93.9406 84.2706 94.9651C82.6159 96.4806 82.2372 98.4656 82.2372 99.853C82.2372 101.689 82.895 103.268 83.852 104.357C84.9285 105.573 86.6629 106.47 88.816 106.47C89.5935 106.47 90.1517 106.342 90.7298 106.192L92.3446 105.723Z" fill="#331F07"/>
<path d="M101.935 93.671C101.327 93.671 101.064 93.5875 100.74 93.5875C100.497 93.5875 100.254 93.5875 100.254 93.7546C100.254 93.8381 100.335 93.859 100.376 93.9007C100.477 93.9425 100.619 93.9425 100.72 93.9634C100.862 93.9843 101.064 94.0678 101.165 94.1513C101.267 94.2349 101.327 94.3393 101.368 94.4646C101.591 95.0284 101.611 96.0934 101.611 98.9544V103.59C101.611 104.906 101.611 105.512 100.943 105.741C100.74 105.804 100.599 105.825 100.457 105.846C100.376 105.867 100.315 105.887 100.315 105.992C100.315 106.159 100.497 106.159 100.578 106.159C100.72 106.159 100.882 106.138 101.024 106.117C101.51 106.034 101.995 106.013 102.481 106.013C103.048 106.013 103.534 106.054 104.607 106.096C105.113 106.117 105.376 106.138 105.66 106.138C107.522 106.138 109.344 105.574 110.559 104.572C111.996 103.402 112.826 101.565 112.826 99.7061C112.826 97.597 111.713 95.7384 110.073 94.5481C108.757 93.6293 107.482 93.3578 105.822 93.3578C105.154 93.3578 104.587 93.3996 104.081 93.4622C103.23 93.5457 102.562 93.671 101.935 93.671ZM105.336 93.7754C106.611 93.7754 108.352 93.9843 109.709 95.4043C110.195 95.9264 110.579 96.5528 110.842 97.2211C111.146 98.0355 111.288 98.9126 111.288 99.7897C111.288 101.753 110.66 103.214 109.81 104.133C109.101 104.906 107.866 105.72 105.923 105.72C105.498 105.72 104.911 105.658 104.405 105.574C103.898 105.491 103.251 105.282 103.089 104.969C102.947 104.697 102.906 103.695 102.906 100.249C102.906 95.8428 102.947 94.5481 103.109 94.2766C103.271 94.0052 104.04 93.7754 105.336 93.7754Z" fill="#331F07"/>
<path d="M123.445 93.4204H122.534C118.85 93.4204 118.283 93.504 116.38 93.504C115.226 93.504 115.145 93.4204 114.618 93.4204C114.558 93.4204 114.436 93.4204 114.436 93.5457C114.436 93.6293 114.497 93.671 114.558 93.6919C114.72 93.7546 114.963 93.7546 115.226 93.9007C115.671 94.1304 115.772 94.5063 115.772 96.2187V98.1608C115.772 103.966 115.59 105.261 115.428 105.512C115.307 105.699 114.922 105.762 114.74 105.804C114.558 105.846 114.335 105.867 114.335 106.034C114.335 106.159 114.457 106.159 114.517 106.159C114.72 106.159 114.861 106.117 115.428 106.096C116.623 106.034 117.493 105.992 118.951 105.992C120.51 105.992 122.473 106.054 123.364 106.075C123.506 105.741 123.769 105.115 123.992 104.342C124.093 104.008 124.194 103.59 124.194 103.319C124.194 103.214 124.174 103.152 124.073 103.152C124.012 103.152 123.972 103.214 123.951 103.256C123.789 103.59 123.83 103.632 123.627 103.966C123.385 104.363 123.061 104.718 122.676 104.969C121.805 105.512 120.55 105.574 119.578 105.574C118.667 105.574 117.918 105.491 117.169 105.365C117.068 103.883 117.068 102.964 117.068 101.565V100.333C117.068 100.145 117.088 99.9985 117.19 99.915C117.311 99.8314 117.574 99.8105 118.283 99.8105H119.376C120.631 99.8105 121.016 99.8523 121.279 99.915C121.401 99.9358 121.522 99.9776 121.623 100.04C121.927 100.207 122.028 100.395 122.109 100.708C122.21 101.064 122.231 101.419 122.251 101.46C122.271 101.502 122.291 101.586 122.393 101.586C122.453 101.586 122.473 101.544 122.494 101.502C122.514 101.439 122.514 101.398 122.514 101.335L122.494 101.022C122.473 100.646 122.413 100.521 122.413 99.6852C122.413 98.8708 122.534 98.5993 122.534 98.119C122.534 98.0773 122.534 97.9729 122.433 97.9729C122.372 97.9729 122.291 98.0355 122.271 98.0982L122.17 98.4949C122.028 98.9544 121.724 99.1632 121.299 99.2258C120.489 99.3511 120.105 99.3511 119.275 99.3511H117.959C117.473 99.3511 117.271 99.3302 117.169 99.2467C117.068 99.1632 117.068 99.017 117.068 98.9126V98.5158C117.068 97.2629 117.088 96.344 117.21 94.0469C117.675 93.9843 118.425 93.8799 119.659 93.8799C120.024 93.8799 121.178 93.8799 121.765 93.9843C122.716 94.1513 122.797 94.5481 122.797 94.7778C122.797 94.9031 122.777 95.1746 122.757 95.279C122.737 95.4252 122.696 95.5087 122.696 95.5922C122.696 95.7175 122.797 95.7593 122.878 95.7593C123.142 95.7593 123.142 95.0075 123.202 94.6316C123.263 94.2349 123.304 93.9634 123.445 93.4204Z" fill="#331F07"/>
<path d="M131.689 99.7688C132.316 99.5808 132.985 99.2258 133.43 98.7455C133.997 98.119 134.22 97.3881 134.22 96.6573C134.22 95.8011 133.896 94.9031 133.147 94.2557C132.276 93.4831 131.001 93.2325 130.09 93.2325C129.685 93.2325 129.037 93.2951 128.672 93.3369C128.045 93.3996 127.437 93.504 126.911 93.504C126.79 93.504 126.567 93.504 126.041 93.4622C125.737 93.4413 125.676 93.4204 125.555 93.4204C125.393 93.4204 125.372 93.5248 125.372 93.6084C125.372 93.7337 125.453 93.7546 125.555 93.7754C125.818 93.8172 126.162 93.7963 126.385 93.9843C126.547 94.1096 126.607 94.381 126.648 94.569C126.79 95.3416 126.81 96.4067 126.81 99.0796V103.152C126.81 104.53 126.769 105.031 126.567 105.344C126.344 105.699 125.939 105.804 125.798 105.825C125.676 105.846 125.534 105.867 125.534 106.034C125.534 106.159 125.615 106.18 125.656 106.18C125.858 106.18 126.223 105.992 127.437 105.992C127.964 105.992 128.267 106.034 128.713 106.096C129.098 106.159 129.219 106.201 129.381 106.201C129.462 106.201 129.523 106.18 129.523 106.054C129.523 105.929 129.462 105.908 129.401 105.887L129.179 105.825C128.774 105.72 128.45 105.658 128.267 105.282C128.227 105.177 128.207 105.052 128.187 104.948C128.106 104.572 128.106 103.423 128.106 102.17V99.8523C128.348 99.8941 129.017 99.9985 129.907 99.9985H130.191C130.839 101.168 132.013 103.026 133.045 104.217C134.847 106.305 136.284 106.577 137.054 106.577H137.54C137.58 106.577 137.702 106.577 137.702 106.451C137.702 106.347 137.641 106.305 137.56 106.284C137.236 106.201 136.851 106.096 136.325 105.762C134.989 104.906 133.572 103.026 131.689 99.7688ZM128.106 99.3511C128.126 96.3231 128.126 95.5714 128.166 94.9449C128.207 94.3602 128.227 94.2557 128.227 94.2349C128.308 93.9007 128.652 93.7754 128.895 93.7128C129.138 93.6501 129.401 93.6293 129.644 93.6293C130.798 93.6293 131.567 94.026 132.094 94.6525C132.519 95.1746 132.802 95.8846 132.802 96.8452C132.802 97.7432 132.539 98.4114 131.932 98.8917C131.203 99.4764 130.251 99.5599 129.563 99.5599C129.158 99.5599 128.774 99.5182 128.106 99.3511Z" fill="#331F07"/>
<path d="M141.181 93.4204C140.817 93.4413 140.331 93.4622 139.784 93.4622C138.954 93.4622 138.023 93.3996 137.78 93.3996C137.679 93.3996 137.638 93.3996 137.638 93.504C137.638 93.6293 137.78 93.6084 138.165 93.671C138.61 93.7546 139.177 93.9216 139.481 94.3184C139.744 94.6734 139.865 95.3208 139.865 96.5737C139.865 98.4114 139.784 100.312 139.663 102.045C139.481 104.655 139.359 104.969 139.076 105.282C138.833 105.532 138.549 105.72 137.942 105.825C137.861 105.846 137.578 105.867 137.578 106.034C137.578 106.117 137.618 106.159 137.679 106.159C137.76 106.159 138.185 106.096 138.428 106.075C138.914 106.034 139.339 106.013 140.007 106.013C140.331 106.013 140.655 106.034 140.979 106.054C141.201 106.075 141.424 106.096 141.647 106.096H141.849C141.93 106.096 141.971 106.054 141.971 105.992C141.971 105.867 141.789 105.825 141.748 105.825L140.999 105.658C140.756 105.595 140.493 105.491 140.331 105.136C140.189 104.822 140.169 104.426 140.169 103.632V103.256C140.169 101.92 140.209 99.6017 140.513 95.5087L140.594 95.4878C141.708 97.6387 143.064 100.353 144.603 103.59C144.825 104.05 145.21 104.864 145.392 105.553C145.514 106.013 145.574 106.034 145.595 106.034C145.716 106.034 146.06 105.073 146.384 104.3L147.356 102.087C148.388 99.8523 149.421 97.7223 150.696 95.4252L150.777 95.4461C150.818 97.5552 150.858 101.231 150.858 102.63C150.858 103.736 150.838 104.363 150.656 104.822C150.514 105.157 150.251 105.512 149.745 105.699C149.421 105.825 149.401 105.762 149.056 105.846C148.955 105.867 148.915 105.887 148.915 105.992C148.915 106.159 148.996 106.159 149.097 106.159C149.401 106.159 149.765 106.096 150.21 106.054C150.838 106.013 151.81 105.992 152.255 105.992C153.024 105.992 153.247 106.054 153.693 106.054C153.733 106.054 153.855 106.054 153.855 105.929C153.855 105.804 153.713 105.762 153.652 105.762L153.227 105.72C152.984 105.699 152.741 105.616 152.559 105.386C152.417 105.198 152.356 104.969 152.316 104.718C152.073 103.402 152.032 101.627 152.032 96.8034C152.032 94.9031 152.113 94.0469 152.559 93.8799C152.721 93.8172 153.045 93.7963 153.227 93.7963C153.774 93.7754 153.814 93.6293 153.814 93.5457C153.814 93.4831 153.794 93.4413 153.591 93.4413C153.429 93.4413 152.741 93.504 152.356 93.504C151.81 93.504 151.405 93.4831 151.081 93.4622L150.19 95.279C148.814 98.0773 147.599 100.667 146.263 103.11C146.182 103.277 146.101 103.381 146.04 103.381C145.939 103.381 145.878 103.173 145.817 103.047L144.42 100.333C143.064 97.7014 142.112 96.0308 141.181 93.4204Z" fill="#331F07"/>
<path d="M162.476 104.739C162.536 104.906 162.577 105.094 162.577 105.261C162.577 105.386 162.516 105.637 162.192 105.783C161.99 105.867 161.646 105.887 161.646 106.054C161.646 106.138 161.727 106.159 161.828 106.159H161.97C162.253 106.159 162.496 106.117 162.719 106.075C163.083 106.034 163.346 106.013 163.792 106.013C164.541 106.013 164.925 106.075 165.168 106.075C165.249 106.075 165.269 106.054 165.269 105.95C165.269 105.887 165.249 105.887 165.209 105.867C165.128 105.825 164.905 105.783 164.804 105.741C164.601 105.658 164.419 105.532 164.277 105.365C164.035 105.094 163.812 104.634 163.488 103.82C162.213 100.667 161.423 98.7664 160.816 97.1376C160.492 96.2396 159.763 94.2975 159.641 93.7754C159.601 93.5875 159.54 93.316 159.419 93.316C159.378 93.316 159.338 93.3369 159.317 93.3578C159.277 93.3996 159.196 93.5457 158.69 95.0075C158.062 96.7826 157.131 99.372 156.503 100.959C155.835 102.692 155.451 103.736 155.005 104.614C154.783 105.052 154.519 105.47 154.256 105.658C154.135 105.741 154.013 105.804 153.892 105.846C153.791 105.887 153.649 105.929 153.649 106.034C153.649 106.138 153.75 106.138 153.791 106.138C153.973 106.138 154.175 106.096 154.418 106.075C154.58 106.054 154.965 106.034 155.147 106.034C155.39 106.034 155.43 106.034 155.896 106.075C156.24 106.117 156.584 106.18 156.908 106.18C157.131 106.18 157.151 106.096 157.151 106.054C157.151 105.908 156.848 105.867 156.686 105.825C156.443 105.762 156.281 105.72 156.058 105.616C155.835 105.512 155.673 105.303 155.673 104.948C155.673 104.802 155.734 104.509 155.795 104.342L156.665 101.878L156.726 101.732C156.807 101.586 156.989 101.586 157.111 101.586H160.978C161.281 101.586 161.322 101.648 161.382 101.815L162.476 104.739ZM159.135 96.1561L160.978 100.771C160.998 100.834 161.038 100.917 161.038 101.001C161.038 101.043 161.018 101.126 160.937 101.126H157.151C157.07 101.126 157.03 101.126 157.03 101.001C157.03 100.896 157.172 100.521 157.212 100.437L158.832 96.0934C158.872 95.9681 158.953 95.9472 158.994 95.9472C159.075 95.9472 159.095 96.0725 159.135 96.1561Z" fill="#331F07"/>
<path d="M175.44 93.2743C175.298 93.3787 175.197 93.3996 175.035 93.4204C174.65 93.4622 174.225 93.4622 173.82 93.4622C173.334 93.4622 172.241 93.4413 171.451 93.4413C171.046 93.4413 170.095 93.4204 169.427 93.4204C167.848 93.4204 167.544 93.4831 165.742 93.4831C165.135 93.4831 164.71 93.4622 164.325 93.1907C164.224 93.1281 164.204 93.0654 164.143 93.0654C164.001 93.0654 164.001 93.4204 163.94 93.6293C163.839 94.026 163.677 94.3602 163.556 94.6943C163.414 95.0493 163.293 95.1746 163.293 95.3208C163.293 95.4669 163.455 95.4669 163.495 95.4669C163.576 95.4669 163.596 95.4043 163.617 95.3416C163.698 95.0911 163.758 94.924 163.839 94.7987C163.94 94.6316 164.062 94.5063 164.285 94.4019C164.993 94.0469 166.208 94.026 166.653 94.026C167.463 94.026 168.131 94.0469 168.698 94.0887C168.759 94.9449 168.799 95.8011 168.799 96.699V98.662C168.799 104.551 168.738 105.198 168.556 105.428C168.496 105.512 168.415 105.553 168.313 105.595C168.05 105.699 167.767 105.72 167.2 105.804C167.058 105.825 166.896 105.846 166.896 106.034C166.896 106.18 166.977 106.18 167.038 106.18C167.18 106.18 167.686 106.096 167.989 106.054C168.496 105.992 169.245 105.929 169.913 105.929C170.682 105.929 171.735 106.054 171.876 106.054C172.018 106.054 172.059 106.054 172.059 105.846C172.059 105.679 171.937 105.679 171.836 105.679C171.411 105.679 170.662 105.658 170.399 105.261C170.318 105.136 170.277 104.927 170.237 104.488C170.176 103.883 170.176 103.256 170.156 102.63C170.135 101.335 170.135 100.061 170.135 98.7873C170.135 97.1584 170.135 96.2396 170.237 94.0469C170.601 94.026 171.087 94.0052 171.573 94.0052C172.443 94.0052 173.375 94.0678 173.921 94.1931C174.61 94.3602 174.792 94.6734 174.792 94.9658C174.792 95.0911 174.731 95.2999 174.731 95.4461C174.731 95.5296 174.771 95.5714 174.893 95.5714C174.994 95.5714 175.035 95.5505 175.055 95.4043L175.176 94.7778C175.257 94.381 175.359 93.9843 175.581 93.4413L175.44 93.2743Z" fill="#331F07"/>
<path d="M175.735 99.6852C175.735 101.293 176.281 103.131 177.82 104.593C179.035 105.741 180.573 106.284 182.112 106.284C184.258 106.284 185.675 105.303 186.444 104.614C188.246 102.964 188.57 100.917 188.57 99.6644C188.57 97.6805 187.74 95.7802 186.282 94.5899C185.169 93.671 183.732 93.1907 182.254 93.1907C180.472 93.1907 178.751 93.9425 177.577 95.1537C176.565 96.177 175.735 97.7223 175.735 99.6852ZM181.727 93.859C183.347 93.859 184.562 94.569 185.533 95.6758C186.789 97.0958 187.274 98.8708 187.274 100.437C187.274 102.337 186.566 103.695 185.736 104.467C185.048 105.115 184.015 105.574 182.78 105.574C182.132 105.574 180.007 105.428 178.407 103.194C177.84 102.379 177.031 100.938 177.031 98.9752C177.031 97.6805 177.294 96.3858 178.306 95.2999C178.994 94.5481 180.128 93.859 181.727 93.859Z" fill="#331F07"/>
<path d="M199.178 106.159C199.543 104.948 199.543 104.969 199.705 104.467C199.826 104.029 199.867 103.862 199.867 103.632C199.867 103.528 199.867 103.444 199.725 103.444C199.624 103.444 199.563 103.507 199.523 103.59C199.361 103.904 199.401 104.238 199.138 104.551C199.016 104.697 198.834 104.802 198.652 104.885C198.47 104.969 198.267 105.031 198.085 105.094C197.275 105.344 196.182 105.512 194.846 105.512C193.895 105.512 193.247 105.512 193.024 105.115C192.903 104.885 192.862 103.444 192.862 102.713C192.842 101.753 192.842 100.813 192.842 99.8523V96.9496C192.842 95.4878 192.862 94.8613 192.984 94.3393C193.024 94.1722 193.064 94.026 193.226 93.9216C193.449 93.7546 193.895 93.7128 194.158 93.6919C194.239 93.6919 194.38 93.671 194.38 93.504C194.38 93.3996 194.299 93.3996 194.218 93.3996C193.854 93.3996 193.652 93.4413 193.287 93.4831C192.984 93.504 192.295 93.5457 191.951 93.5457C191.728 93.5457 191.526 93.5248 190.858 93.504C190.493 93.4831 190.453 93.4622 190.372 93.4622C190.291 93.4622 190.19 93.4831 190.19 93.6084C190.19 93.7546 190.311 93.7337 190.493 93.7546C190.817 93.7963 191.101 93.8381 191.263 94.1096C191.364 94.2766 191.384 94.5481 191.465 95.5714C191.546 96.5737 191.546 99.9776 191.546 100.876V103.716C191.546 104.739 191.526 105.052 191.404 105.261C191.323 105.407 191.161 105.574 191.02 105.637C190.716 105.762 190.574 105.783 190.534 105.783C190.453 105.783 190.271 105.804 190.271 105.971C190.271 106.096 190.392 106.096 190.453 106.096C190.493 106.096 190.919 106.054 192.032 106.054C193.631 106.054 193.712 105.992 196.081 105.992C198.024 105.992 198.51 106.013 199.178 106.159Z" fill="#331F07"/>
<path d="M199.905 99.6852C199.905 101.293 200.452 103.131 201.991 104.593C203.205 105.741 204.744 106.284 206.283 106.284C208.428 106.284 209.846 105.303 210.615 104.614C212.417 102.964 212.741 100.917 212.741 99.6644C212.741 97.6805 211.911 95.7802 210.453 94.5899C209.339 93.671 207.902 93.1907 206.424 93.1907C204.643 93.1907 202.922 93.9425 201.748 95.1537C200.735 96.177 199.905 97.7223 199.905 99.6852ZM205.898 93.859C207.517 93.859 208.732 94.569 209.704 95.6758C210.959 97.0958 211.445 98.8708 211.445 100.437C211.445 102.337 210.736 103.695 209.906 104.467C209.218 105.115 208.186 105.574 206.951 105.574C206.303 105.574 204.177 105.428 202.578 103.194C202.011 102.379 201.201 100.938 201.201 98.9752C201.201 97.6805 201.464 96.3858 202.476 95.2999C203.165 94.5481 204.299 93.859 205.898 93.859Z" fill="#331F07"/>
<path d="M214.482 99.915C214.482 101.836 215.19 103.194 216.122 104.154C217.518 105.637 219.462 106.18 221.284 106.18C222.013 106.18 222.742 106.096 223.47 105.971C224.28 105.846 225.171 105.637 225.799 105.553C226.042 105.512 226.082 105.47 226.082 105.365C226.082 105.136 225.92 105.261 225.799 105.094C225.677 104.927 225.657 104.008 225.657 103.611V101.815C225.657 100.688 225.819 100.458 225.88 100.395C226.001 100.291 226.183 100.249 226.325 100.207L226.426 100.145C226.446 100.124 226.446 100.082 226.446 100.04C226.446 99.8941 226.406 99.8941 226.264 99.8941C225.758 99.8941 224.867 99.9776 224.442 99.9776C224.037 99.9776 223.653 99.9567 223.167 99.9358C222.904 99.915 222.701 99.8941 222.418 99.8941C222.316 99.8941 222.195 99.8941 222.195 100.04C222.195 100.228 222.397 100.207 222.62 100.228C223.025 100.249 223.329 100.27 223.632 100.312C223.754 100.333 223.875 100.353 223.977 100.416C224.058 100.479 224.139 100.562 224.179 100.646C224.26 100.792 224.341 101.043 224.341 101.857V103.402C224.341 104.447 224.26 104.697 224.199 104.822C223.875 105.449 222.013 105.679 221.446 105.679C219.604 105.679 218.369 104.948 217.559 104.071C216.405 102.839 215.899 101.168 215.899 99.5808C215.899 97.4926 216.668 96.0099 217.62 95.0702C218.612 94.1096 219.786 93.7128 221.102 93.7128C222.256 93.7128 223.187 94.0469 223.835 94.5272C224.462 94.9866 224.847 95.6549 224.948 95.8637C225.009 96.0099 225.131 96.4067 225.252 96.4067C225.292 96.4067 225.394 96.3858 225.394 96.2605C225.394 96.1143 225.353 95.9681 225.292 95.6549C225.252 95.3834 225.11 94.7778 225.11 93.8799V93.504C225.11 93.4413 225.11 93.3996 225.09 93.3787C225.07 93.3578 225.029 93.3369 224.989 93.3369C224.888 93.3369 224.827 93.4831 224.665 93.671C224.604 93.7546 224.503 93.8381 224.381 93.8381C224.3 93.8381 224.199 93.7963 223.977 93.7337C223.248 93.5248 222.418 93.2951 221.243 93.2951C219.361 93.2951 217.64 94.0052 216.466 95.0911C215.291 96.177 214.482 97.8267 214.482 99.915Z" fill="#331F07"/>
<path d="M232.499 93.3578C231.892 93.3578 231.507 93.4413 231.122 93.4622C230.738 93.504 230.191 93.5248 229.847 93.5248C229.26 93.5248 228.43 93.4622 227.944 93.4622C227.843 93.4622 227.681 93.4622 227.681 93.6293C227.681 93.7963 227.944 93.7963 228.085 93.7963C228.328 93.7963 228.814 93.9007 228.976 94.0052C229.219 94.1513 229.32 94.4855 229.361 94.6525C229.482 95.1119 229.523 95.5714 229.543 96.0517C229.604 97.0331 229.604 97.9937 229.604 98.9752V100.521C229.604 103.966 229.503 104.614 229.381 104.948C229.32 105.115 229.239 105.282 229.098 105.407C228.895 105.595 228.551 105.679 228.308 105.72C228.025 105.762 227.802 105.72 227.681 105.783C227.62 105.804 227.579 105.887 227.579 105.95C227.579 106.096 227.64 106.096 227.782 106.096C228.349 106.096 229.098 106.013 229.746 106.013C230.414 106.013 230.636 106.117 232.357 106.117C232.438 106.117 232.519 106.117 232.58 106.054C232.6 106.034 232.62 105.992 232.62 105.95C232.62 105.825 232.519 105.804 232.458 105.804C232.175 105.762 231.932 105.783 231.649 105.72C231.385 105.658 231.244 105.574 231.102 105.282C230.96 104.948 230.9 104.509 230.9 103.256V101.314C230.9 95.4252 231.001 94.381 231.365 94.026C231.527 93.8799 231.831 93.7963 232.215 93.6919C232.398 93.6501 232.661 93.6293 232.661 93.4831C232.661 93.3578 232.56 93.3578 232.499 93.3578Z" fill="#331F07"/>
<path d="M234.775 105.971C234.795 105.908 234.836 105.846 234.998 105.846C235.18 105.846 235.868 106.013 236.273 106.096C236.84 106.201 237.711 106.284 238.156 106.284C239.209 106.284 240.14 106.034 240.909 105.449C241.638 104.885 242.124 104.071 242.124 102.922C242.124 102.129 241.901 101.439 241.395 100.813C240.889 100.186 240.282 99.7897 239.614 99.4764L238.52 98.9961C237.852 98.7038 236.799 98.2861 236.253 97.6805C235.868 97.242 235.686 96.7408 235.686 96.1143C235.686 95.0911 236.111 94.4437 236.536 94.1096C236.921 93.7963 237.447 93.5457 238.237 93.5457C239.269 93.5457 240.444 93.9007 241.051 94.924C241.496 95.6549 241.415 96.1352 241.577 96.1352H241.618C241.679 96.1352 241.739 96.1143 241.739 96.0099C241.739 95.7802 241.598 95.6967 241.598 94.6734C241.598 94.3602 241.638 93.9843 241.699 93.6919C241.739 93.5248 241.76 93.4831 241.76 93.4204C241.76 93.316 241.679 93.2743 241.638 93.2743C241.557 93.2743 241.496 93.3578 241.355 93.4204C241.213 93.4831 241.051 93.5457 240.828 93.5457C240.504 93.5457 240.16 93.4204 239.775 93.3369C239.391 93.2534 238.864 93.1907 238.46 93.1907C237.366 93.1907 236.293 93.5457 235.544 94.2766C234.998 94.8196 234.552 95.634 234.552 96.699C234.552 97.764 234.977 98.4532 235.605 98.9961C235.807 99.1841 236.314 99.5599 237.427 100.061L238.034 100.333C238.986 100.771 239.593 101.022 240.059 101.398C240.747 101.941 240.95 102.567 240.95 103.381C240.95 104.279 240.606 104.822 240.322 105.115C240.079 105.365 239.512 105.804 238.379 105.804C237.427 105.804 236.172 105.512 235.342 104.906C234.896 104.572 234.714 104.279 234.573 103.883C234.492 103.632 234.37 103.214 234.33 103.006C234.309 102.901 234.289 102.797 234.168 102.797C234.087 102.797 233.985 102.839 233.985 102.964C233.985 103.089 234.066 103.235 234.208 103.883C234.33 104.467 234.451 105.031 234.451 106.159H234.694C234.714 106.096 234.735 106.034 234.775 105.971Z" fill="#331F07"/>
<path d="M254.876 93.2743C254.735 93.3787 254.633 93.3996 254.471 93.4204C254.087 93.4622 253.662 93.4622 253.257 93.4622C252.771 93.4622 251.678 93.4413 250.888 93.4413C250.483 93.4413 249.532 93.4204 248.864 93.4204C247.284 93.4204 246.981 93.4831 245.179 93.4831C244.572 93.4831 244.146 93.4622 243.762 93.1907C243.661 93.1281 243.64 93.0654 243.58 93.0654C243.438 93.0654 243.438 93.4204 243.377 93.6293C243.276 94.026 243.114 94.3602 242.993 94.6943C242.851 95.0493 242.729 95.1746 242.729 95.3208C242.729 95.4669 242.891 95.4669 242.932 95.4669C243.013 95.4669 243.033 95.4043 243.053 95.3416C243.134 95.0911 243.195 94.924 243.276 94.7987C243.377 94.6316 243.499 94.5063 243.721 94.4019C244.43 94.0469 245.645 94.026 246.09 94.026C246.9 94.026 247.568 94.0469 248.135 94.0887C248.195 94.9449 248.236 95.8011 248.236 96.699V98.662C248.236 104.551 248.175 105.198 247.993 105.428C247.932 105.512 247.851 105.553 247.75 105.595C247.487 105.699 247.203 105.72 246.637 105.804C246.495 105.825 246.333 105.846 246.333 106.034C246.333 106.18 246.414 106.18 246.475 106.18C246.616 106.18 247.122 106.096 247.426 106.054C247.932 105.992 248.681 105.929 249.349 105.929C250.119 105.929 251.171 106.054 251.313 106.054C251.455 106.054 251.495 106.054 251.495 105.846C251.495 105.679 251.374 105.679 251.273 105.679C250.848 105.679 250.099 105.658 249.835 105.261C249.754 105.136 249.714 104.927 249.673 104.488C249.613 103.883 249.613 103.256 249.592 102.63C249.572 101.335 249.572 100.061 249.572 98.7873C249.572 97.1584 249.572 96.2396 249.673 94.0469C250.038 94.026 250.524 94.0052 251.01 94.0052C251.88 94.0052 252.811 94.0678 253.358 94.1931C254.046 94.3602 254.228 94.6734 254.228 94.9658C254.228 95.0911 254.168 95.2999 254.168 95.4461C254.168 95.5296 254.208 95.5714 254.33 95.5714C254.431 95.5714 254.471 95.5505 254.492 95.4043L254.613 94.7778C254.694 94.381 254.795 93.9843 255.018 93.4413L254.876 93.2743Z" fill="#331F07"/>
<path d="M48.9578 113.268C48.414 113.268 48.1783 113.192 47.8882 113.192C47.6707 113.192 47.4531 113.192 47.4531 113.344C47.4531 113.42 47.5256 113.439 47.5619 113.477C47.6525 113.515 47.7794 113.515 47.8701 113.534C47.997 113.553 48.1783 113.629 48.2689 113.704C48.3596 113.78 48.414 113.875 48.4502 113.989C48.6496 114.502 48.6678 115.47 48.6678 118.071V122.285C48.6678 123.481 48.6678 124.032 48.0695 124.241C47.8882 124.298 47.7613 124.317 47.6344 124.336C47.5619 124.355 47.5075 124.374 47.5075 124.469C47.5075 124.62 47.6707 124.62 47.7432 124.62C47.8701 124.62 48.0151 124.601 48.142 124.582C48.5771 124.507 49.0122 124.488 49.4473 124.488C49.9549 124.488 50.39 124.526 51.3509 124.563C51.8041 124.582 52.0398 124.601 52.2936 124.601C53.9614 124.601 55.5931 124.089 56.6808 123.178C57.968 122.115 58.7112 120.444 58.7112 118.754C58.7112 116.837 57.7142 115.147 56.2457 114.065C55.0673 113.23 53.9252 112.983 52.4386 112.983C51.8403 112.983 51.3327 113.021 50.8795 113.078C50.1181 113.154 49.5198 113.268 48.9578 113.268ZM52.0035 113.363C53.1456 113.363 54.7047 113.553 55.9194 114.844C56.3545 115.318 56.6989 115.888 56.9346 116.495C57.2065 117.236 57.3334 118.033 57.3334 118.83C57.3334 120.615 56.7714 121.944 56.01 122.779C55.3755 123.481 54.2696 124.222 52.5293 124.222C52.1485 124.222 51.6228 124.165 51.1696 124.089C50.7163 124.013 50.1362 123.823 49.9912 123.538C49.8643 123.292 49.828 122.38 49.828 119.248C49.828 115.242 49.8643 114.065 50.0093 113.818C50.1543 113.572 50.8433 113.363 52.0035 113.363Z" fill="#331F07"/>
<path d="M60.2434 118.735C60.2434 120.197 60.7329 121.868 62.1107 123.197C63.1985 124.241 64.5763 124.734 65.9541 124.734C67.8758 124.734 69.1448 123.842 69.8337 123.216C71.4472 121.716 71.7372 119.855 71.7372 118.716C71.7372 116.913 70.9939 115.185 69.6887 114.103C68.6916 113.268 67.4044 112.831 66.081 112.831C64.4856 112.831 62.9447 113.515 61.8932 114.616C60.9867 115.546 60.2434 116.951 60.2434 118.735ZM65.6096 113.439C67.0599 113.439 68.1477 114.084 69.0179 115.09C70.1419 116.381 70.577 117.995 70.577 119.419C70.577 121.146 69.9425 122.38 69.1992 123.083C68.5828 123.671 67.6582 124.089 66.5523 124.089C65.9722 124.089 64.0687 123.956 62.6365 121.925C62.1289 121.184 61.4037 119.874 61.4037 118.09C61.4037 116.913 61.6394 115.736 62.5458 114.749C63.1622 114.065 64.1774 113.439 65.6096 113.439Z" fill="#331F07"/>
<path d="M82.5059 123.975C82.5603 123.652 82.669 123.045 82.7597 122.741C82.9591 122.001 82.9954 121.963 82.9954 121.906C82.9954 121.83 82.941 121.811 82.8685 121.811C82.7053 121.811 82.6872 121.944 82.6509 122.039C82.5059 122.532 81.9801 123.235 81.6719 123.5C81.0193 124.051 80.1854 124.222 79.3877 124.222C77.6836 124.222 76.5414 123.348 75.8344 122.38C75.073 121.355 74.6923 119.969 74.6923 118.583C74.6923 117.938 74.7648 117.292 74.9461 116.666C75.1274 116.04 75.3993 115.432 75.7981 114.919C76.7771 113.629 78.1005 113.325 79.0251 113.325C79.9678 113.325 81.1462 113.723 81.7263 114.103C82.3246 114.483 82.3246 114.806 82.3246 115.09V115.451C82.3246 115.527 82.3246 115.641 82.4515 115.641C82.6146 115.641 82.6146 115.394 82.6328 115.185C82.669 114.863 82.7053 114.464 82.8322 113.894C82.9047 113.572 82.941 113.515 82.941 113.458C82.941 113.401 82.9047 113.344 82.8322 113.344C82.7959 113.344 82.524 113.42 82.3971 113.42C82.1977 113.42 81.962 113.344 81.6719 113.268C80.9105 113.04 80.131 112.907 79.3514 112.907C77.6473 112.907 76.197 113.496 75.1636 114.407C73.6589 115.755 73.3145 117.52 73.3145 118.754C73.3145 120.387 73.9127 121.792 74.7829 122.76C75.7619 123.842 77.3391 124.639 79.297 124.639C80.0041 124.639 80.5117 124.526 81.0374 124.393L82.5059 123.975Z" fill="#331F07"/>
<path d="M94.5169 112.907C94.39 113.002 94.2994 113.021 94.1543 113.04C93.8099 113.078 93.4292 113.078 93.0666 113.078C92.6315 113.078 91.6525 113.059 90.9455 113.059C90.5829 113.059 89.7309 113.04 89.1326 113.04C87.7185 113.04 87.4466 113.097 85.8331 113.097C85.2892 113.097 84.9085 113.078 84.5641 112.831C84.4734 112.774 84.4553 112.717 84.4009 112.717C84.274 112.717 84.274 113.04 84.2196 113.23C84.129 113.591 83.984 113.894 83.8752 114.198C83.7483 114.521 83.6395 114.635 83.6395 114.768C83.6395 114.9 83.7845 114.9 83.8208 114.9C83.8933 114.9 83.9114 114.844 83.9296 114.787C84.0021 114.559 84.0565 114.407 84.129 114.293C84.2196 114.141 84.3284 114.027 84.5278 113.932C85.1623 113.61 86.2501 113.591 86.6489 113.591C87.3741 113.591 87.9723 113.61 88.4799 113.648C88.5343 114.426 88.5706 115.204 88.5706 116.021V117.805C88.5706 123.159 88.5162 123.747 88.353 123.956C88.2987 124.032 88.2261 124.07 88.1355 124.108C87.8998 124.203 87.646 124.222 87.1384 124.298C87.0115 124.317 86.8665 124.336 86.8665 124.507C86.8665 124.639 86.939 124.639 86.9934 124.639C87.1203 124.639 87.5735 124.563 87.8454 124.526C88.2987 124.469 88.9694 124.412 89.5677 124.412C90.2566 124.412 91.1993 124.526 91.3262 124.526C91.4531 124.526 91.4894 124.526 91.4894 124.336C91.4894 124.184 91.3806 124.184 91.2899 124.184C90.9092 124.184 90.2385 124.165 90.0028 123.804C89.9303 123.69 89.894 123.5 89.8578 123.102C89.8034 122.551 89.8034 121.982 89.7852 121.412C89.7671 120.235 89.7671 119.077 89.7671 117.919C89.7671 116.438 89.7671 115.603 89.8578 113.61C90.1841 113.591 90.6192 113.572 91.0543 113.572C91.8338 113.572 92.6678 113.629 93.1572 113.742C93.7736 113.894 93.9368 114.179 93.9368 114.445C93.9368 114.559 93.8824 114.749 93.8824 114.881C93.8824 114.957 93.9187 114.995 94.0274 114.995C94.1181 114.995 94.1543 114.976 94.1725 114.844L94.2812 114.274C94.3538 113.913 94.4444 113.553 94.6438 113.059L94.5169 112.907Z" fill="#331F07"/>
<path d="M94.7813 118.735C94.7813 120.197 95.2708 121.868 96.6486 123.197C97.7364 124.241 99.1142 124.734 100.492 124.734C102.414 124.734 103.683 123.842 104.372 123.216C105.985 121.716 106.275 119.855 106.275 118.716C106.275 116.913 105.532 115.185 104.227 114.103C103.229 113.268 101.942 112.831 100.619 112.831C99.0235 112.831 97.4826 113.515 96.4311 114.616C95.5246 115.546 94.7813 116.951 94.7813 118.735ZM100.148 113.439C101.598 113.439 102.686 114.084 103.556 115.09C104.68 116.381 105.115 117.995 105.115 119.419C105.115 121.146 104.48 122.38 103.737 123.083C103.121 123.671 102.196 124.089 101.09 124.089C100.51 124.089 98.6066 123.956 97.1744 121.925C96.6668 121.184 95.9416 119.874 95.9416 118.09C95.9416 116.913 96.1773 115.736 97.0837 114.749C97.7001 114.065 98.7153 113.439 100.148 113.439Z" fill="#331F07"/>
<path d="M113.309 118.811C113.871 118.64 114.469 118.318 114.868 117.881C115.376 117.311 115.575 116.647 115.575 115.983C115.575 115.204 115.285 114.388 114.614 113.799C113.835 113.097 112.693 112.869 111.877 112.869C111.514 112.869 110.934 112.926 110.608 112.964C110.046 113.021 109.502 113.116 109.031 113.116C108.922 113.116 108.723 113.116 108.251 113.078C107.979 113.059 107.925 113.04 107.816 113.04C107.671 113.04 107.653 113.135 107.653 113.211C107.653 113.325 107.725 113.344 107.816 113.363C108.052 113.401 108.36 113.382 108.559 113.553C108.704 113.666 108.759 113.913 108.795 114.084C108.922 114.787 108.94 115.755 108.94 118.185V121.887C108.94 123.14 108.904 123.595 108.723 123.88C108.523 124.203 108.161 124.298 108.034 124.317C107.925 124.336 107.798 124.355 107.798 124.507C107.798 124.62 107.87 124.639 107.907 124.639C108.088 124.639 108.414 124.469 109.502 124.469C109.973 124.469 110.245 124.507 110.644 124.563C110.989 124.62 111.097 124.658 111.242 124.658C111.315 124.658 111.369 124.639 111.369 124.526C111.369 124.412 111.315 124.393 111.261 124.374L111.061 124.317C110.699 124.222 110.409 124.165 110.245 123.823C110.209 123.728 110.191 123.614 110.173 123.519C110.1 123.178 110.1 122.133 110.1 120.994V118.887C110.318 118.925 110.916 119.02 111.714 119.02H111.968C112.548 120.083 113.599 121.773 114.524 122.855C116.137 124.753 117.424 125 118.113 125H118.548C118.585 125 118.694 125 118.694 124.886C118.694 124.791 118.639 124.753 118.567 124.734C118.277 124.658 117.932 124.563 117.461 124.26C116.264 123.481 114.995 121.773 113.309 118.811ZM110.1 118.432C110.118 115.679 110.118 114.995 110.155 114.426C110.191 113.894 110.209 113.799 110.209 113.78C110.282 113.477 110.59 113.363 110.807 113.306C111.025 113.249 111.261 113.23 111.478 113.23C112.512 113.23 113.2 113.591 113.672 114.16C114.052 114.635 114.306 115.28 114.306 116.153C114.306 116.97 114.071 117.577 113.527 118.014C112.874 118.545 112.022 118.621 111.406 118.621C111.043 118.621 110.699 118.583 110.1 118.432Z" fill="#331F07"/>
<path d="M126.789 124.706C126.807 124.647 126.844 124.589 126.992 124.589C127.159 124.589 127.789 124.745 128.159 124.824C128.678 124.922 129.474 125 129.881 125C130.844 125 131.696 124.765 132.4 124.217C133.067 123.688 133.511 122.924 133.511 121.846C133.511 121.102 133.307 120.455 132.844 119.868C132.381 119.28 131.826 118.908 131.215 118.614L130.215 118.163C129.604 117.889 128.641 117.497 128.141 116.929C127.789 116.518 127.622 116.048 127.622 115.46C127.622 114.5 128.011 113.893 128.4 113.579C128.752 113.285 129.233 113.05 129.955 113.05C130.9 113.05 131.974 113.383 132.53 114.343C132.937 115.029 132.863 115.479 133.011 115.479H133.048C133.104 115.479 133.159 115.46 133.159 115.362C133.159 115.146 133.03 115.068 133.03 114.108C133.03 113.814 133.067 113.462 133.122 113.187C133.159 113.031 133.178 112.992 133.178 112.933C133.178 112.835 133.104 112.796 133.067 112.796C132.993 112.796 132.937 112.874 132.807 112.933C132.678 112.992 132.53 113.05 132.326 113.05C132.03 113.05 131.715 112.933 131.363 112.854C131.011 112.776 130.53 112.717 130.159 112.717C129.159 112.717 128.178 113.05 127.492 113.736C126.992 114.245 126.585 115.009 126.585 116.008C126.585 117.007 126.974 117.654 127.548 118.163C127.733 118.34 128.196 118.692 129.215 119.162L129.77 119.417C130.641 119.828 131.196 120.063 131.622 120.416C132.252 120.925 132.437 121.513 132.437 122.277C132.437 123.119 132.122 123.629 131.863 123.903C131.641 124.138 131.122 124.55 130.085 124.55C129.215 124.55 128.066 124.275 127.307 123.707C126.9 123.394 126.733 123.119 126.603 122.747C126.529 122.512 126.418 122.12 126.381 121.925C126.363 121.827 126.344 121.729 126.233 121.729C126.159 121.729 126.066 121.768 126.066 121.885C126.066 122.003 126.14 122.14 126.27 122.747C126.381 123.296 126.492 123.825 126.492 124.883H126.715C126.733 124.824 126.752 124.765 126.789 124.706Z" fill="#331F07"/>
<path d="M142.112 123.55C142.168 123.707 142.205 123.883 142.205 124.04C142.205 124.158 142.149 124.393 141.853 124.53C141.668 124.608 141.353 124.628 141.353 124.785C141.353 124.863 141.427 124.883 141.52 124.883H141.649C141.908 124.883 142.131 124.843 142.334 124.804C142.668 124.765 142.909 124.745 143.316 124.745C144.001 124.745 144.353 124.804 144.575 124.804C144.649 124.804 144.668 124.785 144.668 124.687C144.668 124.628 144.649 124.628 144.612 124.608C144.538 124.569 144.335 124.53 144.242 124.491C144.057 124.412 143.89 124.295 143.76 124.138C143.538 123.883 143.334 123.453 143.038 122.689C141.871 119.73 141.149 117.948 140.594 116.42C140.297 115.577 139.631 113.756 139.52 113.266C139.482 113.089 139.427 112.835 139.316 112.835C139.279 112.835 139.242 112.854 139.223 112.874C139.186 112.913 139.112 113.05 138.649 114.422C138.075 116.087 137.223 118.516 136.649 120.005C136.038 121.631 135.686 122.61 135.279 123.433C135.075 123.844 134.834 124.236 134.593 124.412C134.482 124.491 134.371 124.55 134.26 124.589C134.167 124.628 134.038 124.667 134.038 124.765C134.038 124.863 134.13 124.863 134.167 124.863C134.334 124.863 134.519 124.824 134.742 124.804C134.89 124.785 135.242 124.765 135.408 124.765C135.63 124.765 135.667 124.765 136.093 124.804C136.408 124.843 136.723 124.902 137.019 124.902C137.223 124.902 137.242 124.824 137.242 124.785C137.242 124.647 136.964 124.608 136.816 124.569C136.593 124.51 136.445 124.471 136.242 124.373C136.038 124.275 135.89 124.079 135.89 123.746C135.89 123.609 135.945 123.335 136.001 123.178L136.797 120.867L136.853 120.73C136.927 120.592 137.093 120.592 137.205 120.592H140.742C141.02 120.592 141.057 120.651 141.112 120.808L142.112 123.55ZM139.057 115.499L140.742 119.828C140.76 119.887 140.797 119.966 140.797 120.044C140.797 120.083 140.779 120.161 140.705 120.161H137.242C137.168 120.161 137.131 120.161 137.131 120.044C137.131 119.946 137.26 119.593 137.297 119.515L138.779 115.44C138.816 115.323 138.89 115.303 138.927 115.303C139.001 115.303 139.019 115.421 139.057 115.499Z" fill="#331F07"/>
<path d="M146.655 113.168C146.1 113.168 145.859 113.089 145.563 113.089C145.34 113.089 145.118 113.089 145.118 113.246C145.118 113.325 145.192 113.344 145.229 113.383C145.322 113.423 145.451 113.423 145.544 113.442C145.674 113.462 145.859 113.54 145.951 113.618C146.044 113.697 146.1 113.795 146.137 113.912C146.34 114.441 146.359 115.44 146.359 118.124V122.473C146.359 123.707 146.359 124.275 145.748 124.491C145.563 124.55 145.433 124.569 145.303 124.589C145.229 124.608 145.174 124.628 145.174 124.726C145.174 124.883 145.34 124.883 145.414 124.883C145.544 124.883 145.692 124.863 145.822 124.843C146.266 124.765 146.711 124.745 147.155 124.745C147.674 124.745 148.118 124.785 149.1 124.824C149.563 124.843 149.804 124.863 150.063 124.863C151.767 124.863 153.433 124.334 154.544 123.394C155.859 122.297 156.619 120.573 156.619 118.829C156.619 116.851 155.6 115.107 154.1 113.991C152.896 113.129 151.73 112.874 150.211 112.874C149.6 112.874 149.081 112.913 148.618 112.972C147.84 113.05 147.229 113.168 146.655 113.168ZM149.766 113.266C150.933 113.266 152.526 113.462 153.767 114.794C154.211 115.284 154.563 115.871 154.804 116.498C155.082 117.262 155.211 118.085 155.211 118.908C155.211 120.749 154.637 122.12 153.859 122.982C153.211 123.707 152.081 124.471 150.304 124.471C149.915 124.471 149.378 124.412 148.915 124.334C148.452 124.256 147.859 124.06 147.711 123.766C147.581 123.511 147.544 122.571 147.544 119.339C147.544 115.205 147.581 113.991 147.729 113.736C147.877 113.481 148.581 113.266 149.766 113.266Z" fill="#331F07"/>
<path d="M162.808 119.045C163.567 117.654 165.512 114.245 166.234 113.54C166.512 113.266 166.716 113.227 167.197 113.129C167.271 113.109 167.345 113.109 167.345 113.011C167.345 112.913 167.29 112.894 167.16 112.894C167.086 112.894 166.66 112.952 166.364 112.972C166.123 112.992 165.975 112.992 165.771 112.992C164.79 112.992 164.271 112.874 163.993 112.874C163.845 112.874 163.827 112.913 163.827 112.972C163.827 113.031 163.938 113.089 164.012 113.109C164.197 113.148 164.382 113.168 164.549 113.227C164.753 113.285 165.086 113.403 165.086 113.795C165.086 113.971 165.03 114.206 164.734 114.813C164.66 114.951 164.419 115.46 163.104 117.693L162.53 118.673L160.845 116.243C160.549 115.832 160.16 115.284 159.808 114.735C159.345 114.01 159.308 113.814 159.308 113.697C159.308 113.383 159.604 113.246 159.993 113.187C160.141 113.168 160.327 113.129 160.327 113.031C160.327 112.992 160.308 112.933 160.197 112.933C160.049 112.933 159.919 112.952 159.771 112.972C159.401 113.031 159.03 113.05 158.678 113.05C158.326 113.05 157.678 113.011 157.215 112.952C156.993 112.933 156.826 112.913 156.604 112.913C156.53 112.913 156.4 112.913 156.4 113.031C156.4 113.168 156.678 113.168 156.808 113.187C156.937 113.207 157.104 113.246 157.252 113.344C157.419 113.442 157.808 113.775 159.178 115.715C159.623 116.341 160.049 116.968 160.475 117.615L161.586 119.28C161.604 119.73 161.623 120.553 161.623 121.415V122.826C161.623 124.158 161.493 124.334 161.141 124.491C160.901 124.589 160.549 124.628 160.419 124.647C160.327 124.667 160.215 124.647 160.215 124.824C160.215 124.922 160.327 124.922 160.382 124.922C160.586 124.922 161.03 124.863 161.197 124.824C161.512 124.765 162.03 124.745 162.401 124.745C163.567 124.745 163.66 124.843 164.104 124.843C164.234 124.843 164.253 124.804 164.253 124.726C164.253 124.647 164.234 124.589 164.049 124.569C163.882 124.55 163.549 124.53 163.253 124.373C163.141 124.314 162.993 124.217 162.938 124.099C162.827 123.864 162.808 121.317 162.808 120.005V119.045Z" fill="#331F07"/>
<path d="M170.343 118.575V116.733C170.343 116.341 170.361 114.755 170.417 114.363C170.472 113.893 170.583 113.697 170.602 113.677C170.731 113.481 170.972 113.344 171.38 113.246C171.546 113.207 171.731 113.207 171.731 113.07C171.731 113.05 171.731 112.952 171.583 112.952C171.509 112.952 171.083 113.011 170.306 113.011C168.768 113.011 168.583 112.913 168.231 112.913C168.083 112.913 167.972 112.913 167.972 113.031C167.972 113.148 168.083 113.148 168.176 113.168C168.361 113.187 168.565 113.246 168.75 113.383C168.88 113.481 168.991 113.599 169.065 113.853C169.139 114.089 169.157 114.617 169.157 114.813V119.358C169.157 119.828 169.139 120.299 169.12 120.769C169.028 122.982 168.991 124.04 168.676 124.334C168.565 124.432 168.38 124.491 168.102 124.55C167.861 124.608 167.787 124.608 167.787 124.726C167.787 124.824 167.824 124.843 167.972 124.843C168.324 124.843 168.435 124.745 169.713 124.745C170.75 124.745 171.343 124.883 171.398 124.883C171.454 124.883 171.546 124.863 171.546 124.765C171.546 124.667 171.306 124.608 171.25 124.589C171.083 124.53 170.898 124.491 170.657 124.314C170.454 124.158 170.324 123.805 170.324 123.002V119.456C170.324 119.417 170.324 119.339 170.38 119.339C170.417 119.339 170.454 119.378 170.565 119.476C171.194 120.005 171.806 120.534 172.398 121.063L173.972 122.512C174.491 123.002 175.028 123.492 175.454 124.021C175.621 124.236 175.658 124.295 175.658 124.354C175.658 124.51 175.398 124.51 175.158 124.589C175.102 124.608 174.991 124.628 174.991 124.745C174.991 124.804 175.028 124.843 175.158 124.843C175.25 124.843 176.046 124.745 176.509 124.745C177.324 124.745 177.602 124.804 177.917 124.804C177.972 124.804 178.028 124.804 178.028 124.687C178.028 124.608 177.954 124.55 177.861 124.51C177.732 124.452 177.547 124.334 177.435 124.256C176.861 123.805 176.472 123.394 176.084 123.022L171.213 118.457L174.38 115.107C175.472 113.951 175.843 113.658 175.972 113.56C176.121 113.442 176.287 113.344 176.472 113.266C176.658 113.187 176.88 113.227 176.88 113.05C176.88 113.011 176.88 112.913 176.732 112.913C176.472 112.913 175.546 113.05 174.972 113.05C174.769 113.05 174.306 113.031 173.954 113.031C173.787 113.031 173.769 113.109 173.769 113.148C173.769 113.266 173.991 113.285 174.083 113.305C174.454 113.364 174.695 113.501 174.695 113.795C174.695 114.128 174.009 114.931 173.528 115.46L170.491 118.731C170.454 118.771 170.435 118.771 170.361 118.771C170.343 118.771 170.343 118.692 170.343 118.575Z" fill="#331F07"/>
<path d="M178.015 118.81C178.015 120.318 178.515 122.042 179.923 123.413C181.034 124.491 182.441 125 183.849 125C185.812 125 187.108 124.079 187.812 123.433C189.46 121.885 189.757 119.966 189.757 118.79C189.757 116.929 188.997 115.146 187.664 114.03C186.645 113.168 185.33 112.717 183.979 112.717C182.349 112.717 180.775 113.423 179.701 114.559C178.775 115.519 178.015 116.968 178.015 118.81ZM183.497 113.344C184.979 113.344 186.09 114.01 186.979 115.048C188.127 116.381 188.571 118.046 188.571 119.515C188.571 121.298 187.923 122.571 187.164 123.296C186.534 123.903 185.59 124.334 184.46 124.334C183.867 124.334 181.923 124.197 180.46 122.101C179.941 121.337 179.201 119.985 179.201 118.144C179.201 116.929 179.441 115.715 180.367 114.696C180.997 113.991 182.034 113.344 183.497 113.344Z" fill="#331F07"/>
<path d="M198.866 112.874C198.718 112.874 198.699 112.933 198.699 112.992C198.699 113.129 198.959 113.187 199.107 113.207C199.292 113.227 199.644 113.266 199.644 113.775C199.644 114.284 198.922 116.126 198.736 116.596C197.959 118.555 196.644 121.552 196.496 121.905C196.125 122.767 196.051 122.924 196.014 122.924C195.94 122.924 195.847 122.591 195.144 120.906C194.495 119.358 193.273 116.557 192.755 115.284C192.255 114.03 192.181 113.775 192.181 113.618C192.181 113.383 192.31 113.305 192.477 113.266C192.644 113.227 192.847 113.207 192.977 113.187C193.199 113.148 193.199 113.05 193.199 113.031C193.199 112.913 193.125 112.913 193.069 112.913C192.958 112.913 192.384 112.992 191.421 112.992C190.847 112.992 190.329 112.933 189.736 112.933C189.514 112.933 189.495 112.972 189.495 113.05C189.495 113.129 189.514 113.168 189.569 113.187C189.68 113.227 189.921 113.187 190.18 113.364C190.514 113.579 190.866 114.187 191.236 114.97C191.792 116.106 192.292 117.203 192.755 118.32C194.958 123.394 195.347 124.256 195.458 124.726C195.477 124.824 195.533 125 195.699 125C195.94 125 196.033 124.354 196.125 124.06C196.218 123.766 196.421 123.198 197.162 121.435L198.422 118.477L199.588 115.734C200.107 114.52 200.366 114.049 200.625 113.736C200.848 113.462 201.088 113.285 201.422 113.227C201.533 113.207 201.644 113.168 201.644 113.031C201.644 112.913 201.57 112.913 201.477 112.913C200.866 112.913 200.477 112.972 200.107 112.972C199.644 112.972 199.255 112.874 198.866 112.874Z" fill="#331F07"/>
<path d="M208.262 123.55C208.318 123.707 208.355 123.883 208.355 124.04C208.355 124.158 208.299 124.393 208.003 124.53C207.818 124.608 207.503 124.628 207.503 124.785C207.503 124.863 207.577 124.883 207.67 124.883H207.799C208.059 124.883 208.281 124.843 208.484 124.804C208.818 124.765 209.059 124.745 209.466 124.745C210.151 124.745 210.503 124.804 210.725 124.804C210.799 124.804 210.818 124.785 210.818 124.687C210.818 124.628 210.799 124.628 210.762 124.608C210.688 124.569 210.485 124.53 210.392 124.491C210.207 124.412 210.04 124.295 209.91 124.138C209.688 123.883 209.485 123.453 209.188 122.689C208.021 119.73 207.299 117.948 206.744 116.42C206.447 115.577 205.781 113.756 205.67 113.266C205.632 113.089 205.577 112.835 205.466 112.835C205.429 112.835 205.392 112.854 205.373 112.874C205.336 112.913 205.262 113.05 204.799 114.422C204.225 116.087 203.373 118.516 202.799 120.005C202.188 121.631 201.836 122.61 201.429 123.433C201.225 123.844 200.984 124.236 200.743 124.412C200.632 124.491 200.521 124.55 200.41 124.589C200.317 124.628 200.188 124.667 200.188 124.765C200.188 124.863 200.28 124.863 200.317 124.863C200.484 124.863 200.669 124.824 200.892 124.804C201.04 124.785 201.392 124.765 201.558 124.765C201.78 124.765 201.818 124.765 202.243 124.804C202.558 124.843 202.873 124.902 203.169 124.902C203.373 124.902 203.392 124.824 203.392 124.785C203.392 124.647 203.114 124.608 202.966 124.569C202.743 124.51 202.595 124.471 202.392 124.373C202.188 124.275 202.04 124.079 202.04 123.746C202.04 123.609 202.095 123.335 202.151 123.178L202.947 120.867L203.003 120.73C203.077 120.592 203.244 120.592 203.355 120.592H206.892C207.17 120.592 207.207 120.651 207.262 120.808L208.262 123.55ZM205.207 115.499L206.892 119.828C206.91 119.887 206.947 119.966 206.947 120.044C206.947 120.083 206.929 120.161 206.855 120.161H203.392C203.318 120.161 203.281 120.161 203.281 120.044C203.281 119.946 203.41 119.593 203.447 119.515L204.929 115.44C204.966 115.323 205.04 115.303 205.077 115.303C205.151 115.303 205.17 115.421 205.207 115.499Z" fill="#331F07"/>
<path fill-rule="evenodd" clip-rule="evenodd" d="M129.422 3.7063C130.178 5.57948 131.364 8.53522 132.057 10.2746C135.323 18.4792 138.237 25.617 138.384 25.7734C138.568 25.9678 139.376 25.4725 148.998 19.2686C155.449 15.1094 158.734 13.0722 158.99 13.0722C159.052 13.0722 159.029 13.3731 158.939 13.7412C158.733 14.5822 155.496 23.6489 154.356 26.5737C153.166 29.6292 151.642 34.2455 151.642 34.7941C151.642 35.1872 151.771 35.2322 152.543 35.1099C157.784 34.2801 174.588 34.3253 176.085 35.1731C176.335 35.3145 176.011 35.5942 174.912 36.1859C172.843 37.2998 165.948 41.5994 162.773 43.7545C155.214 48.8873 151.2 52.4582 145.097 59.4805C142.973 61.9246 141.204 63.8925 141.165 63.8535C141.102 63.79 141.408 62.2642 142.638 56.496C143.121 54.2324 145.377 43.0848 145.555 42.0861L145.695 41.2994L144.402 41.6874C141.274 42.6267 133.069 46.4675 131.607 47.6768L130.92 48.2445L132.583 49.9375C135.151 52.5524 136.465 55.3101 137.001 59.2097C138.051 66.8504 131.833 72.6519 124.913 70.4885C118.958 68.6267 116.688 62.1606 119.447 54.9184C120.272 52.7531 122.091 50.1729 123.507 49.1588C124.038 48.779 124.474 48.4134 124.476 48.3465C124.487 48.0648 121.987 46.5655 119.074 45.1071C115.79 43.4631 111.71 41.8212 110.355 41.5986C109.608 41.4758 109.563 41.5064 109.692 42.0482C109.768 42.3681 110.364 45.2569 111.017 48.4681C112.477 55.6529 113.861 62.3761 114.045 63.1794L114.183 63.781L113.651 63.3011C113.359 63.0371 112.094 61.578 110.842 60.0587C103.781 51.4959 97.2796 46.312 82.573 37.5175C79.9007 35.9195 79.0934 35.3288 79.3686 35.1731C80.012 34.8087 85.2527 34.4878 90.5917 34.4859C95.2448 34.4844 98.8511 34.67 102.582 35.1028C103.844 35.2493 103.872 35.239 103.749 34.6841C103.68 34.3711 102.684 31.4331 101.536 28.155C95.6882 11.4598 96.1704 12.9277 96.6227 13.1995C97.987 14.019 104.638 18.215 107.946 20.3424C110.154 21.7626 112.75 23.4008 113.715 23.9829C114.679 24.5648 115.808 25.2506 116.223 25.5065L116.977 25.9717L117.592 24.4483C117.929 23.6102 118.924 21.1731 119.803 19.0324C121.407 15.1225 123.205 10.6942 125.91 3.9863C127.573 -0.137866 127.593 -0.177762 127.853 0.0968906C127.959 0.208795 128.665 1.83311 129.422 3.7063ZM124.96 21.5259C123.602 24.1685 122.021 27.1727 121.446 28.202C120.872 29.2315 120.136 30.6819 119.811 31.4253C119.428 32.3018 119.077 32.7771 118.811 32.7771C118.586 32.7771 116.552 31.7744 114.291 30.549C106.74 26.4562 106.285 26.2543 106.556 27.1211C106.629 27.3554 107.074 29.4614 107.543 31.8016C108.013 34.1417 108.474 36.1233 108.568 36.2053C108.662 36.2873 109.874 36.7673 111.262 37.2716C115.63 38.8592 120.606 41.5266 124.556 44.3979C127.523 46.555 127.684 46.6144 128.633 45.8999C133.757 42.0443 140.049 38.5913 144.972 36.9329C145.844 36.6393 146.657 36.2681 146.778 36.1085C146.899 35.9487 147.191 34.8328 147.428 33.6286C147.665 32.4244 148.103 30.3719 148.4 29.0673C148.699 27.7626 148.887 26.6954 148.819 26.6954C148.677 26.6954 137.779 32.2378 137.192 32.6083C136.309 33.1666 136.181 32.9608 130.724 22.1949C128.199 17.2124 127.919 16.7213 127.609 16.7213C127.511 16.7213 126.319 18.8832 124.96 21.5259ZM96.7583 39.3129C96.3915 39.4591 96.9446 40.0938 99.9771 43.0057C105.253 48.0713 108.911 52.6847 111.157 57.1042C112.332 59.4165 112.085 57.854 110.652 53.9074C109.906 51.8522 108.761 48.6384 108.107 46.7652C105.734 39.9699 105.802 40.1125 104.813 39.8434C102.456 39.2019 97.806 38.8956 96.7583 39.3129ZM152.243 39.4824C149.893 39.9497 149.588 40.1334 149.169 41.334C148.967 41.9127 147.916 44.8495 146.834 47.8599C144.468 54.4426 143.228 58.0827 143.234 58.4291C143.236 58.5702 143.538 58.1381 143.904 57.4691C146.477 52.773 150.021 48.2908 154.966 43.4815C158.176 40.3592 158.901 39.5372 158.612 39.3469C158.095 39.0068 154.221 39.0893 152.243 39.4824ZM126.347 50.8901C122.899 53.5551 121.044 58.5828 122.484 61.3615C123.125 62.5983 123.616 63.041 125.067 63.6903C127.672 64.8565 131.112 64.0469 132.563 61.9261C133.807 60.1079 133.456 57.1547 132.493 55.2797C132.08 54.4769 131.275 53.2834 130.704 52.6273C129.723 51.5014 127.977 50.0494 127.605 50.0494C127.511 50.0494 126.946 50.4277 126.347 50.8901Z" fill="#331F07"/>
</svg>
