<svg width="201" height="34" viewBox="0 0 201 34" fill="none" xmlns="http://www.w3.org/2000/svg">
<path fill-rule="evenodd" clip-rule="evenodd" d="M23.6823 2.02196C24.0399 2.90519 24.6004 4.29884 24.9277 5.11898C26.4715 8.98749 27.849 12.353 27.9187 12.4268C28.0053 12.5184 28.3872 12.2849 32.9353 9.3597C35.9844 7.3986 37.5372 6.43807 37.6583 6.43807C37.6874 6.43807 37.6763 6.57996 37.6339 6.75351C37.5367 7.15004 36.0064 11.4251 35.4679 12.8042C34.9055 14.2448 34.185 16.4215 34.185 16.6801C34.185 16.8655 34.2459 16.8867 34.611 16.829C37.088 16.4377 45.0307 16.4591 45.7382 16.8588C45.8563 16.9255 45.7031 17.0574 45.1838 17.3363C44.206 17.8616 40.9467 19.8889 39.4465 20.905C35.8733 23.3252 33.9761 25.0089 31.0916 28.3199C30.0875 29.4724 29.2511 30.4002 29.2329 30.3819C29.2033 30.3519 29.3477 29.6325 29.9292 26.9128C30.1574 25.8454 31.2239 20.5892 31.3079 20.1184L31.374 19.7474L30.7629 19.9304C29.2845 20.3732 25.4061 22.1842 24.7152 22.7544L24.3907 23.0221L25.1765 23.8203C26.3903 25.0533 27.0113 26.3536 27.2646 28.1923C27.7609 31.7949 24.822 34.5304 21.5511 33.5103C18.7364 32.6325 17.6636 29.5836 18.9678 26.1689C19.3578 25.1479 20.2175 23.9314 20.8866 23.4532C21.1375 23.2741 21.3435 23.1017 21.3448 23.0702C21.3499 22.9373 20.1681 22.2304 18.7913 21.5428C17.2393 20.7676 15.3107 19.9935 14.6704 19.8885C14.3172 19.8306 14.2959 19.845 14.3567 20.1005C14.3926 20.2513 14.6745 21.6134 14.983 23.1275C15.6733 26.5152 16.3275 29.6853 16.4144 30.064L16.4794 30.3477L16.2281 30.1214C16.0899 29.9969 15.4923 29.3089 14.9002 28.5926C11.5627 24.5551 8.48996 22.1109 1.5387 17.9642C0.275614 17.2107 -0.10599 16.9322 0.0240901 16.8588C0.328216 16.687 2.8053 16.5357 5.32885 16.5348C7.52816 16.5341 9.23272 16.6216 10.996 16.8257C11.5927 16.8947 11.6061 16.8899 11.548 16.6283C11.5152 16.4806 11.0444 15.0954 10.5017 13.5497C7.73776 5.67781 7.96566 6.36994 8.17947 6.49806C8.8243 6.8845 11.9681 8.86292 13.5316 9.866C14.5753 10.5356 15.8023 11.3081 16.2582 11.5826C16.7141 11.8569 17.2476 12.1803 17.4438 12.3009L17.8003 12.5203L18.0906 11.802C18.2503 11.4068 18.7206 10.2577 19.1358 9.24832C19.894 7.4048 20.7437 5.31684 22.0225 2.15399C22.8087 0.209409 22.8182 0.190598 22.941 0.320099C22.991 0.372863 23.3246 1.13874 23.6823 2.02196ZM21.5736 10.424C20.9315 11.6701 20.1841 13.0866 19.9126 13.5719C19.641 14.0573 19.2933 14.7412 19.1397 15.0917C18.9587 15.505 18.7926 15.7291 18.6672 15.7291C18.5609 15.7291 17.5995 15.2563 16.5308 14.6785C12.9618 12.7487 12.7462 12.6535 12.8746 13.0622C12.9093 13.1727 13.1192 14.1657 13.3412 15.2691C13.5632 16.3725 13.7811 17.3069 13.8255 17.3455C13.8698 17.3842 14.443 17.6105 15.099 17.8483C17.1636 18.5968 19.5155 19.8546 21.3824 21.2084C22.7849 22.2255 22.861 22.2535 23.3097 21.9166C25.7313 20.0986 28.7054 18.4705 31.0324 17.6886C31.4447 17.5501 31.8288 17.3751 31.8859 17.2999C31.9431 17.2245 32.0813 16.6984 32.1933 16.1306C32.3052 15.5628 32.5121 14.595 32.6529 13.9799C32.7938 13.3647 32.8827 12.8615 32.8506 12.8615C32.7834 12.8615 27.6324 15.4748 27.3552 15.6495C26.9375 15.9127 26.8772 15.8157 24.2979 10.7395C23.1042 8.39022 22.9721 8.15863 22.8255 8.15863C22.779 8.15863 22.2156 9.17801 21.5736 10.424ZM8.24355 18.8107C8.07018 18.8797 8.33159 19.1789 9.76497 20.552C12.2585 22.9404 13.9876 25.1157 15.049 27.1995C15.6045 28.2898 15.4879 27.553 14.8106 25.6922C14.458 24.7232 13.9166 23.2078 13.6075 22.3246C12.4861 19.1206 12.5181 19.1878 12.0509 19.0609C10.9367 18.7584 8.73876 18.614 8.24355 18.8107ZM34.469 18.8907C33.3583 19.111 33.2142 19.1976 33.0162 19.7637C32.9207 20.0366 32.4241 21.4213 31.9126 22.8408C30.7942 25.9445 30.2081 27.6609 30.2108 27.8242C30.2119 27.8907 30.3546 27.687 30.5277 27.3716C31.7436 25.1573 33.419 23.0439 35.7562 20.7763C37.2734 19.3041 37.6161 18.9165 37.4796 18.8268C37.2353 18.6664 35.4039 18.7053 34.469 18.8907ZM22.2292 24.2695C20.5992 25.5261 19.7225 27.8967 20.4032 29.2068C20.7062 29.79 20.9382 29.9988 21.6238 30.3049C22.8551 30.8548 24.4812 30.4731 25.167 29.4731C25.7549 28.6158 25.5891 27.2233 25.1339 26.3392C24.939 25.9607 24.5585 25.398 24.2882 25.0886C23.8245 24.5578 22.9995 23.8731 22.8236 23.8731C22.7794 23.8731 22.512 24.0515 22.2292 24.2695Z" fill="#331F07"/>
<path d="M59.8231 17.5368C59.8577 17.327 59.9268 16.932 59.9845 16.7345C60.1113 16.2532 60.1343 16.2285 60.1343 16.1915C60.1343 16.1421 60.0998 16.1298 60.0537 16.1298C59.9499 16.1298 59.9384 16.2162 59.9153 16.2779C59.8231 16.5988 59.4888 17.0554 59.2928 17.2282C58.8778 17.5862 58.3475 17.6972 57.8403 17.6972C56.7567 17.6972 56.0305 17.1295 55.5809 16.5C55.0967 15.8335 54.8546 14.9325 54.8546 14.0316C54.8546 13.6119 54.9007 13.1923 55.016 12.785C55.1313 12.3777 55.3042 11.9827 55.5578 11.6495C56.1803 10.8102 57.0218 10.6127 57.6098 10.6127C58.2092 10.6127 58.9585 10.8719 59.3274 11.1188C59.7078 11.3656 59.7078 11.5754 59.7078 11.7606V11.9951C59.7078 12.0444 59.7078 12.1185 59.7885 12.1185C59.8923 12.1185 59.8923 11.958 59.9038 11.8223C59.9268 11.6125 59.9499 11.3533 60.0306 10.983C60.0767 10.7732 60.0998 10.7362 60.0998 10.6991C60.0998 10.6621 60.0767 10.6251 60.0306 10.6251C60.0075 10.6251 59.8346 10.6744 59.7539 10.6744C59.6271 10.6744 59.4773 10.6251 59.2928 10.5757C58.8087 10.4276 58.313 10.3412 57.8173 10.3412C56.7337 10.3412 55.8114 10.7238 55.1543 11.3162C54.1975 12.1925 53.9785 13.3404 53.9785 14.1426C53.9785 15.2041 54.3589 16.1174 54.9123 16.7469C55.5348 17.4504 56.5377 17.9688 57.7827 17.9688C58.2323 17.9688 58.555 17.8947 58.8893 17.8083L59.8231 17.5368Z" fill="#331F07"/>
<path d="M61.0512 14.1303C61.0512 15.0807 61.3624 16.1668 62.2385 17.0307C62.9302 17.7096 63.8063 18.0305 64.6824 18.0305C65.9044 18.0305 66.7113 17.4504 67.1494 17.0431C68.1753 16.068 68.3598 14.8585 68.3598 14.118C68.3598 12.9454 67.8871 11.8223 67.0571 11.1188C66.4231 10.5757 65.6046 10.2918 64.7631 10.2918C63.7487 10.2918 62.7688 10.7362 62.1002 11.452C61.5238 12.0568 61.0512 12.9701 61.0512 14.1303ZM64.4634 10.6868C65.3856 10.6868 66.0773 11.1064 66.6306 11.7606C67.3453 12.5998 67.622 13.6489 67.622 14.5746C67.622 15.6978 67.2185 16.5 66.7459 16.9567C66.3539 17.3393 65.766 17.6108 65.0628 17.6108C64.6939 17.6108 63.4835 17.5244 62.5728 16.2038C62.2501 15.7225 61.7889 14.8708 61.7889 13.7107C61.7889 12.9454 61.9388 12.1802 62.5152 11.5384C62.9071 11.0941 63.5527 10.6868 64.4634 10.6868Z" fill="#331F07"/>
<path d="M69.7777 17.8453C69.7892 17.8083 69.8123 17.7713 69.9045 17.7713C70.0083 17.7713 70.4002 17.87 70.6308 17.9194C70.9535 17.9811 71.4492 18.0305 71.7028 18.0305C72.3023 18.0305 72.8326 17.8824 73.2706 17.5368C73.6856 17.2035 73.9623 16.7222 73.9623 16.0434C73.9623 15.5743 73.8355 15.1671 73.5473 14.7968C73.2591 14.4265 72.9133 14.192 72.5328 14.0069L71.9103 13.723C71.5299 13.5502 70.9305 13.3034 70.6192 12.9454C70.4002 12.6862 70.2964 12.39 70.2964 12.0198C70.2964 11.415 70.5385 11.0324 70.7806 10.8349C70.9996 10.6498 71.2994 10.5016 71.7489 10.5016C72.3369 10.5016 73.0055 10.7115 73.3513 11.3162C73.6049 11.7482 73.5588 12.0321 73.651 12.0321H73.6741C73.7087 12.0321 73.7433 12.0198 73.7433 11.958C73.7433 11.8223 73.6626 11.7729 73.6626 11.1681C73.6626 10.983 73.6856 10.7608 73.7202 10.588C73.7433 10.4893 73.7548 10.4646 73.7548 10.4276C73.7548 10.3659 73.7087 10.3412 73.6856 10.3412C73.6395 10.3412 73.6049 10.3906 73.5242 10.4276C73.4435 10.4646 73.3513 10.5016 73.2245 10.5016C73.0401 10.5016 72.8441 10.4276 72.6251 10.3782C72.406 10.3289 72.1063 10.2918 71.8758 10.2918C71.2533 10.2918 70.6423 10.5016 70.2157 10.9336C69.9045 11.2545 69.6509 11.7359 69.6509 12.3653C69.6509 12.9948 69.893 13.4021 70.2503 13.723C70.3656 13.8341 70.6538 14.0562 71.2878 14.3525L71.6337 14.5129C72.1755 14.7721 72.5213 14.9202 72.7864 15.1424C73.1784 15.4633 73.2937 15.8335 73.2937 16.3149C73.2937 16.8456 73.0977 17.1665 72.9363 17.3393C72.798 17.4874 72.4752 17.7466 71.8296 17.7466C71.2878 17.7466 70.5731 17.5738 70.1005 17.2159C69.8469 17.0184 69.7431 16.8456 69.6624 16.6111C69.6163 16.463 69.5471 16.2162 69.5241 16.0927C69.5126 16.031 69.501 15.9693 69.4319 15.9693C69.3858 15.9693 69.3281 15.994 69.3281 16.068C69.3281 16.1421 69.3742 16.2285 69.4549 16.6111C69.5241 16.9567 69.5933 17.2899 69.5933 17.9564H69.7316C69.7431 17.9194 69.7546 17.8824 69.7777 17.8453Z" fill="#331F07"/>
<path d="M76.5265 10.4276C76.319 10.4399 76.0423 10.4523 75.7311 10.4523C75.2584 10.4523 74.7282 10.4153 74.5898 10.4153C74.5322 10.4153 74.5091 10.4153 74.5091 10.477C74.5091 10.551 74.5898 10.5387 74.8089 10.5757C75.0625 10.6251 75.3852 10.7238 75.5582 10.9583C75.708 11.1681 75.7772 11.5507 75.7772 12.2913C75.7772 13.3774 75.7311 14.5006 75.6619 15.525C75.5582 17.0678 75.489 17.2529 75.3276 17.438C75.1893 17.5862 75.0279 17.6972 74.682 17.7589C74.6359 17.7713 74.4745 17.7836 74.4745 17.8824C74.4745 17.9317 74.4976 17.9564 74.5322 17.9564C74.5783 17.9564 74.8204 17.9194 74.9587 17.9071C75.2354 17.8824 75.4775 17.87 75.8579 17.87C76.0423 17.87 76.2268 17.8824 76.4112 17.8947C76.538 17.9071 76.6648 17.9194 76.7916 17.9194H76.9069C76.953 17.9194 76.9761 17.8947 76.9761 17.8577C76.9761 17.7836 76.8723 17.7589 76.8493 17.7589L76.4227 17.6602C76.2844 17.6232 76.1345 17.5615 76.0423 17.3516C75.9616 17.1665 75.9501 16.932 75.9501 16.463V16.2408C75.9501 15.4509 75.9732 14.0809 76.1461 11.6618L76.1922 11.6495C76.8262 12.9207 77.5986 14.5253 78.4747 16.4383C78.6015 16.7098 78.8205 17.1912 78.9243 17.5985C78.9934 17.87 79.028 17.8824 79.0395 17.8824C79.1087 17.8824 79.3047 17.3146 79.4891 16.858L80.0425 15.5497C80.6304 14.229 81.2183 12.9701 81.9445 11.6125L81.9907 11.6248C82.0137 12.8714 82.0368 15.0436 82.0368 15.8706C82.0368 16.5247 82.0252 16.895 81.9215 17.1665C81.8408 17.364 81.6909 17.5738 81.4027 17.6849C81.2183 17.7589 81.2068 17.7219 81.0108 17.7713C80.9532 17.7836 80.9301 17.796 80.9301 17.8577C80.9301 17.9564 80.9762 17.9564 81.0338 17.9564C81.2068 17.9564 81.4143 17.9194 81.6679 17.8947C82.0252 17.87 82.5786 17.8577 82.8322 17.8577C83.2702 17.8577 83.397 17.8947 83.6507 17.8947C83.6737 17.8947 83.7429 17.8947 83.7429 17.8207C83.7429 17.7466 83.6622 17.7219 83.6276 17.7219L83.3855 17.6972C83.2472 17.6849 83.1089 17.6355 83.0051 17.4998C82.9244 17.3887 82.8898 17.2529 82.8668 17.1048C82.7284 16.3272 82.7054 15.2781 82.7054 12.4271C82.7054 11.3039 82.7515 10.7979 83.0051 10.6991C83.0973 10.6621 83.2818 10.6498 83.3855 10.6498C83.6968 10.6374 83.7198 10.551 83.7198 10.5016C83.7198 10.4646 83.7083 10.4399 83.593 10.4399C83.5008 10.4399 83.1089 10.477 82.8898 10.477C82.5786 10.477 82.348 10.4646 82.1636 10.4523L81.6564 11.5261C80.8725 13.1799 80.1808 14.7104 79.42 16.1544C79.3739 16.2532 79.3277 16.3149 79.2932 16.3149C79.2355 16.3149 79.2009 16.1915 79.1664 16.1174L78.3709 14.5129C77.5986 12.9578 77.0568 11.9704 76.5265 10.4276Z" fill="#331F07"/>
<path d="M89.4473 10.4276H88.9286C86.8305 10.4276 86.5077 10.477 85.4241 10.477C84.767 10.477 84.7209 10.4276 84.4212 10.4276C84.3866 10.4276 84.3175 10.4276 84.3175 10.5016C84.3175 10.551 84.352 10.5757 84.3866 10.588C84.4789 10.6251 84.6172 10.6251 84.767 10.7115C85.0207 10.8472 85.0783 11.0694 85.0783 12.0815V13.2293C85.0783 16.6605 84.9745 17.4257 84.8823 17.5738C84.8132 17.6849 84.5941 17.7219 84.4904 17.7466C84.3866 17.7713 84.2598 17.7836 84.2598 17.8824C84.2598 17.9564 84.329 17.9564 84.3636 17.9564C84.4789 17.9564 84.5595 17.9317 84.8823 17.9194C85.5625 17.8824 86.0582 17.8577 86.8882 17.8577C87.7758 17.8577 88.894 17.8947 89.4012 17.9071C89.4819 17.7096 89.6318 17.3393 89.7586 16.8826C89.8162 16.6852 89.8739 16.4383 89.8739 16.2779C89.8739 16.2162 89.8623 16.1791 89.8047 16.1791C89.7701 16.1791 89.7471 16.2162 89.7355 16.2408C89.6433 16.4383 89.6664 16.463 89.5511 16.6605C89.4127 16.895 89.2283 17.1048 89.0093 17.2529C88.5136 17.5738 87.7989 17.6108 87.2455 17.6108C86.7268 17.6108 86.3002 17.5615 85.8737 17.4874C85.8161 16.6111 85.8161 16.068 85.8161 15.2411V14.5129C85.8161 14.4018 85.8276 14.3154 85.8852 14.2661C85.9544 14.2167 86.1043 14.2043 86.5077 14.2043H87.1302C87.845 14.2043 88.064 14.229 88.2139 14.2661C88.283 14.2784 88.3522 14.3031 88.4098 14.3401C88.5827 14.4389 88.6404 14.5499 88.6865 14.7351C88.7441 14.9449 88.7557 15.1547 88.7672 15.1794C88.7787 15.2041 88.7902 15.2534 88.8479 15.2534C88.8825 15.2534 88.894 15.2288 88.9055 15.2041C88.917 15.1671 88.917 15.1424 88.917 15.1053L88.9055 14.9202C88.894 14.698 88.8594 14.624 88.8594 14.1303C88.8594 13.6489 88.9286 13.4885 88.9286 13.2046C88.9286 13.1799 88.9286 13.1182 88.8709 13.1182C88.8364 13.1182 88.7902 13.1553 88.7787 13.1923L88.7211 13.4268C88.6404 13.6983 88.4675 13.8217 88.2254 13.8588C87.7643 13.9328 87.5452 13.9328 87.0726 13.9328H86.3233C86.0466 13.9328 85.9314 13.9205 85.8737 13.8711C85.8161 13.8217 85.8161 13.7353 85.8161 13.6736V13.4391C85.8161 12.6986 85.8276 12.1555 85.8968 10.7979C86.1619 10.7608 86.5884 10.6991 87.2916 10.6991C87.4991 10.6991 88.1562 10.6991 88.4905 10.7608C89.0323 10.8596 89.0784 11.0941 89.0784 11.2298C89.0784 11.3039 89.0669 11.4644 89.0554 11.5261C89.0439 11.6125 89.0208 11.6618 89.0208 11.7112C89.0208 11.7853 89.0784 11.8099 89.1246 11.8099C89.2744 11.8099 89.2744 11.3656 89.309 11.1434C89.3436 10.9089 89.3666 10.7485 89.4473 10.4276Z" fill="#331F07"/>
<path d="M97.0694 10.3412C96.9887 10.4029 96.9311 10.4153 96.8389 10.4276C96.6199 10.4523 96.3778 10.4523 96.1472 10.4523C95.8706 10.4523 95.2481 10.4399 94.7985 10.4399C94.5679 10.4399 94.0261 10.4276 93.6457 10.4276C92.7465 10.4276 92.5736 10.4646 91.5476 10.4646C91.2018 10.4646 90.9597 10.4523 90.7407 10.2918C90.6831 10.2548 90.6715 10.2178 90.6369 10.2178C90.5562 10.2178 90.5563 10.4276 90.5217 10.551C90.464 10.7855 90.3718 10.983 90.3026 11.1805C90.2219 11.3903 90.1528 11.4644 90.1528 11.5507C90.1528 11.6371 90.245 11.6371 90.2681 11.6371C90.3142 11.6371 90.3257 11.6001 90.3372 11.5631C90.3833 11.415 90.4179 11.3162 90.464 11.2422C90.5217 11.1434 90.5908 11.0694 90.7176 11.0077C91.1211 10.7979 91.8128 10.7855 92.0664 10.7855C92.5275 10.7855 92.9079 10.7979 93.2307 10.8225C93.2653 11.3286 93.2883 11.8346 93.2883 12.3653V13.5255C93.2883 17.0061 93.2537 17.3887 93.15 17.5244C93.1154 17.5738 93.0693 17.5985 93.0117 17.6232C92.8618 17.6849 92.7004 17.6972 92.3776 17.7466C92.2969 17.7589 92.2047 17.7713 92.2047 17.8824C92.2047 17.9688 92.2508 17.9688 92.2854 17.9688C92.3661 17.9688 92.6543 17.9194 92.8272 17.8947C93.1154 17.8577 93.5419 17.8207 93.9224 17.8207C94.3604 17.8207 94.9599 17.8947 95.0406 17.8947C95.1212 17.8947 95.1443 17.8947 95.1443 17.7713C95.1443 17.6725 95.0751 17.6725 95.0175 17.6725C94.7754 17.6725 94.3489 17.6602 94.199 17.4257C94.1529 17.3516 94.1299 17.2282 94.1068 16.969C94.0722 16.6111 94.0722 16.2408 94.0607 15.8706C94.0492 15.1053 94.0492 14.3525 94.0492 13.5996C94.0492 12.6369 94.0492 12.0938 94.1068 10.7979C94.3143 10.7855 94.591 10.7732 94.8676 10.7732C95.3633 10.7732 95.8936 10.8102 96.2049 10.8843C96.5968 10.983 96.7006 11.1681 96.7006 11.3409C96.7006 11.415 96.666 11.5384 96.666 11.6248C96.666 11.6742 96.689 11.6989 96.7582 11.6989C96.8158 11.6989 96.8389 11.6865 96.8504 11.6001L96.9196 11.2298C96.9657 10.9953 97.0233 10.7608 97.1501 10.4399L97.0694 10.3412Z" fill="#331F07"/>
<path d="M100.21 10.3906C99.8642 10.3906 99.6452 10.4399 99.4262 10.4523C99.2071 10.477 98.8959 10.4893 98.6999 10.4893C98.3656 10.4893 97.893 10.4523 97.6163 10.4523C97.5587 10.4523 97.4664 10.4523 97.4664 10.551C97.4664 10.6498 97.6163 10.6498 97.697 10.6498C97.8353 10.6498 98.112 10.7115 98.2042 10.7732C98.3425 10.8596 98.4002 11.0571 98.4232 11.1558C98.4924 11.4273 98.5155 11.6989 98.527 11.9827C98.5616 12.5628 98.5616 13.1306 98.5616 13.7107V14.624C98.5616 16.6605 98.5039 17.0431 98.4348 17.2406C98.4002 17.3393 98.3541 17.438 98.2734 17.5121C98.1581 17.6232 97.9621 17.6725 97.8238 17.6972C97.6624 17.7219 97.5356 17.6972 97.4664 17.7343C97.4318 17.7466 97.4088 17.796 97.4088 17.833C97.4088 17.9194 97.4434 17.9194 97.5241 17.9194C97.8468 17.9194 98.2734 17.87 98.6423 17.87C99.0227 17.87 99.1495 17.9317 100.129 17.9317C100.175 17.9317 100.222 17.9317 100.256 17.8947C100.268 17.8824 100.279 17.8577 100.279 17.833C100.279 17.7589 100.222 17.7466 100.187 17.7466C100.026 17.7219 99.8873 17.7343 99.7259 17.6972C99.576 17.6602 99.4953 17.6108 99.4146 17.438C99.3339 17.2406 99.2993 16.9814 99.2993 16.2408V15.093C99.2993 11.6125 99.357 10.9953 99.5645 10.7855C99.6567 10.6991 99.8296 10.6498 100.049 10.588C100.152 10.5634 100.302 10.551 100.302 10.4646C100.302 10.3906 100.245 10.3906 100.21 10.3906Z" fill="#331F07"/>
<path d="M106.936 17.5368C106.97 17.327 107.039 16.932 107.097 16.7345C107.224 16.2532 107.247 16.2285 107.247 16.1915C107.247 16.1421 107.212 16.1298 107.166 16.1298C107.062 16.1298 107.051 16.2162 107.028 16.2779C106.936 16.5988 106.601 17.0554 106.405 17.2282C105.99 17.5862 105.46 17.6972 104.953 17.6972C103.869 17.6972 103.143 17.1295 102.693 16.5C102.209 15.8335 101.967 14.9325 101.967 14.0316C101.967 13.6119 102.013 13.1923 102.129 12.785C102.244 12.3777 102.417 11.9827 102.67 11.6495C103.293 10.8102 104.134 10.6127 104.722 10.6127C105.322 10.6127 106.071 10.8719 106.44 11.1188C106.82 11.3656 106.82 11.5754 106.82 11.7606V11.9951C106.82 12.0444 106.82 12.1185 106.901 12.1185C107.005 12.1185 107.005 11.958 107.016 11.8223C107.039 11.6125 107.062 11.3533 107.143 10.983C107.189 10.7732 107.212 10.7362 107.212 10.6991C107.212 10.6621 107.189 10.6251 107.143 10.6251C107.12 10.6251 106.947 10.6744 106.867 10.6744C106.74 10.6744 106.59 10.6251 106.405 10.5757C105.921 10.4276 105.426 10.3412 104.93 10.3412C103.846 10.3412 102.924 10.7238 102.267 11.3162C101.31 12.1925 101.091 13.3404 101.091 14.1426C101.091 15.2041 101.472 16.1174 102.025 16.7469C102.647 17.4504 103.65 17.9688 104.895 17.9688C105.345 17.9688 105.668 17.8947 106.002 17.8083L106.936 17.5368Z" fill="#331F07"/>
<path d="M112.48 10.568C112.129 10.568 111.977 10.5197 111.79 10.5197C111.649 10.5197 111.509 10.5197 111.509 10.6163C111.509 10.6646 111.556 10.6766 111.579 10.7008C111.638 10.7249 111.72 10.7249 111.778 10.737C111.86 10.7491 111.977 10.7974 112.036 10.8457C112.094 10.894 112.129 10.9544 112.153 11.0268C112.281 11.3528 112.293 11.9687 112.293 13.623V16.3037C112.293 17.0645 112.293 17.4146 111.907 17.5475C111.79 17.5837 111.708 17.5958 111.626 17.6078C111.579 17.6199 111.544 17.632 111.544 17.6924C111.544 17.789 111.649 17.789 111.696 17.789C111.778 17.789 111.872 17.7769 111.954 17.7648C112.235 17.7165 112.516 17.7044 112.797 17.7044C113.124 17.7044 113.405 17.7286 114.026 17.7527C114.318 17.7648 114.471 17.7769 114.634 17.7769C115.711 17.7769 116.765 17.4509 117.467 16.8712C118.299 16.195 118.779 15.1324 118.779 14.0577C118.779 12.8381 118.135 11.7634 117.186 11.0751C116.426 10.5438 115.688 10.3868 114.728 10.3868C114.342 10.3868 114.014 10.411 113.721 10.4472C113.23 10.4955 112.843 10.568 112.48 10.568ZM114.447 10.6283C115.185 10.6283 116.191 10.7491 116.976 11.5702C117.257 11.8721 117.479 12.2343 117.631 12.6208C117.807 13.0917 117.889 13.5988 117.889 14.106C117.889 15.2411 117.526 16.0864 117.034 16.6177C116.625 17.0645 115.91 17.5354 114.787 17.5354C114.541 17.5354 114.201 17.4992 113.909 17.4509C113.616 17.4026 113.241 17.2818 113.148 17.1007C113.066 16.9437 113.042 16.3641 113.042 14.3717C113.042 11.8238 113.066 11.0751 113.159 10.9181C113.253 10.7612 113.698 10.6283 114.447 10.6283Z" fill="#331F07"/>
<path d="M124.919 10.4231H124.392C122.261 10.4231 121.934 10.4714 120.833 10.4714C120.166 10.4714 120.119 10.4231 119.815 10.4231C119.78 10.4231 119.709 10.4231 119.709 10.4955C119.709 10.5438 119.744 10.568 119.78 10.58C119.873 10.6163 120.014 10.6163 120.166 10.7008C120.423 10.8336 120.482 11.051 120.482 12.0411V13.1641C120.482 16.5211 120.377 17.2697 120.283 17.4146C120.213 17.5233 119.99 17.5595 119.885 17.5837C119.78 17.6078 119.651 17.6199 119.651 17.7165C119.651 17.789 119.721 17.789 119.756 17.789C119.873 17.789 119.955 17.7648 120.283 17.7527C120.974 17.7165 121.477 17.6924 122.32 17.6924C123.221 17.6924 124.357 17.7286 124.872 17.7407C124.954 17.5475 125.106 17.1852 125.235 16.7384C125.293 16.5452 125.352 16.3037 125.352 16.1467C125.352 16.0864 125.34 16.0501 125.282 16.0501C125.247 16.0501 125.223 16.0864 125.211 16.1105C125.118 16.3037 125.141 16.3279 125.024 16.5211C124.884 16.7505 124.696 16.9558 124.474 17.1007C123.971 17.4146 123.245 17.4509 122.683 17.4509C122.156 17.4509 121.723 17.4026 121.29 17.3301C121.231 16.4728 121.231 15.9415 121.231 15.1324V14.42C121.231 14.3113 121.243 14.2268 121.301 14.1785C121.372 14.1302 121.524 14.1181 121.934 14.1181H122.566C123.292 14.1181 123.514 14.1422 123.666 14.1785C123.736 14.1905 123.807 14.2147 123.865 14.2509C124.041 14.3475 124.099 14.4562 124.146 14.6373C124.205 14.8426 124.216 15.0479 124.228 15.072C124.24 15.0962 124.251 15.1445 124.31 15.1445C124.345 15.1445 124.357 15.1203 124.369 15.0962C124.38 15.06 124.38 15.0358 124.38 14.9996L124.369 14.8185C124.357 14.6011 124.322 14.5286 124.322 14.0456C124.322 13.5747 124.392 13.4177 124.392 13.14C124.392 13.1158 124.392 13.0555 124.333 13.0555C124.298 13.0555 124.251 13.0917 124.24 13.1279L124.181 13.3573C124.099 13.623 123.924 13.7438 123.678 13.78C123.21 13.8524 122.987 13.8524 122.507 13.8524H121.746C121.465 13.8524 121.348 13.8404 121.29 13.7921C121.231 13.7438 121.231 13.6592 121.231 13.5988V13.3694C121.231 12.6449 121.243 12.1136 121.313 10.7853C121.582 10.7491 122.016 10.6887 122.73 10.6887C122.94 10.6887 123.608 10.6887 123.947 10.7491C124.497 10.8457 124.544 11.0751 124.544 11.2079C124.544 11.2804 124.532 11.4374 124.521 11.4978C124.509 11.5823 124.486 11.6306 124.486 11.6789C124.486 11.7513 124.544 11.7755 124.591 11.7755C124.743 11.7755 124.743 11.3408 124.778 11.1234C124.813 10.894 124.837 10.737 124.919 10.4231Z" fill="#331F07"/>
<path d="M129.686 14.0939C130.048 13.9853 130.435 13.78 130.692 13.5022C131.02 13.14 131.149 12.7174 131.149 12.2947C131.149 11.7996 130.962 11.2804 130.528 10.9061C130.025 10.4593 129.288 10.3144 128.761 10.3144C128.527 10.3144 128.152 10.3506 127.941 10.3748C127.578 10.411 127.227 10.4714 126.923 10.4714C126.853 10.4714 126.724 10.4714 126.419 10.4472C126.244 10.4351 126.209 10.4231 126.138 10.4231C126.045 10.4231 126.033 10.4834 126.033 10.5317C126.033 10.6042 126.08 10.6163 126.138 10.6283C126.291 10.6525 126.49 10.6404 126.618 10.7491C126.712 10.8215 126.747 10.9785 126.771 11.0872C126.853 11.534 126.864 12.1498 126.864 13.6955V16.0501C126.864 16.8471 126.841 17.1369 126.724 17.318C126.595 17.5233 126.361 17.5837 126.279 17.5958C126.209 17.6078 126.127 17.6199 126.127 17.7165C126.127 17.789 126.174 17.801 126.197 17.801C126.314 17.801 126.525 17.6924 127.227 17.6924C127.532 17.6924 127.707 17.7165 127.965 17.7527C128.187 17.789 128.257 17.8131 128.351 17.8131C128.398 17.8131 128.433 17.801 128.433 17.7286C128.433 17.6561 128.398 17.6441 128.363 17.632L128.234 17.5958C128 17.5354 127.813 17.4992 127.707 17.2818C127.684 17.2214 127.672 17.149 127.66 17.0886C127.614 16.8712 127.614 16.2071 127.614 15.4826V14.1422C127.754 14.1664 128.14 14.2268 128.655 14.2268H128.819C129.194 14.903 129.873 15.9777 130.47 16.666C131.512 17.8735 132.343 18.0305 132.788 18.0305H133.069C133.092 18.0305 133.162 18.0305 133.162 17.958C133.162 17.8976 133.127 17.8735 133.08 17.8614C132.893 17.8131 132.671 17.7527 132.366 17.5595C131.594 17.0645 130.774 15.9777 129.686 14.0939ZM127.614 13.8524C127.625 12.1015 127.625 11.6668 127.649 11.3045C127.672 10.9664 127.684 10.9061 127.684 10.894C127.731 10.7008 127.93 10.6283 128.07 10.5921C128.211 10.5559 128.363 10.5438 128.503 10.5438C129.17 10.5438 129.615 10.7732 129.92 11.1355C130.166 11.4374 130.329 11.8479 130.329 12.4034C130.329 12.9226 130.177 13.309 129.826 13.5868C129.405 13.9249 128.854 13.9732 128.456 13.9732C128.222 13.9732 128 13.949 127.614 13.8524Z" fill="#331F07"/>
<path d="M135.174 10.4231C134.964 10.4351 134.683 10.4472 134.367 10.4472C133.887 10.4472 133.348 10.411 133.208 10.411C133.149 10.411 133.126 10.411 133.126 10.4714C133.126 10.5438 133.208 10.5317 133.43 10.568C133.688 10.6163 134.015 10.7129 134.191 10.9423C134.343 11.1476 134.414 11.5219 134.414 12.2464C134.414 13.309 134.367 14.4079 134.296 15.4101C134.191 16.9195 134.121 17.1007 133.957 17.2818C133.816 17.4267 133.653 17.5354 133.301 17.5958C133.255 17.6078 133.091 17.6199 133.091 17.7165C133.091 17.7648 133.114 17.789 133.149 17.789C133.196 17.789 133.442 17.7527 133.582 17.7407C133.863 17.7165 134.109 17.7044 134.495 17.7044C134.683 17.7044 134.87 17.7165 135.057 17.7286C135.186 17.7407 135.315 17.7527 135.444 17.7527H135.561C135.608 17.7527 135.631 17.7286 135.631 17.6924C135.631 17.6199 135.526 17.5958 135.502 17.5958L135.069 17.4992C134.929 17.4629 134.776 17.4026 134.683 17.1973C134.601 17.0162 134.589 16.7867 134.589 16.3279V16.1105C134.589 15.3377 134.613 13.9973 134.788 11.6306L134.835 11.6185C135.479 12.8623 136.263 14.432 137.153 16.3037C137.282 16.5694 137.504 17.0403 137.609 17.4388C137.68 17.7044 137.715 17.7165 137.726 17.7165C137.797 17.7165 137.996 17.1611 138.183 16.7143L138.745 15.4343C139.342 14.1422 139.939 12.9106 140.676 11.5823L140.723 11.5944C140.747 12.814 140.77 14.9392 140.77 15.7482C140.77 16.3882 140.758 16.7505 140.653 17.0162C140.571 17.2094 140.419 17.4146 140.126 17.5233C139.939 17.5958 139.927 17.5595 139.728 17.6078C139.67 17.6199 139.646 17.632 139.646 17.6924C139.646 17.789 139.693 17.789 139.752 17.789C139.927 17.789 140.138 17.7527 140.396 17.7286C140.758 17.7044 141.32 17.6924 141.578 17.6924C142.023 17.6924 142.151 17.7286 142.409 17.7286C142.432 17.7286 142.503 17.7286 142.503 17.6561C142.503 17.5837 142.421 17.5595 142.386 17.5595L142.14 17.5354C141.999 17.5233 141.859 17.475 141.753 17.3422C141.672 17.2335 141.636 17.1007 141.613 16.9558C141.473 16.195 141.449 15.1686 141.449 12.3792C141.449 11.2804 141.496 10.7853 141.753 10.6887C141.847 10.6525 142.034 10.6404 142.14 10.6404C142.456 10.6283 142.479 10.5438 142.479 10.4955C142.479 10.4593 142.468 10.4351 142.351 10.4351C142.257 10.4351 141.859 10.4714 141.636 10.4714C141.32 10.4714 141.086 10.4593 140.899 10.4472L140.384 11.4978C139.588 13.1158 138.885 14.6132 138.113 16.026C138.066 16.1226 138.019 16.183 137.984 16.183C137.925 16.183 137.89 16.0622 137.855 15.9898L137.047 14.42C136.263 12.8985 135.713 11.9325 135.174 10.4231Z" fill="#331F07"/>
<path d="M147.488 16.9679C147.523 17.0645 147.546 17.1731 147.546 17.2697C147.546 17.3422 147.511 17.4871 147.324 17.5716C147.207 17.6199 147.008 17.632 147.008 17.7286C147.008 17.7769 147.055 17.789 147.113 17.789H147.195C147.359 17.789 147.5 17.7648 147.628 17.7407C147.839 17.7165 147.991 17.7044 148.249 17.7044C148.682 17.7044 148.904 17.7407 149.045 17.7407C149.092 17.7407 149.103 17.7286 149.103 17.6682C149.103 17.632 149.092 17.632 149.068 17.6199C149.021 17.5958 148.893 17.5716 148.834 17.5475C148.717 17.4992 148.612 17.4267 148.53 17.3301C148.389 17.1731 148.26 16.9075 148.073 16.4365C147.336 14.6132 146.879 13.5143 146.528 12.5725C146.341 12.0532 145.919 10.9302 145.849 10.6283C145.825 10.5197 145.79 10.3627 145.72 10.3627C145.697 10.3627 145.673 10.3748 145.662 10.3868C145.638 10.411 145.591 10.4955 145.299 11.3408C144.936 12.3672 144.397 13.8645 144.034 14.7822C143.648 15.7845 143.426 16.3882 143.168 16.8954C143.039 17.149 142.887 17.3905 142.735 17.4992C142.665 17.5475 142.595 17.5837 142.524 17.6078C142.466 17.632 142.384 17.6561 142.384 17.7165C142.384 17.7769 142.442 17.7769 142.466 17.7769C142.571 17.7769 142.688 17.7527 142.829 17.7407C142.922 17.7286 143.145 17.7165 143.25 17.7165C143.391 17.7165 143.414 17.7165 143.683 17.7407C143.882 17.7648 144.081 17.801 144.269 17.801C144.397 17.801 144.409 17.7527 144.409 17.7286C144.409 17.6441 144.233 17.6199 144.14 17.5958C143.999 17.5595 143.906 17.5354 143.777 17.475C143.648 17.4146 143.554 17.2939 143.554 17.0886C143.554 17.0041 143.59 16.835 143.625 16.7384L144.128 15.3135L144.163 15.229C144.21 15.1445 144.315 15.1445 144.386 15.1445H146.622C146.797 15.1445 146.821 15.1807 146.856 15.2773L147.488 16.9679ZM145.556 12.0049L146.622 14.6735C146.633 14.7098 146.657 14.7581 146.657 14.8064C146.657 14.8305 146.645 14.8788 146.598 14.8788H144.409C144.362 14.8788 144.339 14.8788 144.339 14.8064C144.339 14.746 144.421 14.5286 144.444 14.4803L145.381 11.9687C145.404 11.8962 145.451 11.8842 145.474 11.8842C145.521 11.8842 145.533 11.9566 145.556 12.0049Z" fill="#331F07"/>
<path d="M154.984 10.3385C154.902 10.3989 154.844 10.411 154.75 10.4231C154.528 10.4472 154.282 10.4472 154.048 10.4472C153.767 10.4472 153.134 10.4351 152.678 10.4351C152.444 10.4351 151.894 10.4231 151.507 10.4231C150.594 10.4231 150.419 10.4593 149.377 10.4593C149.025 10.4593 148.78 10.4472 148.557 10.2902C148.499 10.254 148.487 10.2178 148.452 10.2178C148.37 10.2178 148.37 10.4231 148.335 10.5438C148.276 10.7732 148.183 10.9664 148.112 11.1596C148.03 11.3649 147.96 11.4374 147.96 11.5219C147.96 11.6064 148.054 11.6064 148.077 11.6064C148.124 11.6064 148.136 11.5702 148.147 11.534C148.194 11.3891 148.229 11.2925 148.276 11.22C148.335 11.1234 148.405 11.051 148.534 10.9906C148.944 10.7853 149.646 10.7732 149.903 10.7732C150.372 10.7732 150.758 10.7853 151.086 10.8095C151.121 11.3045 151.144 11.7996 151.144 12.3189V13.4539C151.144 16.8592 151.109 17.2335 151.004 17.3663C150.969 17.4146 150.922 17.4388 150.863 17.4629C150.711 17.5233 150.547 17.5354 150.22 17.5837C150.138 17.5958 150.044 17.6078 150.044 17.7165C150.044 17.801 150.091 17.801 150.126 17.801C150.208 17.801 150.5 17.7527 150.676 17.7286C150.969 17.6924 151.402 17.6561 151.788 17.6561C152.233 17.6561 152.842 17.7286 152.924 17.7286C153.006 17.7286 153.029 17.7286 153.029 17.6078C153.029 17.5112 152.959 17.5112 152.9 17.5112C152.654 17.5112 152.221 17.4992 152.069 17.2697C152.022 17.1973 151.999 17.0765 151.976 16.8229C151.94 16.4728 151.94 16.1105 151.929 15.7482C151.917 14.9996 151.917 14.263 151.917 13.5264C151.917 12.5845 151.917 12.0532 151.976 10.7853C152.186 10.7732 152.467 10.7612 152.748 10.7612C153.252 10.7612 153.79 10.7974 154.106 10.8698C154.504 10.9664 154.609 11.1476 154.609 11.3166C154.609 11.3891 154.574 11.5098 154.574 11.5944C154.574 11.6427 154.598 11.6668 154.668 11.6668C154.727 11.6668 154.75 11.6547 154.762 11.5702L154.832 11.2079C154.879 10.9785 154.937 10.7491 155.066 10.4351L154.984 10.3385Z" fill="#331F07"/>
<path d="M155.155 14.0456C155.155 14.9754 155.471 16.0381 156.361 16.8833C157.063 17.5475 157.953 17.8614 158.842 17.8614C160.083 17.8614 160.903 17.2939 161.348 16.8954C162.389 15.9415 162.577 14.7581 162.577 14.0336C162.577 12.8864 162.097 11.7876 161.254 11.0993C160.61 10.568 159.779 10.2902 158.924 10.2902C157.894 10.2902 156.899 10.7249 156.22 11.4253C155.635 12.017 155.155 12.9106 155.155 14.0456ZM158.62 10.6766C159.556 10.6766 160.259 11.0872 160.821 11.7272C161.547 12.5483 161.828 13.5747 161.828 14.4803C161.828 15.5792 161.418 16.3641 160.938 16.8109C160.54 17.1852 159.943 17.4509 159.229 17.4509C158.854 17.4509 157.625 17.3663 156.7 16.0743C156.372 15.6033 155.904 14.7702 155.904 13.6351C155.904 12.8864 156.056 12.1377 156.642 11.5098C157.04 11.0751 157.695 10.6766 158.62 10.6766Z" fill="#331F07"/>
<path d="M168.711 17.789C168.922 17.0886 168.922 17.1007 169.015 16.8109C169.086 16.5573 169.109 16.4607 169.109 16.3279C169.109 16.2675 169.109 16.2192 169.027 16.2192C168.968 16.2192 168.933 16.2554 168.91 16.3037C168.816 16.4848 168.84 16.678 168.688 16.8592C168.617 16.9437 168.512 17.0041 168.407 17.0524C168.301 17.1007 168.184 17.1369 168.079 17.1731C167.611 17.318 166.978 17.4146 166.206 17.4146C165.656 17.4146 165.281 17.4146 165.152 17.1852C165.082 17.0524 165.058 16.2192 165.058 15.7965C165.047 15.2411 165.047 14.6977 165.047 14.1422V12.4638C165.047 11.6185 165.058 11.2562 165.129 10.9544C165.152 10.8578 165.176 10.7732 165.269 10.7129C165.398 10.6163 165.656 10.5921 165.808 10.58C165.855 10.58 165.936 10.568 165.936 10.4714C165.936 10.411 165.89 10.411 165.843 10.411C165.632 10.411 165.515 10.4351 165.304 10.4593C165.129 10.4714 164.731 10.4955 164.532 10.4955C164.403 10.4955 164.286 10.4834 163.9 10.4714C163.689 10.4593 163.665 10.4472 163.619 10.4472C163.572 10.4472 163.513 10.4593 163.513 10.5317C163.513 10.6163 163.583 10.6042 163.689 10.6163C163.876 10.6404 164.04 10.6646 164.134 10.8215C164.192 10.9181 164.204 11.0751 164.251 11.6668C164.298 12.2464 164.298 14.2147 164.298 14.7339V16.3762C164.298 16.9679 164.286 17.149 164.216 17.2697C164.169 17.3543 164.075 17.4509 163.993 17.4871C163.818 17.5595 163.736 17.5716 163.712 17.5716C163.665 17.5716 163.56 17.5837 163.56 17.6803C163.56 17.7527 163.63 17.7527 163.665 17.7527C163.689 17.7527 163.935 17.7286 164.579 17.7286C165.503 17.7286 165.55 17.6924 166.92 17.6924C168.044 17.6924 168.325 17.7044 168.711 17.789Z" fill="#331F07"/>
<path d="M169.131 14.0456C169.131 14.9754 169.447 16.0381 170.337 16.8833C171.039 17.5475 171.929 17.8614 172.819 17.8614C174.06 17.8614 174.879 17.2939 175.324 16.8954C176.366 15.9415 176.553 14.7581 176.553 14.0336C176.553 12.8864 176.073 11.7876 175.23 11.0993C174.586 10.568 173.755 10.2902 172.901 10.2902C171.871 10.2902 170.876 10.7249 170.197 11.4253C169.611 12.017 169.131 12.9106 169.131 14.0456ZM172.596 10.6766C173.533 10.6766 174.235 11.0872 174.797 11.7272C175.523 12.5483 175.804 13.5747 175.804 14.4803C175.804 15.5792 175.394 16.3641 174.914 16.8109C174.516 17.1852 173.919 17.4509 173.205 17.4509C172.83 17.4509 171.601 17.3663 170.677 16.0743C170.349 15.6033 169.88 14.7702 169.88 13.6351C169.88 12.8864 170.033 12.1377 170.618 11.5098C171.016 11.0751 171.672 10.6766 172.596 10.6766Z" fill="#331F07"/>
<path d="M177.56 14.1785C177.56 15.2894 177.97 16.0743 178.508 16.6297C179.316 17.4871 180.44 17.801 181.493 17.801C181.915 17.801 182.336 17.7527 182.758 17.6803C183.226 17.6078 183.741 17.4871 184.104 17.4388C184.244 17.4146 184.268 17.3905 184.268 17.3301C184.268 17.1973 184.174 17.2697 184.104 17.1731C184.034 17.0765 184.022 16.5452 184.022 16.3158V15.2773C184.022 14.6252 184.116 14.4924 184.151 14.4562C184.221 14.3958 184.326 14.3717 184.408 14.3475L184.467 14.3113C184.478 14.2992 184.478 14.2751 184.478 14.2509C184.478 14.1664 184.455 14.1664 184.373 14.1664C184.08 14.1664 183.565 14.2147 183.319 14.2147C183.085 14.2147 182.863 14.2026 182.582 14.1905C182.43 14.1785 182.313 14.1664 182.149 14.1664C182.09 14.1664 182.02 14.1664 182.02 14.2509C182.02 14.3596 182.137 14.3475 182.266 14.3596C182.5 14.3717 182.676 14.3837 182.851 14.4079C182.921 14.42 182.992 14.432 183.05 14.4683C183.097 14.5045 183.144 14.5528 183.167 14.6011C183.214 14.6856 183.261 14.8305 183.261 15.3015V16.195C183.261 16.7988 183.214 16.9437 183.179 17.0162C182.992 17.3784 181.915 17.5112 181.587 17.5112C180.522 17.5112 179.808 17.0886 179.339 16.5814C178.672 15.869 178.379 14.903 178.379 13.9853C178.379 12.7777 178.824 11.9204 179.374 11.377C179.948 10.8215 180.627 10.5921 181.388 10.5921C182.055 10.5921 182.594 10.7853 182.968 11.063C183.331 11.3287 183.554 11.7151 183.612 11.8359C183.647 11.9204 183.718 12.1498 183.788 12.1498C183.811 12.1498 183.87 12.1377 183.87 12.0653C183.87 11.9808 183.846 11.8962 183.811 11.7151C183.788 11.5581 183.706 11.2079 183.706 10.6887V10.4714C183.706 10.4351 183.706 10.411 183.694 10.3989C183.682 10.3868 183.659 10.3748 183.636 10.3748C183.577 10.3748 183.542 10.4593 183.448 10.568C183.413 10.6163 183.355 10.6646 183.284 10.6646C183.238 10.6646 183.179 10.6404 183.05 10.6042C182.629 10.4834 182.149 10.3506 181.47 10.3506C180.381 10.3506 179.386 10.7612 178.707 11.3891C178.028 12.017 177.56 12.9709 177.56 14.1785Z" fill="#331F07"/>
<path d="M187.978 10.3868C187.627 10.3868 187.405 10.4351 187.182 10.4472C186.96 10.4714 186.644 10.4834 186.445 10.4834C186.105 10.4834 185.625 10.4472 185.344 10.4472C185.286 10.4472 185.192 10.4472 185.192 10.5438C185.192 10.6404 185.344 10.6404 185.426 10.6404C185.567 10.6404 185.848 10.7008 185.941 10.7612C186.082 10.8457 186.14 11.0389 186.164 11.1355C186.234 11.4011 186.257 11.6668 186.269 11.9445C186.304 12.5121 186.304 13.0675 186.304 13.6351V14.5286C186.304 16.5211 186.246 16.8954 186.175 17.0886C186.14 17.1852 186.093 17.2818 186.012 17.3543C185.894 17.4629 185.695 17.5112 185.555 17.5354C185.391 17.5595 185.262 17.5354 185.192 17.5716C185.157 17.5837 185.134 17.632 185.134 17.6682C185.134 17.7527 185.169 17.7527 185.251 17.7527C185.578 17.7527 186.012 17.7044 186.386 17.7044C186.772 17.7044 186.901 17.7648 187.896 17.7648C187.943 17.7648 187.99 17.7648 188.025 17.7286C188.037 17.7165 188.048 17.6924 188.048 17.6682C188.048 17.5958 187.99 17.5837 187.955 17.5837C187.791 17.5595 187.65 17.5716 187.487 17.5354C187.334 17.4992 187.252 17.4509 187.17 17.2818C187.089 17.0886 187.053 16.835 187.053 16.1105V14.9875C187.053 11.5823 187.112 10.9785 187.323 10.7732C187.416 10.6887 187.592 10.6404 187.814 10.58C187.92 10.5559 188.072 10.5438 188.072 10.4593C188.072 10.3868 188.013 10.3868 187.978 10.3868Z" fill="#331F07"/>
<path d="M189.294 17.6803C189.306 17.6441 189.329 17.6078 189.423 17.6078C189.528 17.6078 189.927 17.7044 190.161 17.7527C190.488 17.8131 190.992 17.8614 191.249 17.8614C191.858 17.8614 192.397 17.7165 192.841 17.3784C193.263 17.0524 193.544 16.5814 193.544 15.9173C193.544 15.4584 193.415 15.06 193.122 14.6977C192.83 14.3354 192.479 14.106 192.092 13.9249L191.46 13.6472C191.074 13.4781 190.465 13.2366 190.149 12.8864C189.927 12.6328 189.821 12.343 189.821 11.9808C189.821 11.3891 190.067 11.0147 190.313 10.8215C190.535 10.6404 190.84 10.4955 191.296 10.4955C191.893 10.4955 192.572 10.7008 192.923 11.2925C193.181 11.7151 193.134 11.9928 193.228 11.9928H193.251C193.286 11.9928 193.321 11.9808 193.321 11.9204C193.321 11.7876 193.239 11.7393 193.239 11.1476C193.239 10.9664 193.263 10.7491 193.298 10.58C193.321 10.4834 193.333 10.4593 193.333 10.4231C193.333 10.3627 193.286 10.3385 193.263 10.3385C193.216 10.3385 193.181 10.3868 193.099 10.4231C193.017 10.4593 192.923 10.4955 192.795 10.4955C192.607 10.4955 192.408 10.4231 192.186 10.3748C191.963 10.3265 191.659 10.2902 191.425 10.2902C190.793 10.2902 190.172 10.4955 189.739 10.9181C189.423 11.2321 189.166 11.703 189.166 12.3189C189.166 12.9347 189.411 13.3332 189.774 13.6472C189.891 13.7558 190.184 13.9732 190.828 14.263L191.179 14.42C191.729 14.6735 192.081 14.8185 192.35 15.0358C192.748 15.3498 192.865 15.712 192.865 16.183C192.865 16.7022 192.666 17.0162 192.502 17.1852C192.361 17.3301 192.034 17.5837 191.378 17.5837C190.828 17.5837 190.102 17.4146 189.622 17.0645C189.365 16.8712 189.259 16.7022 189.177 16.4728C189.13 16.3279 189.06 16.0864 189.037 15.9656C189.025 15.9052 189.013 15.8449 188.943 15.8449C188.896 15.8449 188.838 15.869 188.838 15.9415C188.838 16.0139 188.885 16.0984 188.967 16.4728C189.037 16.8109 189.107 17.1369 189.107 17.789H189.248C189.259 17.7527 189.271 17.7165 189.294 17.6803Z" fill="#331F07"/>
<path d="M200.918 10.3385C200.836 10.3989 200.777 10.411 200.684 10.4231C200.461 10.4472 200.215 10.4472 199.981 10.4472C199.7 10.4472 199.068 10.4351 198.612 10.4351C198.378 10.4351 197.827 10.4231 197.441 10.4231C196.528 10.4231 196.352 10.4593 195.31 10.4593C194.959 10.4593 194.713 10.4472 194.491 10.2902C194.432 10.254 194.421 10.2178 194.386 10.2178C194.304 10.2178 194.304 10.4231 194.269 10.5438C194.21 10.7732 194.116 10.9664 194.046 11.1596C193.964 11.3649 193.894 11.4374 193.894 11.5219C193.894 11.6064 193.988 11.6064 194.011 11.6064C194.058 11.6064 194.07 11.5702 194.081 11.534C194.128 11.3891 194.163 11.2925 194.21 11.22C194.269 11.1234 194.339 11.051 194.468 10.9906C194.877 10.7853 195.58 10.7732 195.837 10.7732C196.305 10.7732 196.692 10.7853 197.02 10.8095C197.055 11.3045 197.078 11.7996 197.078 12.3189V13.4539C197.078 16.8592 197.043 17.2335 196.938 17.3663C196.902 17.4146 196.856 17.4388 196.797 17.4629C196.645 17.5233 196.481 17.5354 196.153 17.5837C196.071 17.5958 195.978 17.6078 195.978 17.7165C195.978 17.801 196.024 17.801 196.06 17.801C196.142 17.801 196.434 17.7527 196.61 17.7286C196.902 17.6924 197.336 17.6561 197.722 17.6561C198.167 17.6561 198.776 17.7286 198.857 17.7286C198.939 17.7286 198.963 17.7286 198.963 17.6078C198.963 17.5112 198.893 17.5112 198.834 17.5112C198.588 17.5112 198.155 17.4992 198.003 17.2697C197.956 17.1973 197.933 17.0765 197.909 16.8229C197.874 16.4728 197.874 16.1105 197.862 15.7482C197.851 14.9996 197.851 14.263 197.851 13.5264C197.851 12.5845 197.851 12.0532 197.909 10.7853C198.12 10.7732 198.401 10.7612 198.682 10.7612C199.185 10.7612 199.724 10.7974 200.04 10.8698C200.438 10.9664 200.543 11.1476 200.543 11.3166C200.543 11.3891 200.508 11.5098 200.508 11.5944C200.508 11.6427 200.531 11.6668 200.602 11.6668C200.66 11.6668 200.684 11.6547 200.695 11.5702L200.766 11.2079C200.812 10.9785 200.871 10.7491 201 10.4351L200.918 10.3385Z" fill="#331F07"/>
<path d="M54.8486 21.8999C54.5341 21.8999 54.3978 21.856 54.2301 21.856C54.1043 21.856 53.9785 21.856 53.9785 21.9438C53.9785 21.9877 54.0204 21.9987 54.0414 22.0206C54.0938 22.0426 54.1672 22.0426 54.2196 22.0536C54.293 22.0646 54.3978 22.1085 54.4502 22.1524C54.5027 22.1963 54.5341 22.2512 54.5551 22.317C54.6704 22.6134 54.6809 23.1733 54.6809 24.6772V27.1142C54.6809 27.8058 54.6809 28.1241 54.3349 28.2449C54.2301 28.2778 54.1567 28.2888 54.0833 28.2998C54.0414 28.3108 54.01 28.3217 54.01 28.3766C54.01 28.4644 54.1043 28.4644 54.1462 28.4644C54.2196 28.4644 54.3035 28.4535 54.3769 28.4425C54.6285 28.3986 54.8801 28.3876 55.1316 28.3876C55.4252 28.3876 55.6768 28.4096 56.2324 28.4315C56.4944 28.4425 56.6307 28.4535 56.7775 28.4535C57.7419 28.4535 58.6854 28.1571 59.3144 27.6302C60.0586 27.0154 60.4884 26.0494 60.4884 25.0724C60.4884 23.9637 59.9119 22.9867 59.0628 22.3609C58.3814 21.8779 57.7209 21.7352 56.8613 21.7352C56.5154 21.7352 56.2219 21.7572 55.9598 21.7901C55.5195 21.834 55.1736 21.8999 54.8486 21.8999ZM56.6097 21.9548C57.2702 21.9548 58.1717 22.0646 58.8741 22.811C59.1257 23.0855 59.3248 23.4148 59.4611 23.7661C59.6184 24.1942 59.6917 24.6552 59.6917 25.1163C59.6917 26.1482 59.3668 26.9166 58.9265 27.3996C58.5596 27.8058 57.9201 28.2339 56.9137 28.2339C56.6936 28.2339 56.3896 28.201 56.1275 28.1571C55.8655 28.1132 55.53 28.0034 55.4461 27.8387C55.3728 27.696 55.3518 27.1691 55.3518 25.3578C55.3518 23.0416 55.3728 22.3609 55.4566 22.2182C55.5405 22.0755 55.9388 21.9548 56.6097 21.9548Z" fill="#331F07"/>
<path d="M61.3744 25.0614C61.3744 25.9067 61.6575 26.8727 62.4542 27.6411C63.0831 28.2449 63.8799 28.5303 64.6766 28.5303C65.7878 28.5303 66.5216 28.0144 66.9199 27.6521C67.8529 26.7849 68.0206 25.7091 68.0206 25.0504C68.0206 24.0076 67.5908 23.0086 66.8361 22.3829C66.2595 21.8999 65.5152 21.6474 64.7499 21.6474C63.8274 21.6474 62.9364 22.0426 62.3284 22.6793C61.8042 23.2172 61.3744 24.0295 61.3744 25.0614ZM64.4774 21.9987C65.316 21.9987 65.945 22.3719 66.4482 22.9537C67.0981 23.7002 67.3497 24.6333 67.3497 25.4566C67.3497 26.4556 66.9828 27.1691 66.553 27.5753C66.1966 27.9156 65.662 28.1571 65.0225 28.1571C64.687 28.1571 63.5863 28.0802 62.7582 26.9056C62.4646 26.4775 62.0453 25.7201 62.0453 24.6882C62.0453 24.0076 62.1816 23.327 62.7058 22.7561C63.0622 22.3609 63.6492 21.9987 64.4774 21.9987Z" fill="#331F07"/>
<path d="M74.2475 28.0912C74.279 27.9046 74.3419 27.5533 74.3943 27.3777C74.5096 26.9496 74.5306 26.9276 74.5306 26.8947C74.5306 26.8508 74.4991 26.8398 74.4572 26.8398C74.3628 26.8398 74.3523 26.9166 74.3314 26.9715C74.2475 27.2569 73.9435 27.6631 73.7653 27.8168C73.3879 28.1351 72.9057 28.2339 72.4444 28.2339C71.459 28.2339 70.7986 27.729 70.3898 27.1691C69.9495 26.5763 69.7294 25.775 69.7294 24.9736C69.7294 24.6004 69.7713 24.2271 69.8761 23.8649C69.9809 23.5026 70.1382 23.1513 70.3688 22.8549C70.9349 22.1085 71.7002 21.9328 72.2348 21.9328C72.7799 21.9328 73.4613 22.1634 73.7967 22.3829C74.1427 22.6025 74.1427 22.7891 74.1427 22.9537V23.1623C74.1427 23.2062 74.1427 23.2721 74.2161 23.2721C74.3104 23.2721 74.3104 23.1294 74.3209 23.0086C74.3419 22.822 74.3628 22.5915 74.4362 22.2621C74.4781 22.0755 74.4991 22.0426 74.4991 22.0097C74.4991 21.9767 74.4781 21.9438 74.4362 21.9438C74.4152 21.9438 74.258 21.9877 74.1846 21.9877C74.0693 21.9877 73.933 21.9438 73.7653 21.8999C73.325 21.7682 72.8742 21.6913 72.4235 21.6913C71.4381 21.6913 70.5994 22.0316 70.0019 22.5585C69.1318 23.3379 68.9326 24.3589 68.9326 25.0724C68.9326 26.0165 69.2786 26.8288 69.7818 27.3887C70.3478 28.0144 71.2599 28.4754 72.392 28.4754C72.8009 28.4754 73.0944 28.4096 73.3984 28.3327L74.2475 28.0912Z" fill="#331F07"/>
<path d="M81.1928 21.6913C81.1194 21.7462 81.067 21.7572 80.9832 21.7682C80.784 21.7901 80.5638 21.7901 80.3542 21.7901C80.1026 21.7901 79.5365 21.7791 79.1277 21.7791C78.918 21.7791 78.4253 21.7682 78.0794 21.7682C77.2617 21.7682 77.1045 21.8011 76.1715 21.8011C75.857 21.8011 75.6368 21.7901 75.4377 21.6474C75.3852 21.6145 75.3748 21.5815 75.3433 21.5815C75.2699 21.5815 75.2699 21.7682 75.2385 21.8779C75.1861 22.0865 75.1022 22.2621 75.0393 22.4378C74.9659 22.6244 74.903 22.6903 74.903 22.7671C74.903 22.844 74.9869 22.844 75.0079 22.844C75.0498 22.844 75.0603 22.811 75.0708 22.7781C75.1127 22.6464 75.1441 22.5585 75.1861 22.4927C75.2385 22.4049 75.3014 22.339 75.4167 22.2841C75.7836 22.0975 76.4126 22.0865 76.6432 22.0865C77.0625 22.0865 77.4085 22.0975 77.702 22.1194C77.7334 22.5695 77.7544 23.0196 77.7544 23.4916V24.5235C77.7544 27.6192 77.7229 27.9595 77.6286 28.0802C77.5972 28.1241 77.5552 28.1461 77.5028 28.1681C77.3665 28.2229 77.2198 28.2339 76.9262 28.2778C76.8529 28.2888 76.769 28.2998 76.769 28.3986C76.769 28.4754 76.8109 28.4754 76.8424 28.4754C76.9158 28.4754 77.1778 28.4315 77.3351 28.4096C77.5972 28.3766 77.985 28.3437 78.331 28.3437C78.7293 28.3437 79.2744 28.4096 79.3478 28.4096C79.4212 28.4096 79.4422 28.4096 79.4422 28.2998C79.4422 28.212 79.3793 28.212 79.3268 28.212C79.1067 28.212 78.7188 28.201 78.5826 27.9924C78.5406 27.9265 78.5197 27.8168 78.4987 27.5862C78.4672 27.2679 78.4672 26.9386 78.4568 26.6092C78.4463 25.9286 78.4463 25.259 78.4463 24.5894C78.4463 23.7331 78.4463 23.2501 78.4987 22.0975C78.6874 22.0865 78.939 22.0755 79.1906 22.0755C79.6413 22.0755 80.1236 22.1085 80.4066 22.1743C80.763 22.2621 80.8574 22.4268 80.8574 22.5805C80.8574 22.6464 80.8259 22.7561 80.8259 22.833C80.8259 22.8769 80.8469 22.8988 80.9098 22.8988C80.9622 22.8988 80.9832 22.8879 80.9936 22.811L81.0565 22.4817C81.0985 22.2731 81.1509 22.0646 81.2662 21.7791L81.1928 21.6913Z" fill="#331F07"/>
<path d="M81.3457 25.0614C81.3457 25.9067 81.6288 26.8727 82.4255 27.6411C83.0544 28.2449 83.8511 28.5303 84.6479 28.5303C85.7591 28.5303 86.4929 28.0144 86.8912 27.6521C87.8242 26.7849 87.9919 25.7091 87.9919 25.0504C87.9919 24.0076 87.5621 23.0086 86.8074 22.3829C86.2308 21.8999 85.4865 21.6474 84.7212 21.6474C83.7987 21.6474 82.9077 22.0426 82.2997 22.6793C81.7755 23.2172 81.3457 24.0295 81.3457 25.0614ZM84.4487 21.9987C85.2873 21.9987 85.9163 22.3719 86.4195 22.9537C87.0694 23.7002 87.321 24.6333 87.321 25.4566C87.321 26.4556 86.9541 27.1691 86.5243 27.5753C86.1679 27.9156 85.6333 28.1571 84.9938 28.1571C84.6583 28.1571 83.5576 28.0802 82.7295 26.9056C82.4359 26.4775 82.0166 25.7201 82.0166 24.6882C82.0166 24.0076 82.1529 23.327 82.6771 22.7561C83.0335 22.3609 83.6205 21.9987 84.4487 21.9987Z" fill="#331F07"/>
<path d="M92.0593 25.1053C92.3843 25.0065 92.7302 24.8199 92.9609 24.5674C93.2544 24.2381 93.3697 23.8539 93.3697 23.4697C93.3697 23.0196 93.202 22.5476 92.8141 22.2073C92.3633 21.8011 91.7029 21.6694 91.2312 21.6694C91.0215 21.6694 90.6861 21.7023 90.4974 21.7243C90.1724 21.7572 89.8579 21.8121 89.5853 21.8121C89.5224 21.8121 89.4071 21.8121 89.1346 21.7901C88.9773 21.7791 88.9459 21.7682 88.883 21.7682C88.7991 21.7682 88.7886 21.823 88.7886 21.867C88.7886 21.9328 88.8306 21.9438 88.883 21.9548C89.0193 21.9767 89.1975 21.9658 89.3128 22.0646C89.3966 22.1304 89.4281 22.2731 89.4491 22.3719C89.5224 22.7781 89.5329 23.3379 89.5329 24.7431V26.8837C89.5329 27.6082 89.512 27.8717 89.4071 28.0363C89.2918 28.2229 89.0822 28.2778 89.0088 28.2888C88.9459 28.2998 88.8725 28.3108 88.8725 28.3986C88.8725 28.4644 88.9144 28.4754 88.9354 28.4754C89.0402 28.4754 89.2289 28.3766 89.8579 28.3766C90.1305 28.3766 90.2877 28.3986 90.5183 28.4315C90.7175 28.4644 90.7804 28.4864 90.8643 28.4864C90.9062 28.4864 90.9376 28.4754 90.9376 28.4096C90.9376 28.3437 90.9062 28.3327 90.8747 28.3217L90.7594 28.2888C90.5498 28.2339 90.382 28.201 90.2877 28.0034C90.2667 27.9485 90.2563 27.8826 90.2458 27.8278C90.2038 27.6302 90.2038 27.0264 90.2038 26.3677V25.1492C90.3296 25.1712 90.6756 25.2261 91.1368 25.2261H91.2836C91.619 25.8408 92.227 26.8178 92.7617 27.4435C93.6947 28.5413 94.439 28.684 94.8373 28.684H95.0889C95.1099 28.684 95.1728 28.684 95.1728 28.6181C95.1728 28.5632 95.1413 28.5413 95.0994 28.5303C94.9317 28.4864 94.7325 28.4315 94.4599 28.2559C93.768 27.8058 93.0342 26.8178 92.0593 25.1053ZM90.2038 24.8858C90.2143 23.294 90.2143 22.8988 90.2353 22.5695C90.2562 22.2621 90.2667 22.2073 90.2667 22.1963C90.3087 22.0206 90.4869 21.9548 90.6127 21.9218C90.7385 21.8889 90.8747 21.8779 91.0005 21.8779C91.5981 21.8779 91.9964 22.0865 92.269 22.4158C92.4891 22.6903 92.6359 23.0635 92.6359 23.5685C92.6359 24.0405 92.4996 24.3918 92.1851 24.6443C91.8077 24.9516 91.315 24.9956 90.9586 24.9956C90.7489 24.9956 90.5498 24.9736 90.2038 24.8858Z" fill="#331F07"/>
<path d="M99.8532 28.5141C99.8639 28.4801 99.8853 28.4461 99.971 28.4461C100.067 28.4461 100.431 28.5367 100.646 28.5821C100.945 28.6387 101.406 28.684 101.642 28.684C102.198 28.684 102.691 28.5481 103.098 28.2309C103.483 27.925 103.74 27.4833 103.74 26.8602C103.74 26.4298 103.623 26.056 103.355 25.7161C103.087 25.3763 102.766 25.1611 102.413 24.9912L101.834 24.7306C101.481 24.5721 100.924 24.3455 100.635 24.017C100.431 23.7791 100.335 23.5072 100.335 23.1674C100.335 22.6124 100.56 22.2612 100.785 22.08C100.988 21.91 101.267 21.7741 101.684 21.7741C102.231 21.7741 102.852 21.9667 103.173 22.5217C103.408 22.9182 103.366 23.1787 103.451 23.1787H103.473C103.505 23.1787 103.537 23.1674 103.537 23.1108C103.537 22.9862 103.462 22.9409 103.462 22.3858C103.462 22.2159 103.483 22.012 103.516 21.8534C103.537 21.7628 103.548 21.7401 103.548 21.7061C103.548 21.6495 103.505 21.6269 103.483 21.6269C103.441 21.6269 103.408 21.6722 103.333 21.7061C103.259 21.7401 103.173 21.7741 103.055 21.7741C102.884 21.7741 102.702 21.7061 102.498 21.6608C102.295 21.6155 102.016 21.5815 101.802 21.5815C101.224 21.5815 100.656 21.7741 100.26 22.1706C99.971 22.4651 99.7354 22.9069 99.7354 23.4846C99.7354 24.0623 99.9603 24.4361 100.292 24.7306C100.399 24.8326 100.667 25.0365 101.256 25.3084L101.577 25.4556C102.081 25.6935 102.402 25.8294 102.648 26.0333C103.012 26.3278 103.119 26.6677 103.119 27.1095C103.119 27.5965 102.937 27.8911 102.787 28.0496C102.659 28.1856 102.359 28.4235 101.759 28.4235C101.256 28.4235 100.592 28.2649 100.153 27.9364C99.9174 27.7551 99.8211 27.5965 99.7461 27.3813C99.7033 27.2454 99.639 27.0188 99.6176 26.9056C99.6069 26.8489 99.5962 26.7923 99.5319 26.7923C99.4891 26.7923 99.4355 26.8149 99.4355 26.8829C99.4355 26.9509 99.4784 27.0302 99.5533 27.3813C99.6176 27.6985 99.6818 28.0043 99.6818 28.616H99.8103C99.8211 28.582 99.8318 28.5481 99.8532 28.5141Z" fill="#331F07"/>
<path d="M108.714 27.8458C108.746 27.9364 108.767 28.0383 108.767 28.1289C108.767 28.1969 108.735 28.3328 108.564 28.4121C108.457 28.4574 108.275 28.4688 108.275 28.5594C108.275 28.6047 108.318 28.616 108.371 28.616H108.446C108.596 28.616 108.725 28.5934 108.842 28.5707C109.035 28.5481 109.174 28.5367 109.41 28.5367C109.806 28.5367 110.01 28.5707 110.138 28.5707C110.181 28.5707 110.192 28.5594 110.192 28.5028C110.192 28.4688 110.181 28.4688 110.16 28.4574C110.117 28.4348 109.999 28.4121 109.945 28.3895C109.838 28.3442 109.742 28.2762 109.667 28.1856C109.538 28.0383 109.421 27.7891 109.249 27.3473C108.575 25.6369 108.157 24.606 107.836 23.7225C107.664 23.2354 107.279 22.1819 107.215 21.8987C107.193 21.7968 107.161 21.6495 107.097 21.6495C107.075 21.6495 107.054 21.6608 107.043 21.6722C107.022 21.6948 106.979 21.7741 106.711 22.5671C106.379 23.5299 105.887 24.9345 105.555 25.7954C105.201 26.7356 104.998 27.302 104.762 27.7778C104.645 28.0157 104.505 28.2422 104.366 28.3442C104.302 28.3895 104.238 28.4235 104.173 28.4461C104.12 28.4688 104.045 28.4914 104.045 28.5481C104.045 28.6047 104.098 28.6047 104.12 28.6047C104.216 28.6047 104.323 28.582 104.452 28.5707C104.538 28.5594 104.741 28.5481 104.837 28.5481C104.966 28.5481 104.987 28.5481 105.234 28.5707C105.416 28.5934 105.598 28.6274 105.769 28.6274C105.887 28.6274 105.898 28.5821 105.898 28.5594C105.898 28.4801 105.737 28.4574 105.651 28.4348C105.523 28.4008 105.437 28.3782 105.319 28.3215C105.201 28.2649 105.116 28.1516 105.116 27.959C105.116 27.8797 105.148 27.7211 105.18 27.6305L105.641 26.2939L105.673 26.2146C105.715 26.1353 105.812 26.1353 105.876 26.1353H107.921C108.082 26.1353 108.104 26.1693 108.136 26.2599L108.714 27.8458ZM106.947 23.1901L107.921 25.6935C107.932 25.7275 107.954 25.7728 107.954 25.8181C107.954 25.8408 107.943 25.8861 107.9 25.8861H105.898C105.855 25.8861 105.833 25.8861 105.833 25.8181C105.833 25.7615 105.908 25.5576 105.93 25.5122L106.786 23.1561C106.808 23.0881 106.851 23.0768 106.872 23.0768C106.915 23.0768 106.926 23.1448 106.947 23.1901Z" fill="#331F07"/>
<path d="M111.341 21.8421C111.02 21.8421 110.88 21.7968 110.709 21.7968C110.581 21.7968 110.452 21.7968 110.452 21.8874C110.452 21.9327 110.495 21.944 110.516 21.9667C110.57 21.9893 110.645 21.9893 110.698 22.0007C110.773 22.012 110.88 22.0573 110.934 22.1026C110.987 22.1479 111.02 22.2046 111.041 22.2725C111.159 22.5784 111.17 23.1561 111.17 24.708V27.2227C111.17 27.9364 111.17 28.2649 110.816 28.3895C110.709 28.4235 110.634 28.4348 110.559 28.4461C110.516 28.4574 110.484 28.4688 110.484 28.5254C110.484 28.616 110.581 28.616 110.623 28.616C110.698 28.616 110.784 28.6047 110.859 28.5934C111.116 28.5481 111.373 28.5367 111.63 28.5367C111.93 28.5367 112.187 28.5594 112.754 28.5821C113.022 28.5934 113.161 28.6047 113.311 28.6047C114.296 28.6047 115.26 28.2989 115.903 27.7551C116.663 27.1208 117.102 26.1239 117.102 25.1158C117.102 23.9717 116.513 22.9635 115.646 22.3178C114.95 21.8194 114.275 21.6722 113.397 21.6722C113.044 21.6722 112.744 21.6948 112.476 21.7288C112.026 21.7741 111.673 21.8421 111.341 21.8421ZM113.14 21.8987C113.815 21.8987 114.736 22.012 115.453 22.7823C115.71 23.0655 115.913 23.4053 116.053 23.7678C116.213 24.2096 116.288 24.6853 116.288 25.1611C116.288 26.2259 115.956 27.0188 115.507 27.5172C115.132 27.9364 114.479 28.3782 113.45 28.3782C113.226 28.3782 112.915 28.3442 112.647 28.2989C112.38 28.2535 112.037 28.1403 111.951 27.9704C111.876 27.8231 111.855 27.2794 111.855 25.4103C111.855 23.0202 111.876 22.3178 111.962 22.1706C112.048 22.0233 112.455 21.8987 113.14 21.8987Z" fill="#331F07"/>
<path d="M120.681 25.2404C121.12 24.4361 122.245 22.4651 122.662 22.0573C122.823 21.8987 122.941 21.8761 123.219 21.8194C123.262 21.8081 123.305 21.8081 123.305 21.7515C123.305 21.6948 123.273 21.6835 123.198 21.6835C123.155 21.6835 122.909 21.7175 122.737 21.7288C122.598 21.7401 122.512 21.7401 122.395 21.7401C121.827 21.7401 121.527 21.6722 121.367 21.6722C121.281 21.6722 121.27 21.6948 121.27 21.7288C121.27 21.7628 121.334 21.7968 121.377 21.8081C121.484 21.8308 121.591 21.8421 121.688 21.8761C121.806 21.91 121.998 21.978 121.998 22.2046C121.998 22.3065 121.966 22.4424 121.795 22.7936C121.752 22.8729 121.613 23.1674 120.853 24.4588L120.521 25.0252L119.546 23.6205C119.375 23.3826 119.15 23.0655 118.946 22.7483C118.679 22.3292 118.657 22.2159 118.657 22.1479C118.657 21.9667 118.829 21.8874 119.053 21.8534C119.139 21.8421 119.246 21.8194 119.246 21.7628C119.246 21.7401 119.235 21.7061 119.171 21.7061C119.086 21.7061 119.011 21.7175 118.925 21.7288C118.711 21.7628 118.497 21.7741 118.293 21.7741C118.09 21.7741 117.715 21.7515 117.447 21.7175C117.319 21.7061 117.222 21.6948 117.094 21.6948C117.051 21.6948 116.976 21.6948 116.976 21.7628C116.976 21.8421 117.137 21.8421 117.212 21.8534C117.287 21.8647 117.383 21.8874 117.469 21.944C117.565 22.0007 117.79 22.1932 118.582 23.3147C118.839 23.6772 119.086 24.0397 119.332 24.4135L119.974 25.3763C119.985 25.6369 119.996 26.1126 119.996 26.611V27.4266C119.996 28.1969 119.921 28.2989 119.717 28.3895C119.578 28.4461 119.375 28.4688 119.3 28.4801C119.246 28.4914 119.182 28.4801 119.182 28.5821C119.182 28.6387 119.246 28.6387 119.278 28.6387C119.396 28.6387 119.653 28.6047 119.75 28.5821C119.932 28.5481 120.231 28.5367 120.446 28.5367C121.12 28.5367 121.174 28.5934 121.431 28.5934C121.506 28.5934 121.516 28.5707 121.516 28.5254C121.516 28.4801 121.506 28.4461 121.399 28.4348C121.302 28.4235 121.11 28.4121 120.938 28.3215C120.874 28.2875 120.788 28.2309 120.756 28.1629C120.692 28.027 120.681 26.5544 120.681 25.7954V25.2404Z" fill="#331F07"/>
<path d="M125.038 24.9685V23.9037C125.038 23.6772 125.049 22.7596 125.081 22.5331C125.113 22.2612 125.177 22.1479 125.188 22.1366C125.263 22.0233 125.402 21.944 125.638 21.8874C125.734 21.8647 125.841 21.8647 125.841 21.7854C125.841 21.7741 125.841 21.7175 125.755 21.7175C125.713 21.7175 125.466 21.7515 125.016 21.7515C124.128 21.7515 124.021 21.6948 123.817 21.6948C123.731 21.6948 123.667 21.6948 123.667 21.7628C123.667 21.8308 123.731 21.8308 123.785 21.8421C123.892 21.8534 124.01 21.8874 124.117 21.9667C124.192 22.0233 124.256 22.0913 124.299 22.2385C124.342 22.3745 124.353 22.6803 124.353 22.7936V25.4216C124.353 25.6935 124.342 25.9654 124.331 26.2372C124.278 27.5172 124.256 28.1289 124.074 28.2989C124.01 28.3555 123.903 28.3895 123.742 28.4235C123.603 28.4574 123.56 28.4574 123.56 28.5254C123.56 28.5821 123.582 28.5934 123.667 28.5934C123.871 28.5934 123.935 28.5367 124.674 28.5367C125.274 28.5367 125.616 28.616 125.648 28.616C125.68 28.616 125.734 28.6047 125.734 28.5481C125.734 28.4914 125.595 28.4574 125.563 28.4461C125.466 28.4121 125.359 28.3895 125.22 28.2875C125.102 28.1969 125.027 27.993 125.027 27.5286V25.4783C125.027 25.4556 125.027 25.4103 125.059 25.4103C125.081 25.4103 125.102 25.433 125.166 25.4896C125.531 25.7954 125.884 26.1013 126.227 26.4071L127.137 27.2454C127.437 27.5286 127.747 27.8118 127.993 28.1176C128.09 28.2422 128.111 28.2762 128.111 28.3102C128.111 28.4008 127.961 28.4008 127.822 28.4461C127.79 28.4574 127.726 28.4688 127.726 28.5367C127.726 28.5707 127.747 28.5934 127.822 28.5934C127.876 28.5934 128.336 28.5367 128.604 28.5367C129.075 28.5367 129.236 28.5707 129.418 28.5707C129.45 28.5707 129.482 28.5707 129.482 28.5028C129.482 28.4574 129.439 28.4235 129.386 28.4008C129.311 28.3668 129.204 28.2989 129.139 28.2535C128.807 27.993 128.582 27.7551 128.358 27.5399L125.541 24.9006L127.372 22.9635C128.004 22.2952 128.218 22.1253 128.293 22.0686C128.379 22.0007 128.475 21.944 128.582 21.8987C128.69 21.8534 128.818 21.8761 128.818 21.7741C128.818 21.7515 128.818 21.6948 128.732 21.6948C128.582 21.6948 128.047 21.7741 127.715 21.7741C127.597 21.7741 127.33 21.7628 127.126 21.7628C127.03 21.7628 127.019 21.8081 127.019 21.8308C127.019 21.8987 127.148 21.91 127.201 21.9214C127.415 21.9554 127.554 22.0347 127.554 22.2046C127.554 22.3971 127.158 22.8616 126.88 23.1674L125.124 25.0591C125.102 25.0818 125.091 25.0818 125.049 25.0818C125.038 25.0818 125.038 25.0365 125.038 24.9685Z" fill="#331F07"/>
<path d="M129.475 25.1045C129.475 25.9767 129.764 26.9735 130.578 27.7665C131.22 28.3895 132.034 28.684 132.848 28.684C133.983 28.684 134.733 28.1516 135.14 27.7778C136.093 26.8829 136.264 25.7728 136.264 25.0931C136.264 24.017 135.825 22.9862 135.054 22.3405C134.465 21.8421 133.705 21.5815 132.923 21.5815C131.98 21.5815 131.07 21.9893 130.449 22.6463C129.914 23.2014 129.475 24.0397 129.475 25.1045ZM132.644 21.944C133.501 21.944 134.144 22.3292 134.658 22.9295C135.322 23.6998 135.579 24.6627 135.579 25.5122C135.579 26.5431 135.204 27.2794 134.765 27.6985C134.401 28.0496 133.854 28.2989 133.201 28.2989C132.859 28.2989 131.734 28.2196 130.888 27.0075C130.588 26.5657 130.16 25.7841 130.16 24.7193C130.16 24.017 130.299 23.3147 130.835 22.7256C131.199 22.3178 131.798 21.944 132.644 21.944Z" fill="#331F07"/>
<path d="M141.531 21.6722C141.446 21.6722 141.435 21.7061 141.435 21.7401C141.435 21.8194 141.585 21.8534 141.671 21.8647C141.778 21.8761 141.981 21.8987 141.981 22.1932C141.981 22.4878 141.564 23.5526 141.456 23.8244C141.007 24.9572 140.246 26.6903 140.161 26.8942C139.947 27.3926 139.904 27.4833 139.882 27.4833C139.839 27.4833 139.786 27.2907 139.379 26.3165C139.004 25.4216 138.297 23.8018 137.998 23.0655C137.708 22.3405 137.666 22.1932 137.666 22.1026C137.666 21.9667 137.741 21.9214 137.837 21.8987C137.933 21.8761 138.051 21.8647 138.126 21.8534C138.255 21.8308 138.255 21.7741 138.255 21.7628C138.255 21.6948 138.212 21.6948 138.18 21.6948C138.115 21.6948 137.783 21.7401 137.227 21.7401C136.895 21.7401 136.595 21.7061 136.252 21.7061C136.124 21.7061 136.113 21.7288 136.113 21.7741C136.113 21.8194 136.124 21.8421 136.156 21.8534C136.22 21.8761 136.359 21.8534 136.509 21.9554C136.702 22.08 136.905 22.4311 137.119 22.8842C137.441 23.5412 137.73 24.1756 137.998 24.8213C139.272 27.7551 139.497 28.2535 139.561 28.5254C139.572 28.5821 139.604 28.684 139.7 28.684C139.839 28.684 139.893 28.3102 139.947 28.1403C140 27.9704 140.118 27.6419 140.546 26.6224L141.274 24.9119L141.949 23.326C142.249 22.6237 142.399 22.3518 142.549 22.1706C142.677 22.012 142.816 21.91 143.009 21.8761C143.073 21.8647 143.138 21.8421 143.138 21.7628C143.138 21.6948 143.095 21.6948 143.041 21.6948C142.688 21.6948 142.463 21.7288 142.249 21.7288C141.981 21.7288 141.756 21.6722 141.531 21.6722Z" fill="#331F07"/>
<path d="M146.965 27.8458C146.997 27.9364 147.018 28.0383 147.018 28.1289C147.018 28.1969 146.986 28.3328 146.815 28.4121C146.708 28.4574 146.526 28.4688 146.526 28.5594C146.526 28.6047 146.568 28.616 146.622 28.616H146.697C146.847 28.616 146.975 28.5934 147.093 28.5707C147.286 28.5481 147.425 28.5367 147.661 28.5367C148.057 28.5367 148.26 28.5707 148.389 28.5707C148.432 28.5707 148.442 28.5594 148.442 28.5028C148.442 28.4688 148.432 28.4688 148.41 28.4574C148.368 28.4348 148.25 28.4121 148.196 28.3895C148.089 28.3442 147.993 28.2762 147.918 28.1856C147.789 28.0383 147.671 27.7891 147.5 27.3473C146.825 25.6369 146.408 24.606 146.087 23.7225C145.915 23.2354 145.53 22.1819 145.465 21.8987C145.444 21.7968 145.412 21.6495 145.348 21.6495C145.326 21.6495 145.305 21.6608 145.294 21.6722C145.273 21.6948 145.23 21.7741 144.962 22.5671C144.63 23.5299 144.138 24.9345 143.806 25.7954C143.452 26.7356 143.249 27.302 143.013 27.7778C142.895 28.0157 142.756 28.2422 142.617 28.3442C142.553 28.3895 142.488 28.4235 142.424 28.4461C142.371 28.4688 142.296 28.4914 142.296 28.5481C142.296 28.6047 142.349 28.6047 142.371 28.6047C142.467 28.6047 142.574 28.582 142.703 28.5707C142.788 28.5594 142.992 28.5481 143.088 28.5481C143.217 28.5481 143.238 28.5481 143.484 28.5707C143.666 28.5934 143.848 28.6274 144.02 28.6274C144.138 28.6274 144.148 28.5821 144.148 28.5594C144.148 28.4801 143.988 28.4574 143.902 28.4348C143.774 28.4008 143.688 28.3782 143.57 28.3215C143.452 28.2649 143.367 28.1516 143.367 27.959C143.367 27.8797 143.399 27.7211 143.431 27.6305L143.891 26.2939L143.923 26.2146C143.966 26.1353 144.063 26.1353 144.127 26.1353H146.172C146.333 26.1353 146.354 26.1693 146.386 26.2599L146.965 27.8458ZM145.198 23.1901L146.172 25.6935C146.183 25.7275 146.204 25.7728 146.204 25.8181C146.204 25.8408 146.194 25.8861 146.151 25.8861H144.148C144.105 25.8861 144.084 25.8861 144.084 25.8181C144.084 25.7615 144.159 25.5576 144.18 25.5122L145.037 23.1561C145.059 23.0881 145.101 23.0768 145.123 23.0768C145.166 23.0768 145.176 23.1448 145.198 23.1901Z" fill="#331F07"/>
</svg>
