<svg width="46" height="34" viewBox="0 0 46 34" fill="none" xmlns="http://www.w3.org/2000/svg">
<path fill-rule="evenodd" clip-rule="evenodd" d="M23.6823 1.74755C24.0399 2.63077 24.6004 4.02443 24.9277 4.84456C26.4715 8.71307 27.849 12.0786 27.9187 12.1524C28.0053 12.244 28.3872 12.0105 32.9353 9.08529C35.9844 7.12419 37.5372 6.16366 37.6583 6.16366C37.6874 6.16366 37.6763 6.30555 37.6339 6.4791C37.5367 6.87563 36.0064 11.1507 35.4679 12.5297C34.9055 13.9704 34.185 16.147 34.185 16.4057C34.185 16.5911 34.2459 16.6123 34.611 16.5546C37.088 16.1633 45.0307 16.1847 45.7382 16.5844C45.8563 16.6511 45.7031 16.783 45.1838 17.0619C44.206 17.5872 40.9467 19.6144 39.4465 20.6306C35.8733 23.0507 33.9761 24.7345 31.0916 28.0455C30.0875 29.198 29.2511 30.1258 29.2329 30.1075C29.2033 30.0775 29.3477 29.3581 29.9292 26.6383C30.1574 25.571 31.2239 20.3148 31.3079 19.844L31.374 19.473L30.7629 19.656C29.2845 20.0988 25.4061 21.9098 24.7152 22.48L24.3907 22.7477L25.1765 23.5459C26.3903 24.7789 27.0113 26.0792 27.2646 27.9179C27.7609 31.5205 24.822 34.256 21.5511 33.2359C18.7364 32.3581 17.6636 29.3092 18.9678 25.8945C19.3578 24.8735 20.2175 23.657 20.8866 23.1788C21.1375 22.9997 21.3435 22.8273 21.3448 22.7958C21.3499 22.6629 20.1681 21.956 18.7913 21.2684C17.2393 20.4932 15.3107 19.719 14.6704 19.6141C14.3172 19.5562 14.2959 19.5706 14.3567 19.8261C14.3926 19.9769 14.6745 21.339 14.983 22.8531C15.6733 26.2408 16.3275 29.4109 16.4144 29.7896L16.4794 30.0733L16.2281 29.847C16.0899 29.7225 15.4923 29.0345 14.9002 28.3182C11.5627 24.2807 8.48996 21.8365 1.5387 17.6898C0.275614 16.9363 -0.10599 16.6578 0.0240901 16.5844C0.328216 16.4126 2.8053 16.2613 5.32885 16.2604C7.52816 16.2597 9.23272 16.3472 10.996 16.5513C11.5927 16.6203 11.6061 16.6155 11.548 16.3539C11.5152 16.2062 11.0444 14.821 10.5017 13.2753C7.73776 5.4034 7.96566 6.09552 8.17947 6.22365C8.8243 6.61009 11.9681 8.5885 13.5316 9.59159C14.5753 10.2612 15.8023 11.0337 16.2582 11.3081C16.7141 11.5825 17.2476 11.9059 17.4438 12.0265L17.8003 12.2458L18.0906 11.5276C18.2503 11.1324 18.7206 9.98331 19.1358 8.97391C19.894 7.13038 20.7437 5.04243 22.0225 1.87957C22.8087 -0.0650047 22.8182 -0.0838162 22.941 0.0456847C22.991 0.0984486 23.3246 0.864328 23.6823 1.74755ZM21.5736 10.1496C20.9315 11.3957 20.1841 12.8121 19.9126 13.2975C19.641 13.7829 19.2933 14.4667 19.1397 14.8173C18.9587 15.2306 18.7926 15.4547 18.6672 15.4547C18.5609 15.4547 17.5995 14.9819 16.5308 14.4041C12.9618 12.4743 12.7462 12.3791 12.8746 12.7878C12.9093 12.8983 13.1192 13.8913 13.3412 14.9947C13.5632 16.0981 13.7811 17.0324 13.8255 17.0711C13.8698 17.1098 14.443 17.3361 15.099 17.5739C17.1636 18.3224 19.5155 19.5801 21.3824 20.934C22.7849 21.9511 22.861 21.9791 23.3097 21.6422C25.7313 19.8242 28.7054 18.1961 31.0324 17.4142C31.4447 17.2757 31.8288 17.1007 31.8859 17.0254C31.9431 16.9501 32.0813 16.4239 32.1933 15.8562C32.3052 15.2884 32.5121 14.3206 32.6529 13.7055C32.7938 13.0903 32.8827 12.5871 32.8506 12.5871C32.7834 12.5871 27.6324 15.2004 27.3552 15.3751C26.9375 15.6383 26.8772 15.5413 24.2979 10.4651C23.1042 8.11581 22.9721 7.88422 22.8255 7.88422C22.779 7.88422 22.2156 8.9036 21.5736 10.1496ZM8.24355 18.5363C8.07018 18.6053 8.33159 18.9045 9.76497 20.2775C12.2585 22.666 13.9876 24.8413 15.049 26.9251C15.6045 28.0154 15.4879 27.2786 14.8106 25.4178C14.458 24.4488 13.9166 22.9334 13.6075 22.0502C12.4861 18.8461 12.5181 18.9134 12.0509 18.7865C10.9367 18.484 8.73876 18.3396 8.24355 18.5363ZM34.469 18.6163C33.3583 18.8366 33.2142 18.9232 33.0162 19.4893C32.9207 19.7622 32.4241 21.1469 31.9126 22.5663C30.7942 25.6701 30.2081 27.3864 30.2108 27.5498C30.2119 27.6163 30.3546 27.4126 30.5277 27.0972C31.7436 24.8829 33.419 22.7695 35.7562 20.5019C37.2734 19.0297 37.6161 18.6421 37.4796 18.5524C37.2353 18.392 35.4039 18.4309 34.469 18.6163ZM22.2292 23.9951C20.5992 25.2517 19.7225 27.6223 20.4032 28.9324C20.7062 29.5156 20.9382 29.7243 21.6238 30.0305C22.8551 30.5804 24.4812 30.1986 25.167 29.1987C25.7549 28.3414 25.5891 26.9489 25.1339 26.0648C24.939 25.6863 24.5585 25.1236 24.2882 24.8142C23.8245 24.2834 22.9995 23.5987 22.8236 23.5987C22.7794 23.5987 22.512 23.7771 22.2292 23.9951Z" fill="#331F07"/>
</svg>
