<svg width="82" height="60" viewBox="0 0 82 60" fill="none" xmlns="http://www.w3.org/2000/svg">
<path d="M40.5734 60C37.9654 60 35.5556 58.914 33.9607 57.018C32.6955 55.515 31.3479 52.815 32.0994 48.5051C32.6322 45.4461 34.9936 42.0716 38.4014 38.6488C34.8239 35.4684 30.3444 32.1815 25.6462 29.0642C20.5023 40.8453 26.5141 50.9292 26.8003 51.3945L24.8851 53.4452C16.6625 49.1258 12.7941 41.2036 10.9907 35.3179C8.42085 26.9213 0.0872065 14.1709 1.53191e-07 14.0449L1.86675 11.9456C2.75857 12.3917 13.502 17.7827 24.5315 24.8464C24.7496 24.4682 24.9819 24.0901 25.2244 23.7119C31.4249 13.9964 39.2258 0.14062 39.3035 -4.28695e-07L41.8386 -4.56346e-07C41.9163 0.14062 49.7172 14.0012 55.9177 23.7119C56.1452 24.0658 56.3639 24.4197 56.5676 24.7737C67.606 17.7342 78.3835 12.382 79.276 11.9408L81.1373 14.0449C81.0549 14.1709 72.7164 26.9165 70.1466 35.3179C68.348 41.2036 64.4748 49.1258 56.2522 53.4452L54.337 51.3945C54.6232 50.9292 60.6643 40.8017 55.4523 28.9818C50.7009 32.1233 46.1778 35.4296 42.5853 38.6392C46.0225 42.0621 48.4322 45.4311 49.0331 48.4758C49.8868 52.7857 48.6066 55.4619 47.3851 56.9505C45.7949 58.8895 43.3075 60 40.5686 60L40.5734 60ZM40.4958 40.6075C37.451 43.6325 35.3956 46.5123 34.9643 49.0093C34.5228 51.5498 34.9452 53.6728 36.1859 55.1519C37.2235 56.3878 38.8232 57.0956 40.5686 57.0956C42.4354 57.0956 44.1032 56.3734 45.1402 55.1083C46.3236 53.668 46.682 51.5737 46.1826 49.0433C45.688 46.5416 43.5841 43.6474 40.4958 40.6075ZM5.25078 16.9731C8.01413 21.5836 12.0474 28.8267 13.7732 34.4697C15.0724 38.7264 17.5455 44.1414 22.1845 48.1175C20.6141 43.424 19.3537 35.7934 23.1785 27.4547C16.8322 23.3726 10.3121 19.6686 5.25078 16.9731ZM57.9248 27.3771C61.7884 35.7451 60.528 43.4097 58.9528 48.1175C63.5925 44.1414 66.0649 38.7264 67.3642 34.4697C69.0947 28.8121 73.1429 21.5449 75.9063 16.9391C70.8306 19.6201 64.2854 23.3095 57.9248 27.3771ZM26.9699 26.4365C31.8371 29.6557 36.6178 33.1608 40.491 36.656C44.3792 33.1269 49.2028 29.6023 54.1238 26.359C53.9153 26.0002 53.6973 25.6366 53.4643 25.2778C48.7184 17.8409 43.0506 8.00902 40.5686 3.66028C38.0867 8.00902 32.419 17.8409 27.673 25.2778C27.4257 25.6657 27.1927 26.0487 26.9699 26.4365Z" fill="white"/>
</svg>
