<svg width="202" height="42" viewBox="0 0 202 42" fill="none" xmlns="http://www.w3.org/2000/svg">
<path d="M46.8447 13.6017H52.5499C53.9108 13.5737 55.2577 13.8879 56.4734 14.5169C57.5724 15.0924 58.4894 15.9772 59.1171 17.0682C59.7337 18.2103 60.0573 19.4949 60.0573 20.801C60.0573 22.107 59.7337 23.3916 59.1171 24.5338C58.4893 25.6241 57.5723 26.5082 56.4734 27.0829C55.258 27.7129 53.9109 28.0271 52.5499 27.9981H46.8447V13.6017ZM52.4697 26.6813C53.5881 26.7079 54.6956 26.4501 55.6936 25.9309C56.5836 25.4602 57.3261 24.7407 57.8354 23.8553C58.3347 22.919 58.5965 21.8686 58.5965 20.801C58.5965 19.7334 58.3347 18.6829 57.8354 17.7467C57.3256 16.8612 56.5833 16.1411 55.6936 15.6689C54.695 15.1516 53.5878 14.8946 52.4697 14.9206H48.3261V26.6834L52.4697 26.6813Z" fill="white"/>
<path d="M73.9351 27.9957L70.4954 23.3733C70.0955 23.4145 69.6936 23.4349 69.2914 23.4346H65.2508V28H63.6602V13.6H69.2914C71.206 13.6 72.7105 14.0389 73.8048 14.9168C74.8991 15.7946 75.444 17.0015 75.4396 18.5374C75.4905 19.554 75.1767 20.5567 74.5503 21.3794C73.9239 22.202 73.0225 22.7951 71.9955 23.0605L75.6716 27.9957H73.9351ZM72.6582 21.1899C73.4447 20.5587 73.8387 19.6745 73.8401 18.5374C73.8401 17.3706 73.4462 16.4759 72.6582 15.8531C71.8703 15.2303 70.734 14.9189 69.2494 14.9189H65.2508V22.1368H69.2494C70.7384 22.1354 71.8747 21.8198 72.6582 21.1899Z" fill="white"/>
<path d="M77.2218 27.647C77.1081 27.5343 77.0187 27.4003 76.9589 27.2531C76.899 27.1058 76.87 26.9483 76.8735 26.7898C76.8691 26.6325 76.8978 26.4761 76.9577 26.3302C77.0176 26.1843 77.1075 26.052 77.2218 25.9416C77.3309 25.8319 77.4616 25.745 77.6059 25.6863C77.7503 25.6276 77.9053 25.5982 78.0615 25.6001C78.2198 25.5985 78.3769 25.6279 78.5234 25.6865C78.67 25.7452 78.8031 25.8319 78.9151 25.9416C79.0323 26.0504 79.1249 26.1821 79.1869 26.3282C79.2488 26.4744 79.2789 26.6316 79.275 26.7898C79.278 26.9492 79.2477 27.1076 79.1858 27.255C79.1239 27.4025 79.0318 27.5359 78.9151 27.647C78.805 27.7599 78.6725 27.8495 78.5256 27.9102C78.3788 27.9709 78.2209 28.0014 78.0615 27.9999C77.9042 28.002 77.7481 27.9717 77.6035 27.9109C77.4588 27.8501 77.3288 27.7602 77.2218 27.647Z" fill="white"/>
<path d="M88.7768 27.4778C87.9141 27.2168 87.1277 26.7598 86.4824 26.1447L87.0843 24.9923C87.6836 25.5492 88.3992 25.9741 89.1823 26.2381C90.0458 26.5522 90.9603 26.7126 91.8821 26.7116C93.1812 26.7116 94.1573 26.4797 94.8104 26.016C95.1142 25.8168 95.3625 25.5472 95.5327 25.2315C95.703 24.9158 95.7899 24.5639 95.7857 24.2074C95.798 23.9585 95.7574 23.7098 95.6663 23.4768C95.5752 23.2439 95.4357 23.0317 95.2564 22.8536C94.8859 22.507 94.4435 22.2415 93.9588 22.075C93.2584 21.8406 92.546 21.6417 91.8245 21.4791C90.9352 21.2741 90.0599 21.0154 89.2036 20.7046C88.5596 20.4603 87.9857 20.0685 87.5304 19.5626C87.0679 19.0518 86.836 18.3597 86.8346 17.4862C86.8283 16.7948 87.0309 16.1168 87.4172 15.5365C87.8566 14.9057 88.4782 14.4158 89.2036 14.1287C90.1507 13.7516 91.1688 13.5726 92.1916 13.6034C93.0167 13.6023 93.8379 13.7142 94.6311 13.9356C95.3664 14.1312 96.0642 14.4419 96.6971 14.8554L96.172 16.0576C95.5701 15.6711 94.9118 15.375 94.2192 15.1793C93.5588 14.9886 92.874 14.8901 92.1852 14.8866C90.9046 14.8866 89.9456 15.1253 89.3082 15.6029C89.0051 15.8115 88.7589 16.0887 88.5908 16.4108C88.4227 16.7328 88.3378 17.0898 88.3435 17.4509C88.3313 17.7014 88.3719 17.9517 88.4629 18.1863C88.554 18.4209 88.6935 18.6349 88.8728 18.8151C89.2481 19.1725 89.7021 19.4424 90.2003 19.6041C90.7339 19.7854 91.4503 19.9841 92.3495 20.2C93.2272 20.399 94.0911 20.6515 94.9363 20.9558C95.579 21.1964 96.1524 21.5846 96.6074 22.0875C97.0642 22.5941 97.2925 23.2779 97.2925 24.1389C97.2994 24.8316 97.0936 25.5105 96.7013 26.0886C96.251 26.7177 95.6189 27.2026 94.8851 27.4819C93.9276 27.8508 92.903 28.026 91.8736 27.9968C90.8186 27.995 89.7716 27.8195 88.7768 27.4778Z" fill="white"/>
<path d="M106.437 13.6H104.962L98.4937 28H100.05L101.747 24.1536H101.756L102.3 22.9187H102.294L105.689 15.1838L109.084 22.9166L109.086 22.9187L109.631 24.1536H109.633L111.33 28H112.907L106.437 13.6Z" fill="white"/>
<path d="M194.12 13.6H192.645L186.177 28H187.733L189.431 24.1536H189.439L189.981 22.9187H189.975L193.372 15.1838L196.767 22.9166L196.769 22.9187L197.314 24.1536L199.013 28H200.59L194.12 13.6Z" fill="white"/>
<path d="M115.31 13.6017H121.013C122.373 13.5739 123.72 13.8881 124.935 14.5169C126.035 15.0921 126.953 15.9769 127.582 17.0682C128.199 18.2103 128.522 19.4949 128.522 20.801C128.522 22.107 128.199 23.3916 127.582 24.5338C126.955 25.6236 126.039 26.5076 124.941 27.0829C123.726 27.7127 122.38 28.0269 121.019 27.9982H115.31V13.6017ZM120.933 26.6813C122.05 26.7075 123.157 26.4498 124.154 25.931C125.044 25.4613 125.787 24.7416 126.295 23.8553C126.794 22.919 127.056 21.8686 127.056 20.801C127.056 19.7334 126.794 18.6829 126.295 17.7467C125.786 16.8602 125.044 16.1398 124.154 15.6689C123.156 15.1516 122.05 14.8946 120.933 14.9206H116.79V26.6834L120.933 26.6813Z" fill="white"/>
<path d="M136.42 23.0231V28H135.036V23.0231L129.723 13.6H131.223L135.777 21.6848L140.33 13.6H141.735L136.42 23.0231Z" fill="white"/>
<path d="M148.546 21.2323L145.641 24.2134V28H144.137V13.6H145.641V22.3021L153.992 13.6H155.72L149.562 20.1203L156.148 28H154.358L148.546 21.2323Z" fill="white"/>
<path d="M159.961 27.0513C158.795 26.4532 157.825 25.5608 157.157 24.4722C156.496 23.348 156.148 22.0811 156.148 20.7927C156.148 19.5043 156.496 18.2374 157.157 17.1132C157.825 16.0246 158.795 15.1322 159.961 14.5341C161.194 13.9205 162.564 13.6 163.956 13.6C165.347 13.6 166.718 13.9205 167.951 14.5341C169.112 15.1351 170.077 16.0271 170.744 17.1132C171.412 18.2389 171.763 19.51 171.763 20.8031C171.763 22.0962 171.412 23.3672 170.744 24.493C170.076 25.5768 169.111 26.4665 167.951 27.0658C166.718 27.6795 165.347 28 163.956 28C162.564 28 161.194 27.6795 159.961 27.0658M167.154 25.9124C168.087 25.4217 168.859 24.6935 169.383 23.8093C169.914 22.8894 170.193 21.8568 170.193 20.8072C170.193 19.7577 169.914 18.7251 169.383 17.8052C168.859 16.921 168.087 16.1928 167.154 15.7021C166.171 15.2041 165.075 14.9437 163.961 14.9437C162.848 14.9437 161.752 15.2041 160.769 15.7021C159.828 16.1914 159.049 16.9195 158.518 17.8052C157.981 18.7233 157.699 19.7566 157.699 20.8072C157.699 21.8579 157.981 22.8912 158.518 23.8093C159.053 24.6905 159.835 25.4134 160.775 25.8979C161.758 26.3959 162.854 26.6563 163.968 26.6563C165.081 26.6563 166.178 26.3959 167.16 25.8979L167.154 25.9124Z" fill="white"/>
<path d="M186.177 13.6L179.729 28H178.211L171.763 13.6H173.426L179.002 26.1075L184.616 13.6H186.177Z" fill="white"/>
<path d="M17.4363 33.9997C16.8982 34.0068 16.365 33.8986 15.8743 33.6826C15.3836 33.4667 14.9472 33.1483 14.5959 32.7498C14.0524 32.1168 13.4734 30.9851 13.7962 29.1755C14.0253 27.8911 15.0457 26.4744 16.5034 25.0373C14.7732 23.5752 12.9426 22.2307 11.0245 21.0131C8.815 25.9573 11.3972 30.1912 11.5201 30.3764L10.6871 31.2375C7.14696 29.4259 5.4935 26.0998 4.71883 23.6267C3.61513 20.1012 0.0354016 14.7498 0 14.6948L0.799661 13.8135C1.18283 14.0007 5.79754 16.2561 10.5351 19.23C10.6288 19.0732 10.7288 18.9145 10.8329 18.7557C13.4963 14.6847 16.847 8.85698 16.872 8.79999H17.9611C17.9944 8.85698 21.3451 14.6765 24.0002 18.7557C24.0974 18.905 24.1911 19.0536 24.2813 19.2015C29.0231 16.2459 33.6524 13.9987 34.0355 13.8135L34.8331 14.6948C34.7977 14.7498 31.2159 20.1012 30.1143 23.6267C29.3396 26.0998 27.6778 29.4259 24.146 31.2375L23.3234 30.3764C23.4463 30.1729 26.0306 25.9288 23.8024 20.9663C21.8655 22.1901 20.0187 23.545 18.2756 25.021C19.752 26.4581 20.787 27.8707 21.0452 29.1511C21.4117 30.9606 20.862 32.0842 20.3372 32.7091C19.9804 33.1194 19.5355 33.4477 19.0341 33.6708C18.5327 33.8938 17.9872 34.0061 17.4363 33.9997ZM17.403 25.8576C16.0952 27.1278 15.2123 28.3369 15.0269 29.3851C14.8416 30.4334 15.0269 31.3433 15.5517 31.9641C15.785 32.2246 16.0734 32.4324 16.3971 32.573C16.7207 32.7136 17.0718 32.7837 17.4259 32.7783C17.7959 32.7904 18.164 32.722 18.5036 32.578C18.8432 32.434 19.1459 32.2181 19.3897 31.9458C19.8978 31.3352 20.0519 30.4599 19.8374 29.3994C19.6229 28.3389 18.7212 27.1339 17.3947 25.8576H17.403ZM24.8998 20.3027C26.1898 23.0413 26.3473 26.1612 25.3392 29.0106C27.3321 27.3415 28.3942 25.0678 28.9544 23.2806C29.6978 20.9052 31.4366 17.854 32.6236 15.9202C30.4246 17.0459 27.6153 18.5949 24.8832 20.3027H24.8998ZM2.25529 15.9345C3.44229 17.8682 5.17072 20.9113 5.91623 23.2806C6.47641 25.0678 7.53638 27.3517 9.52928 29.0106C8.5245 26.1737 8.67361 23.0678 9.94577 20.3352C7.23234 18.6213 4.42937 17.0662 2.25529 15.9345ZM11.5847 19.9078C13.6245 21.1995 15.5662 22.6335 17.3947 24.1987C19.233 22.6176 21.1897 21.1731 23.2484 19.8773C23.1589 19.7246 23.0652 19.574 22.9673 19.4213C20.9286 16.3009 18.4921 12.1728 17.4363 10.347C16.3722 12.1789 13.9357 16.3009 11.897 19.4213C11.7804 19.5841 11.6805 19.747 11.5847 19.9078Z" fill="white"/>
</svg>
