<svg width="241" height="40" viewBox="0 0 241 40" fill="none" xmlns="http://www.w3.org/2000/svg">
<path fill-rule="evenodd" clip-rule="evenodd" d="M28.3183 2.08965C28.7459 3.14577 29.4162 4.81224 29.8075 5.79293C31.6536 10.4187 33.3007 14.4431 33.384 14.5313C33.4876 14.6409 33.9442 14.3616 39.3827 10.8638C43.0287 8.51881 44.8854 7.37025 45.0302 7.37025C45.065 7.37025 45.0518 7.53991 45.001 7.74743C44.8849 8.22159 43.055 13.3335 42.4111 14.9825C41.7385 16.7053 40.877 19.308 40.877 19.6173C40.877 19.8389 40.9498 19.8643 41.3864 19.7953C44.3483 19.3274 53.8458 19.353 54.6919 19.831C54.833 19.9106 54.6499 20.0684 54.0289 20.4019C52.8597 21.03 48.9624 23.4541 47.1684 24.6692C42.8958 27.5631 40.6272 29.5765 37.178 33.5357C35.9774 34.9137 34.9773 36.0232 34.9554 36.0013C34.9201 35.9655 35.0928 35.1052 35.788 31.853C36.061 30.5768 37.3363 24.2916 37.4367 23.7286L37.5157 23.285L36.785 23.5038C35.0173 24.0333 30.3796 26.1988 29.5534 26.8806L29.1654 27.2008L30.1051 28.1552C31.5564 29.6296 32.299 31.1844 32.6019 33.383C33.1953 37.6909 29.6811 40.9619 25.7699 39.7421C22.4042 38.6924 21.1214 35.0468 22.6809 30.9636C23.1473 29.7427 24.1752 28.288 24.9754 27.7162C25.2753 27.5021 25.5217 27.2959 25.5232 27.2582C25.5293 27.0994 24.1161 26.2541 22.4698 25.4318C20.614 24.5049 18.3079 23.5792 17.5422 23.4537C17.1199 23.3845 17.0945 23.4017 17.1672 23.7072C17.2101 23.8876 17.5471 25.5163 17.9161 27.3268C18.7415 31.3776 19.5237 35.1683 19.6276 35.6212L19.7053 35.9604L19.4048 35.6898C19.2397 35.5409 18.5251 34.7183 17.8171 33.8617C13.8262 29.0339 10.1519 26.1112 1.83991 21.1527C0.329568 20.2518 -0.126738 19.9187 0.028806 19.831C0.392467 19.6255 3.35446 19.4446 6.37202 19.4435C9.00186 19.4427 11.0401 19.5473 13.1486 19.7913C13.862 19.8739 13.8781 19.8681 13.8087 19.5553C13.7694 19.3787 13.2064 17.7223 12.5575 15.8741C9.2525 6.46116 9.52501 7.28878 9.78067 7.44198C10.5517 7.90407 14.311 10.2698 16.1805 11.4692C17.4286 12.27 18.8957 13.1936 19.4408 13.5218C19.986 13.8499 20.6239 14.2365 20.8585 14.3808L21.2848 14.6431L21.632 13.7842C21.8229 13.3117 22.3853 11.9376 22.8818 10.7306C23.7885 8.52622 24.8045 6.02952 26.3335 2.24752C27.2737 -0.07773 27.285 -0.100224 27.4319 0.0546279C27.4916 0.117721 27.8906 1.03353 28.3183 2.08965ZM25.7968 12.1365C25.029 13.6265 24.1353 15.3202 23.8106 15.9005C23.4859 16.481 23.0701 17.2987 22.8864 17.7179C22.67 18.2121 22.4714 18.4801 22.3215 18.4801C22.1943 18.4801 21.0448 17.9147 19.7669 17.2238C15.4991 14.9163 15.2414 14.8025 15.3949 15.2911C15.4364 15.4232 15.6874 16.6106 15.9529 17.9301C16.2183 19.2494 16.4788 20.3667 16.532 20.4129C16.5849 20.4591 17.2703 20.7298 18.0548 21.0141C20.5235 21.9092 23.3358 23.4131 25.5682 25.032C27.2452 26.2482 27.3362 26.2817 27.8728 25.8788C30.7684 23.705 34.3247 21.7582 37.1073 20.8232C37.6002 20.6576 38.0595 20.4483 38.1279 20.3583C38.1962 20.2682 38.3615 19.6391 38.4955 18.9601C38.6293 18.2812 38.8766 17.124 39.045 16.3884C39.2134 15.6528 39.3198 15.0511 39.2813 15.0511C39.201 15.0511 33.0416 18.176 32.7102 18.3849C32.2108 18.6997 32.1387 18.5836 29.0544 12.5137C27.6271 9.70455 27.4691 9.42762 27.2938 9.42762C27.2381 9.42762 26.5645 10.6466 25.7968 12.1365ZM9.85729 22.165C9.64999 22.2474 9.96257 22.6053 11.6765 24.247C14.6582 27.1031 16.7258 29.7042 17.995 32.1959C18.6592 33.4996 18.5198 32.6186 17.7099 30.3935C17.2882 29.2348 16.6409 27.4228 16.2713 26.3667C14.9303 22.5354 14.9686 22.6158 14.4099 22.4641C13.0777 22.1024 10.4494 21.9298 9.85729 22.165ZM41.2166 22.2606C39.8884 22.5241 39.7162 22.6276 39.4794 23.3045C39.3652 23.6308 38.7714 25.2866 38.1598 26.9839C36.8224 30.6953 36.1215 32.7476 36.1248 32.9429C36.1262 33.0224 36.2968 32.7788 36.5038 32.4017C37.9576 29.754 39.9611 27.2268 42.7557 24.5153C44.57 22.7549 44.9798 22.2914 44.8165 22.1842C44.5245 21.9924 42.3345 22.0389 41.2166 22.2606ZM26.5808 28.6924C24.6317 30.1949 23.5833 33.0296 24.3973 34.5962C24.7596 35.2935 25.037 35.5431 25.8569 35.9092C27.3292 36.5668 29.2737 36.1103 30.0936 34.9145C30.7967 33.8894 30.5984 32.2244 30.0541 31.1672C29.821 30.7146 29.366 30.0417 29.0429 29.6718C28.4883 29.037 27.5018 28.2183 27.2915 28.2183C27.2387 28.2183 26.9189 28.4316 26.5808 28.6924Z" fill="white"/>
<path d="M71.5329 20.6419C71.5743 20.391 71.657 19.9187 71.7259 19.6826C71.8775 19.107 71.9051 19.0775 71.9051 19.0332C71.9051 18.9742 71.8637 18.9594 71.8086 18.9594C71.6845 18.9594 71.6707 19.0627 71.6432 19.1365C71.5329 19.5203 71.1332 20.0663 70.8988 20.2729C70.4026 20.7009 69.7685 20.8338 69.162 20.8338C67.8662 20.8338 66.9978 20.1549 66.4602 19.4022C65.8813 18.6052 65.5918 17.5279 65.5918 16.4505C65.5918 15.9487 65.6469 15.4469 65.7848 14.9599C65.9226 14.4729 66.1294 14.0006 66.4327 13.6021C67.177 12.5985 68.1833 12.3624 68.8863 12.3624C69.6031 12.3624 70.4991 12.6723 70.9402 12.9675C71.3951 13.2627 71.3951 13.5136 71.3951 13.7349V14.0154C71.3951 14.0744 71.3951 14.1629 71.4915 14.1629C71.6156 14.1629 71.6156 13.9711 71.6294 13.8087C71.657 13.5578 71.6845 13.2479 71.781 12.8052C71.8362 12.5543 71.8637 12.51 71.8637 12.4657C71.8637 12.4214 71.8362 12.3772 71.781 12.3772C71.7535 12.3772 71.5467 12.4362 71.4502 12.4362C71.2986 12.4362 71.1194 12.3772 70.8988 12.3181C70.3199 12.141 69.7271 12.0377 69.1344 12.0377C67.8387 12.0377 66.7359 12.4952 65.9502 13.2036C64.8061 14.2515 64.5442 15.624 64.5442 16.5833C64.5442 17.8526 64.9991 18.9447 65.6607 19.6974C66.4051 20.5386 67.6043 21.1585 69.0931 21.1585C69.6306 21.1585 70.0166 21.0699 70.4164 20.9666L71.5329 20.6419Z" fill="white"/>
<path d="M73.0014 16.5686C73.0014 17.705 73.3736 19.0037 74.4212 20.0368C75.2482 20.8485 76.2959 21.2322 77.3435 21.2322C78.8046 21.2322 79.7695 20.5386 80.2933 20.0516C81.5202 18.8856 81.7407 17.4393 81.7407 16.5538C81.7407 15.1518 81.1755 13.8087 80.1831 12.9675C79.4249 12.3181 78.4462 11.9787 77.44 11.9787C76.2269 11.9787 75.0553 12.51 74.2558 13.366C73.5665 14.0891 73.0014 15.1813 73.0014 16.5686ZM77.0816 12.451C78.1843 12.451 79.0114 12.9527 79.673 13.7349C80.5277 14.7385 80.8585 15.993 80.8585 17.0999C80.8585 18.4429 80.376 19.4022 79.8109 19.9483C79.3422 20.4058 78.6392 20.7305 77.7984 20.7305C77.3573 20.7305 75.9099 20.6271 74.8209 19.048C74.435 18.4724 73.8836 17.4541 73.8836 16.0668C73.8836 15.1518 74.0628 14.2367 74.752 13.4693C75.2207 12.938 75.9926 12.451 77.0816 12.451Z" fill="white"/>
<path d="M83.4362 21.0109C83.45 20.9666 83.4775 20.9223 83.5878 20.9223C83.7119 20.9223 84.1806 21.0404 84.4562 21.0994C84.8422 21.1732 85.4349 21.2322 85.7382 21.2322C86.455 21.2322 87.0891 21.0551 87.6129 20.6419C88.1091 20.2434 88.4399 19.6678 88.4399 18.8561C88.4399 18.2953 88.2883 17.8083 87.9437 17.3655C87.5991 16.9228 87.1856 16.6424 86.7307 16.421L85.9863 16.0815C85.5314 15.8749 84.8146 15.5798 84.4425 15.1518C84.1806 14.8418 84.0565 14.4876 84.0565 14.0449C84.0565 13.3217 84.346 12.8642 84.6354 12.6281C84.8973 12.4067 85.2557 12.2296 85.7933 12.2296C86.4963 12.2296 87.2958 12.4805 87.7094 13.2036C88.0126 13.7202 87.9575 14.0596 88.0678 14.0596H88.0953C88.1367 14.0596 88.178 14.0449 88.178 13.9711C88.178 13.8087 88.0816 13.7497 88.0816 13.0265C88.0816 12.8052 88.1091 12.5395 88.1505 12.3329C88.178 12.2148 88.1918 12.1853 88.1918 12.141C88.1918 12.0672 88.1367 12.0377 88.1091 12.0377C88.054 12.0377 88.0126 12.0968 87.9161 12.141C87.8196 12.1853 87.7094 12.2296 87.5577 12.2296C87.3372 12.2296 87.1029 12.141 86.841 12.082C86.579 12.023 86.2207 11.9787 85.945 11.9787C85.2006 11.9787 84.47 12.2296 83.96 12.7461C83.5878 13.1298 83.2846 13.7054 83.2846 14.4581C83.2846 15.2108 83.574 15.6978 84.0014 16.0815C84.1392 16.2144 84.4838 16.48 85.242 16.8342L85.6555 17.0261C86.3034 17.336 86.7169 17.5131 87.0339 17.7788C87.5026 18.1625 87.6404 18.6052 87.6404 19.1808C87.6404 19.8154 87.4061 20.1992 87.2131 20.4058C87.0477 20.5829 86.6618 20.8928 85.8898 20.8928C85.242 20.8928 84.3873 20.6862 83.8222 20.2582C83.5189 20.022 83.3948 19.8154 83.2983 19.535C83.2432 19.3579 83.1605 19.0627 83.1329 18.9152C83.1192 18.8414 83.1054 18.7676 83.0227 18.7676C82.9675 18.7676 82.8986 18.7971 82.8986 18.8856C82.8986 18.9742 82.9537 19.0775 83.0502 19.535C83.1329 19.9483 83.2156 20.3467 83.2156 21.1437H83.3811C83.3948 21.0994 83.4086 21.0551 83.4362 21.0109Z" fill="white"/>
<path d="M91.5061 12.141C91.258 12.1558 90.9272 12.1705 90.555 12.1705C89.9898 12.1705 89.3557 12.1263 89.1903 12.1263C89.1214 12.1263 89.0938 12.1263 89.0938 12.2001C89.0938 12.2886 89.1903 12.2739 89.4522 12.3181C89.7555 12.3772 90.1415 12.4952 90.3482 12.7756C90.5274 13.0265 90.6101 13.4841 90.6101 14.3696C90.6101 15.6683 90.555 17.0113 90.4723 18.2363C90.3482 20.0811 90.2655 20.3025 90.0725 20.5238C89.9071 20.7009 89.7141 20.8338 89.3006 20.9076C89.2455 20.9223 89.0525 20.9371 89.0525 21.0551C89.0525 21.1142 89.0801 21.1437 89.1214 21.1437C89.1766 21.1437 89.466 21.0994 89.6314 21.0847C89.9623 21.0551 90.2517 21.0404 90.7066 21.0404C90.9272 21.0404 91.1477 21.0551 91.3683 21.0699C91.5199 21.0847 91.6715 21.0994 91.8232 21.0994H91.961C92.0161 21.0994 92.0437 21.0699 92.0437 21.0256C92.0437 20.9371 91.9197 20.9076 91.8921 20.9076L91.3821 20.7895C91.2167 20.7452 91.0375 20.6714 90.9272 20.4205C90.8307 20.1991 90.8169 19.9187 90.8169 19.3579V19.0923C90.8169 18.1477 90.8445 16.5095 91.0512 13.6169L91.1064 13.6021C91.8645 15.1222 92.7881 17.0408 93.8357 19.3284C93.9873 19.6531 94.2492 20.2287 94.3733 20.7157C94.456 21.0404 94.4973 21.0551 94.5111 21.0551C94.5938 21.0551 94.8282 20.3763 95.0487 19.8302L95.7104 18.2658C96.4134 16.6866 97.1164 15.1813 97.9848 13.5578L98.0399 13.5726C98.0675 15.0632 98.0951 17.6607 98.0951 18.6495C98.0951 19.4317 98.0813 19.8745 97.9572 20.1991C97.8607 20.4353 97.6816 20.6862 97.3369 20.819C97.1164 20.9076 97.1026 20.8633 96.8683 20.9223C96.7993 20.9371 96.7718 20.9518 96.7718 21.0256C96.7718 21.1437 96.8269 21.1437 96.8958 21.1437C97.1026 21.1437 97.3507 21.0994 97.654 21.0699C98.0813 21.0404 98.743 21.0256 99.0462 21.0256C99.57 21.0256 99.7216 21.0699 100.025 21.0699C100.052 21.0699 100.135 21.0699 100.135 20.9813C100.135 20.8928 100.039 20.8633 99.9973 20.8633L99.7079 20.8338C99.5424 20.819 99.377 20.76 99.253 20.5976C99.1565 20.4648 99.1151 20.3025 99.0876 20.1254C98.9221 19.1956 98.8946 17.9411 98.8946 14.5319C98.8946 13.1889 98.9497 12.5838 99.253 12.4657C99.3633 12.4214 99.5838 12.4067 99.7079 12.4067C100.08 12.3919 100.108 12.2886 100.108 12.2296C100.108 12.1853 100.094 12.1558 99.956 12.1558C99.8457 12.1558 99.377 12.2001 99.1151 12.2001C98.743 12.2001 98.4673 12.1853 98.2467 12.1705L97.6402 13.4545C96.7029 15.4322 95.8758 17.2622 94.966 18.989C94.9109 19.107 94.8557 19.1808 94.8144 19.1808C94.7455 19.1808 94.7041 19.0332 94.6628 18.9447L93.7116 17.0261C92.7881 15.1665 92.1402 13.9858 91.5061 12.141Z" fill="white"/>
<path d="M106.956 12.141H106.336C103.827 12.141 103.441 12.2001 102.146 12.2001C101.36 12.2001 101.305 12.141 100.946 12.141C100.905 12.141 100.822 12.141 100.822 12.2296C100.822 12.2886 100.864 12.3181 100.905 12.3329C101.015 12.3772 101.181 12.3772 101.36 12.4805C101.663 12.6428 101.732 12.9085 101.732 14.1187V15.4912C101.732 19.5941 101.608 20.5091 101.498 20.6862C101.415 20.819 101.153 20.8633 101.029 20.8928C100.905 20.9223 100.753 20.9371 100.753 21.0551C100.753 21.1437 100.836 21.1437 100.877 21.1437C101.015 21.1437 101.112 21.1142 101.498 21.0994C102.311 21.0551 102.904 21.0256 103.896 21.0256C104.958 21.0256 106.295 21.0699 106.901 21.0847C106.998 20.8485 107.177 20.4058 107.329 19.8597C107.397 19.6236 107.466 19.3284 107.466 19.1365C107.466 19.0627 107.453 19.0185 107.384 19.0185C107.342 19.0185 107.315 19.0627 107.301 19.0923C107.191 19.3284 107.218 19.3579 107.08 19.5941C106.915 19.8745 106.694 20.1254 106.433 20.3025C105.84 20.6862 104.985 20.7305 104.323 20.7305C103.703 20.7305 103.193 20.6714 102.683 20.5829C102.614 19.535 102.614 18.8856 102.614 17.8968V17.0261C102.614 16.8933 102.628 16.7899 102.697 16.7309C102.78 16.6719 102.959 16.6571 103.441 16.6571H104.186C105.04 16.6571 105.302 16.6866 105.481 16.7309C105.564 16.7457 105.647 16.7752 105.716 16.8195C105.922 16.9375 105.991 17.0704 106.047 17.2917C106.115 17.5426 106.129 17.7935 106.143 17.823C106.157 17.8526 106.171 17.9116 106.24 17.9116C106.281 17.9116 106.295 17.8821 106.308 17.8526C106.322 17.8083 106.322 17.7788 106.322 17.7345L106.308 17.5131C106.295 17.2475 106.253 17.1589 106.253 16.5686C106.253 15.993 106.336 15.8011 106.336 15.4617C106.336 15.4322 106.336 15.3584 106.267 15.3584C106.226 15.3584 106.171 15.4027 106.157 15.4469L106.088 15.7273C105.991 16.052 105.785 16.1996 105.495 16.2439C104.944 16.3324 104.682 16.3324 104.117 16.3324H103.221C102.89 16.3324 102.752 16.3177 102.683 16.2586C102.614 16.1996 102.614 16.0963 102.614 16.0225V15.7421C102.614 14.8566 102.628 14.2072 102.711 12.5838C103.028 12.5395 103.538 12.4657 104.379 12.4657C104.627 12.4657 105.412 12.4657 105.812 12.5395C106.46 12.6576 106.515 12.938 106.515 13.1003C106.515 13.1889 106.501 13.3807 106.488 13.4545C106.474 13.5578 106.446 13.6169 106.446 13.6759C106.446 13.7645 106.515 13.794 106.57 13.794C106.75 13.794 106.75 13.2627 106.791 12.997C106.832 12.7166 106.86 12.5248 106.956 12.141Z" fill="white"/>
<path d="M116.071 12.0377C115.974 12.1115 115.905 12.1263 115.795 12.141C115.533 12.1705 115.243 12.1705 114.968 12.1705C114.637 12.1705 113.893 12.1558 113.355 12.1558C113.079 12.1558 112.431 12.141 111.977 12.141C110.901 12.141 110.695 12.1853 109.468 12.1853C109.054 12.1853 108.765 12.1705 108.503 11.9787C108.434 11.9344 108.42 11.8901 108.379 11.8901C108.282 11.8901 108.282 12.141 108.241 12.2886C108.172 12.569 108.062 12.8052 107.979 13.0413C107.883 13.2922 107.8 13.3807 107.8 13.4841C107.8 13.5874 107.91 13.5874 107.938 13.5874C107.993 13.5874 108.007 13.5431 108.02 13.4988C108.076 13.3217 108.117 13.2036 108.172 13.1151C108.241 12.997 108.324 12.9085 108.475 12.8347C108.958 12.5838 109.785 12.569 110.088 12.569C110.639 12.569 111.094 12.5838 111.48 12.6133C111.522 13.2184 111.549 13.8235 111.549 14.4581V15.8454C111.549 20.0073 111.508 20.4648 111.384 20.6271C111.342 20.6862 111.287 20.7157 111.218 20.7452C111.039 20.819 110.846 20.8338 110.46 20.8928C110.364 20.9076 110.254 20.9223 110.254 21.0551C110.254 21.1585 110.309 21.1585 110.35 21.1585C110.446 21.1585 110.791 21.0994 110.998 21.0699C111.342 21.0256 111.852 20.9813 112.307 20.9813C112.831 20.9813 113.548 21.0699 113.644 21.0699C113.741 21.0699 113.769 21.0699 113.769 20.9223C113.769 20.8042 113.686 20.8042 113.617 20.8042C113.327 20.8042 112.817 20.7895 112.638 20.5091C112.583 20.4205 112.556 20.2729 112.528 19.963C112.487 19.535 112.487 19.0923 112.473 18.6495C112.459 17.7345 112.459 16.8342 112.459 15.934C112.459 14.7828 112.459 14.1334 112.528 12.5838C112.776 12.569 113.107 12.5543 113.438 12.5543C114.03 12.5543 114.665 12.5985 115.037 12.6871C115.505 12.8052 115.629 13.0265 115.629 13.2332C115.629 13.3217 115.588 13.4693 115.588 13.5726C115.588 13.6316 115.616 13.6612 115.698 13.6612C115.767 13.6612 115.795 13.6464 115.809 13.5431L115.891 13.1003C115.946 12.8199 116.015 12.5395 116.167 12.1558L116.071 12.0377Z" fill="white"/>
<path d="M119.826 12.0968C119.412 12.0968 119.15 12.1558 118.889 12.1705C118.627 12.2001 118.255 12.2148 118.02 12.2148C117.62 12.2148 117.055 12.1705 116.724 12.1705C116.656 12.1705 116.545 12.1705 116.545 12.2886C116.545 12.4067 116.724 12.4067 116.821 12.4067C116.986 12.4067 117.317 12.4805 117.427 12.5543C117.593 12.6576 117.662 12.8937 117.689 13.0118C117.772 13.3365 117.8 13.6612 117.813 14.0006C117.855 14.6942 117.855 15.3731 117.855 16.0668V17.1589C117.855 19.5941 117.786 20.0516 117.703 20.2877C117.662 20.4058 117.607 20.5238 117.51 20.6124C117.372 20.7452 117.138 20.8042 116.973 20.8338C116.78 20.8633 116.628 20.8338 116.545 20.878C116.504 20.8928 116.476 20.9518 116.476 20.9961C116.476 21.0994 116.518 21.0994 116.614 21.0994C117 21.0994 117.51 21.0404 117.951 21.0404C118.406 21.0404 118.558 21.1142 119.729 21.1142C119.785 21.1142 119.84 21.1142 119.881 21.0699C119.895 21.0551 119.909 21.0256 119.909 20.9961C119.909 20.9076 119.84 20.8928 119.798 20.8928C119.605 20.8633 119.44 20.878 119.247 20.8338C119.068 20.7895 118.971 20.7305 118.875 20.5238C118.778 20.2877 118.737 19.9778 118.737 19.0923V17.7197C118.737 13.5578 118.806 12.8199 119.054 12.569C119.164 12.4657 119.371 12.4067 119.633 12.3329C119.757 12.3034 119.936 12.2886 119.936 12.1853C119.936 12.0968 119.867 12.0968 119.826 12.0968Z" fill="white"/>
<path d="M127.868 20.6419C127.91 20.391 127.992 19.9187 128.061 19.6826C128.213 19.107 128.24 19.0775 128.24 19.0332C128.24 18.9742 128.199 18.9594 128.144 18.9594C128.02 18.9594 128.006 19.0627 127.978 19.1365C127.868 19.5203 127.468 20.0663 127.234 20.2729C126.738 20.7009 126.104 20.8338 125.497 20.8338C124.202 20.8338 123.333 20.1549 122.796 19.4022C122.217 18.6052 121.927 17.5279 121.927 16.4505C121.927 15.9487 121.982 15.4469 122.12 14.9599C122.258 14.4729 122.465 14.0006 122.768 13.6021C123.512 12.5985 124.519 12.3624 125.222 12.3624C125.938 12.3624 126.834 12.6723 127.275 12.9675C127.73 13.2627 127.73 13.5136 127.73 13.7349V14.0154C127.73 14.0744 127.73 14.1629 127.827 14.1629C127.951 14.1629 127.951 13.9711 127.965 13.8087C127.992 13.5578 128.02 13.2479 128.116 12.8052C128.171 12.5543 128.199 12.51 128.199 12.4657C128.199 12.4214 128.171 12.3772 128.116 12.3772C128.089 12.3772 127.882 12.4362 127.785 12.4362C127.634 12.4362 127.455 12.3772 127.234 12.3181C126.655 12.141 126.062 12.0377 125.47 12.0377C124.174 12.0377 123.071 12.4952 122.285 13.2036C121.141 14.2515 120.879 15.624 120.879 16.5833C120.879 17.8526 121.334 18.9447 121.996 19.6974C122.74 20.5386 123.94 21.1585 125.428 21.1585C125.966 21.1585 126.352 21.0699 126.752 20.9666L127.868 20.6419Z" fill="white"/>
<path d="M134.499 12.3089C134.08 12.3089 133.898 12.2511 133.674 12.2511C133.506 12.2511 133.338 12.2511 133.338 12.3666C133.338 12.4244 133.394 12.4388 133.422 12.4677C133.492 12.4966 133.59 12.4966 133.66 12.511C133.758 12.5255 133.898 12.5832 133.968 12.641C134.038 12.6987 134.08 12.7709 134.108 12.8576C134.262 13.2474 134.276 13.9838 134.276 15.962V19.1674C134.276 20.0771 134.276 20.4958 133.814 20.6547C133.674 20.698 133.576 20.7124 133.478 20.7269C133.422 20.7413 133.38 20.7558 133.38 20.8279C133.38 20.9435 133.506 20.9435 133.562 20.9435C133.66 20.9435 133.772 20.929 133.87 20.9146C134.206 20.8568 134.541 20.8424 134.877 20.8424C135.269 20.8424 135.605 20.8713 136.347 20.9001C136.697 20.9146 136.879 20.929 137.075 20.929C138.363 20.929 139.623 20.5392 140.463 19.8461C141.457 19.0375 142.03 17.7669 142.03 16.4818C142.03 15.0234 141.261 13.7383 140.127 12.9153C139.217 12.28 138.335 12.0923 137.187 12.0923C136.725 12.0923 136.333 12.1212 135.983 12.1645C135.395 12.2222 134.933 12.3089 134.499 12.3089ZM136.851 12.3811C137.733 12.3811 138.937 12.5255 139.875 13.5073C140.211 13.8683 140.477 14.3015 140.659 14.7635C140.869 15.3266 140.967 15.9331 140.967 16.5395C140.967 17.8968 140.533 18.9075 139.945 19.5429C139.455 20.0771 138.601 20.6402 137.257 20.6402C136.963 20.6402 136.557 20.5969 136.207 20.5392C135.857 20.4814 135.409 20.337 135.297 20.1204C135.199 19.9327 135.171 19.2396 135.171 16.8572C135.171 13.8105 135.199 12.9153 135.311 12.7276C135.423 12.5399 135.955 12.3811 136.851 12.3811Z" fill="white"/>
<path d="M149.373 12.1356H148.743C146.195 12.1356 145.803 12.1934 144.487 12.1934C143.689 12.1934 143.633 12.1356 143.27 12.1356C143.228 12.1356 143.144 12.1356 143.144 12.2222C143.144 12.28 143.186 12.3089 143.228 12.3233C143.34 12.3666 143.507 12.3666 143.689 12.4677C143.997 12.6265 144.067 12.8864 144.067 14.0704V15.4133C144.067 19.4274 143.941 20.3226 143.829 20.4958C143.745 20.6258 143.48 20.6691 143.354 20.698C143.228 20.7269 143.074 20.7413 143.074 20.8568C143.074 20.9435 143.158 20.9435 143.2 20.9435C143.34 20.9435 143.438 20.9146 143.829 20.9001C144.655 20.8568 145.257 20.8279 146.265 20.8279C147.343 20.8279 148.701 20.8713 149.317 20.8857C149.415 20.6547 149.597 20.2215 149.751 19.6873C149.821 19.4562 149.891 19.1674 149.891 18.9797C149.891 18.9075 149.877 18.8642 149.807 18.8642C149.765 18.8642 149.737 18.9075 149.723 18.9364C149.611 19.1674 149.639 19.1963 149.499 19.4274C149.331 19.7017 149.107 19.9472 148.841 20.1204C148.239 20.4958 147.371 20.5392 146.699 20.5392C146.069 20.5392 145.551 20.4814 145.033 20.3948C144.963 19.3696 144.963 18.7343 144.963 17.7669V16.9149C144.963 16.785 144.977 16.6839 145.047 16.6262C145.131 16.5684 145.313 16.554 145.803 16.554H146.559C147.427 16.554 147.693 16.5828 147.875 16.6262C147.959 16.6406 148.043 16.6695 148.113 16.7128C148.323 16.8283 148.393 16.9583 148.449 17.1749C148.519 17.4203 148.533 17.6658 148.547 17.6947C148.561 17.7235 148.575 17.7813 148.645 17.7813C148.687 17.7813 148.701 17.7524 148.715 17.7235C148.729 17.6802 148.729 17.6513 148.729 17.608L148.715 17.3914C148.701 17.1315 148.659 17.0449 148.659 16.4673C148.659 15.9042 148.743 15.7165 148.743 15.3844C148.743 15.3555 148.743 15.2833 148.673 15.2833C148.631 15.2833 148.575 15.3266 148.561 15.37L148.491 15.6443C148.393 15.962 148.183 16.1064 147.889 16.1497C147.329 16.2363 147.063 16.2363 146.489 16.2363H145.579C145.243 16.2363 145.103 16.2219 145.033 16.1641C144.963 16.1064 144.963 16.0053 144.963 15.9331V15.6587C144.963 14.7924 144.977 14.1571 145.061 12.5688C145.383 12.5255 145.901 12.4533 146.755 12.4533C147.007 12.4533 147.805 12.4533 148.211 12.5255C148.869 12.641 148.925 12.9153 148.925 13.0741C148.925 13.1608 148.911 13.3485 148.897 13.4207C148.883 13.5218 148.855 13.5795 148.855 13.6373C148.855 13.7239 148.925 13.7528 148.981 13.7528C149.163 13.7528 149.163 13.233 149.205 12.9731C149.247 12.6987 149.275 12.511 149.373 12.1356Z" fill="white"/>
<path d="M155.073 16.5251C155.507 16.3951 155.969 16.1497 156.277 15.8176C156.668 15.3844 156.822 14.879 156.822 14.3737C156.822 13.7817 156.598 13.1608 156.081 12.7132C155.479 12.1789 154.597 12.0057 153.967 12.0057C153.687 12.0057 153.239 12.049 152.987 12.0778C152.553 12.1212 152.133 12.1934 151.769 12.1934C151.685 12.1934 151.531 12.1934 151.167 12.1645C150.957 12.15 150.915 12.1356 150.831 12.1356C150.719 12.1356 150.705 12.2078 150.705 12.2656C150.705 12.3522 150.761 12.3666 150.831 12.3811C151.013 12.4099 151.251 12.3955 151.405 12.5255C151.517 12.6121 151.559 12.7998 151.587 12.9298C151.685 13.464 151.699 14.2004 151.699 16.0486V18.8642C151.699 19.8172 151.671 20.1637 151.531 20.3803C151.377 20.6258 151.097 20.698 150.999 20.7124C150.915 20.7269 150.817 20.7413 150.817 20.8568C150.817 20.9435 150.873 20.9579 150.901 20.9579C151.041 20.9579 151.293 20.8279 152.133 20.8279C152.497 20.8279 152.707 20.8568 153.015 20.9001C153.281 20.9435 153.365 20.9723 153.477 20.9723C153.533 20.9723 153.575 20.9579 153.575 20.8713C153.575 20.7846 153.533 20.7702 153.491 20.7558L153.337 20.7124C153.057 20.6402 152.833 20.5969 152.707 20.337C152.679 20.2648 152.665 20.1782 152.651 20.106C152.595 19.8461 152.595 19.0519 152.595 18.1856V16.5828C152.763 16.6117 153.225 16.6839 153.841 16.6839H154.037C154.485 17.4925 155.297 18.7776 156.011 19.6006C157.256 21.0445 158.25 21.2322 158.782 21.2322H159.118C159.146 21.2322 159.23 21.2322 159.23 21.1456C159.23 21.0734 159.188 21.0445 159.132 21.0301C158.908 20.9723 158.642 20.9001 158.278 20.6691C157.354 20.0771 156.375 18.7776 155.073 16.5251ZM152.595 16.2363C152.609 14.1426 152.609 13.6228 152.637 13.1897C152.665 12.7854 152.679 12.7132 152.679 12.6987C152.735 12.4677 152.973 12.3811 153.141 12.3377C153.309 12.2944 153.491 12.28 153.659 12.28C154.457 12.28 154.989 12.5543 155.353 12.9875C155.647 13.3485 155.843 13.8394 155.843 14.5036C155.843 15.1245 155.661 15.5865 155.241 15.9186C154.737 16.3229 154.079 16.3807 153.603 16.3807C153.323 16.3807 153.057 16.3518 152.595 16.2363Z" fill="white"/>
<path d="M161.636 12.1356C161.384 12.15 161.048 12.1645 160.67 12.1645C160.096 12.1645 159.452 12.1212 159.284 12.1212C159.214 12.1212 159.186 12.1212 159.186 12.1934C159.186 12.28 159.284 12.2656 159.55 12.3089C159.858 12.3666 160.25 12.4821 160.46 12.7565C160.642 13.0019 160.726 13.4496 160.726 14.3159C160.726 15.5865 160.67 16.9005 160.586 18.099C160.46 19.9038 160.376 20.1204 160.18 20.337C160.012 20.5103 159.816 20.6402 159.396 20.7124C159.34 20.7269 159.144 20.7413 159.144 20.8568C159.144 20.9146 159.172 20.9435 159.214 20.9435C159.27 20.9435 159.564 20.9001 159.732 20.8857C160.068 20.8568 160.362 20.8424 160.824 20.8424C161.048 20.8424 161.272 20.8568 161.496 20.8713C161.65 20.8857 161.804 20.9001 161.958 20.9001H162.098C162.154 20.9001 162.182 20.8713 162.182 20.8279C162.182 20.7413 162.056 20.7124 162.028 20.7124L161.51 20.5969C161.342 20.5536 161.16 20.4814 161.048 20.2359C160.95 20.0194 160.936 19.745 160.936 19.1963V18.9364C160.936 18.0123 160.964 16.4096 161.174 13.5795L161.23 13.5651C162 15.0523 162.938 16.9294 164.002 19.1674C164.156 19.4851 164.422 20.0482 164.548 20.5247C164.632 20.8424 164.674 20.8568 164.688 20.8568C164.772 20.8568 165.01 20.1926 165.234 19.6584L165.905 18.1278C166.619 16.5828 167.333 15.1101 168.215 13.5218L168.271 13.5362C168.299 14.9945 168.327 17.5358 168.327 18.5032C168.327 19.2685 168.313 19.7017 168.187 20.0194C168.089 20.2504 167.907 20.4958 167.557 20.6258C167.333 20.7124 167.319 20.6691 167.081 20.7269C167.011 20.7413 166.983 20.7558 166.983 20.8279C166.983 20.9435 167.039 20.9435 167.109 20.9435C167.319 20.9435 167.571 20.9001 167.879 20.8713C168.313 20.8424 168.985 20.8279 169.293 20.8279C169.825 20.8279 169.979 20.8713 170.287 20.8713C170.315 20.8713 170.399 20.8713 170.399 20.7846C170.399 20.698 170.301 20.6691 170.259 20.6691L169.965 20.6402C169.797 20.6258 169.629 20.568 169.503 20.4092C169.405 20.2793 169.363 20.1204 169.335 19.9472C169.167 19.0375 169.139 17.8102 169.139 14.4747C169.139 13.1608 169.195 12.5688 169.503 12.4533C169.615 12.4099 169.839 12.3955 169.965 12.3955C170.343 12.3811 170.371 12.28 170.371 12.2222C170.371 12.1789 170.357 12.15 170.217 12.15C170.105 12.15 169.629 12.1934 169.363 12.1934C168.985 12.1934 168.705 12.1789 168.481 12.1645L167.865 13.4207C166.913 15.3555 166.073 17.146 165.15 18.8354C165.094 18.9509 165.038 19.0231 164.996 19.0231C164.926 19.0231 164.884 18.8787 164.842 18.792L163.876 16.9149C162.938 15.0956 162.28 13.9405 161.636 12.1356Z" fill="white"/>
<path d="M176.36 19.9616C176.402 20.0771 176.43 20.2071 176.43 20.3226C176.43 20.4092 176.388 20.5825 176.164 20.6836C176.024 20.7413 175.786 20.7558 175.786 20.8713C175.786 20.929 175.842 20.9435 175.912 20.9435H176.01C176.206 20.9435 176.374 20.9146 176.528 20.8857C176.78 20.8568 176.962 20.8424 177.27 20.8424C177.788 20.8424 178.054 20.8857 178.222 20.8857C178.278 20.8857 178.292 20.8713 178.292 20.7991C178.292 20.7558 178.278 20.7558 178.25 20.7413C178.194 20.7124 178.04 20.6836 177.97 20.6547C177.83 20.5969 177.704 20.5103 177.606 20.3948C177.438 20.2071 177.284 19.8894 177.06 19.3263C176.178 17.146 175.632 15.832 175.212 14.7058C174.988 14.0849 174.484 12.742 174.4 12.3811C174.372 12.2511 174.33 12.0634 174.246 12.0634C174.218 12.0634 174.19 12.0778 174.176 12.0923C174.148 12.1212 174.092 12.2222 173.742 13.233C173.308 14.4603 172.664 16.2507 172.23 17.3481C171.768 18.5466 171.503 19.2685 171.195 19.875C171.041 20.1782 170.859 20.467 170.677 20.5969C170.593 20.6547 170.509 20.698 170.425 20.7269C170.355 20.7558 170.257 20.7846 170.257 20.8568C170.257 20.929 170.327 20.929 170.355 20.929C170.481 20.929 170.621 20.9001 170.789 20.8857C170.901 20.8713 171.167 20.8568 171.293 20.8568C171.461 20.8568 171.489 20.8568 171.81 20.8857C172.048 20.9146 172.286 20.9579 172.51 20.9579C172.664 20.9579 172.678 20.9001 172.678 20.8713C172.678 20.7702 172.468 20.7413 172.356 20.7124C172.188 20.6691 172.076 20.6402 171.922 20.568C171.768 20.4958 171.657 20.3515 171.657 20.106C171.657 20.0049 171.699 19.8028 171.74 19.6873L172.342 17.9834L172.384 17.8824C172.44 17.7813 172.566 17.7813 172.65 17.7813H175.324C175.534 17.7813 175.562 17.8246 175.604 17.9401L176.36 19.9616ZM174.05 14.0271L175.324 17.2182C175.338 17.2615 175.366 17.3192 175.366 17.377C175.366 17.4059 175.352 17.4636 175.296 17.4636H172.678C172.622 17.4636 172.594 17.4636 172.594 17.377C172.594 17.3048 172.692 17.0449 172.72 16.9871L173.84 13.9838C173.868 13.8972 173.924 13.8827 173.952 13.8827C174.008 13.8827 174.022 13.9694 174.05 14.0271Z" fill="white"/>
<path d="M185.324 12.0345C185.226 12.1067 185.156 12.1212 185.044 12.1356C184.778 12.1645 184.484 12.1645 184.204 12.1645C183.868 12.1645 183.112 12.15 182.566 12.15C182.286 12.15 181.628 12.1356 181.166 12.1356C180.074 12.1356 179.864 12.1789 178.618 12.1789C178.199 12.1789 177.905 12.1645 177.639 11.9768C177.569 11.9335 177.555 11.8901 177.513 11.8901C177.415 11.8901 177.415 12.1356 177.373 12.28C177.303 12.5543 177.191 12.7854 177.107 13.0164C177.009 13.2619 176.925 13.3485 176.925 13.4496C176.925 13.5506 177.037 13.5506 177.065 13.5506C177.121 13.5506 177.135 13.5073 177.149 13.464C177.205 13.2907 177.247 13.1752 177.303 13.0886C177.373 12.9731 177.457 12.8864 177.611 12.8142C178.101 12.5688 178.94 12.5543 179.248 12.5543C179.808 12.5543 180.27 12.5688 180.662 12.5977C180.704 13.1897 180.732 13.7817 180.732 14.4025V15.7598C180.732 19.8316 180.69 20.2793 180.564 20.4381C180.522 20.4958 180.466 20.5247 180.396 20.5536C180.214 20.6258 180.018 20.6402 179.626 20.698C179.528 20.7124 179.416 20.7269 179.416 20.8568C179.416 20.9579 179.472 20.9579 179.514 20.9579C179.612 20.9579 179.962 20.9001 180.172 20.8713C180.522 20.8279 181.04 20.7846 181.502 20.7846C182.034 20.7846 182.762 20.8713 182.86 20.8713C182.958 20.8713 182.986 20.8713 182.986 20.7269C182.986 20.6114 182.902 20.6114 182.832 20.6114C182.538 20.6114 182.02 20.5969 181.838 20.3226C181.782 20.2359 181.754 20.0916 181.726 19.7883C181.684 19.3696 181.684 18.9364 181.67 18.5032C181.656 17.608 181.656 16.7272 181.656 15.8465C181.656 14.7202 181.656 14.0849 181.726 12.5688C181.978 12.5543 182.314 12.5399 182.65 12.5399C183.252 12.5399 183.896 12.5832 184.274 12.6698C184.75 12.7854 184.876 13.0019 184.876 13.2041C184.876 13.2907 184.834 13.4351 184.834 13.5362C184.834 13.594 184.862 13.6228 184.946 13.6228C185.016 13.6228 185.044 13.6084 185.058 13.5073L185.142 13.0741C185.198 12.7998 185.268 12.5255 185.422 12.15L185.324 12.0345Z" fill="white"/>
<path d="M185.528 16.4673C185.528 17.5791 185.906 18.8498 186.97 19.8605C187.809 20.6547 188.873 21.0301 189.937 21.0301C191.421 21.0301 192.401 20.3515 192.933 19.875C194.179 18.7343 194.403 17.3192 194.403 16.4529C194.403 15.0812 193.829 13.7672 192.821 12.9442C192.051 12.3089 191.057 11.9768 190.035 11.9768C188.803 11.9768 187.613 12.4966 186.802 13.334C186.102 14.0416 185.528 15.1101 185.528 16.4673ZM189.671 12.4388C190.791 12.4388 191.631 12.9298 192.303 13.695C193.171 14.6769 193.507 15.9042 193.507 16.9871C193.507 18.3011 193.017 19.2396 192.443 19.7739C191.967 20.2215 191.253 20.5392 190.399 20.5392C189.951 20.5392 188.481 20.4381 187.376 18.8931C186.984 18.33 186.424 17.3337 186.424 15.9764C186.424 15.0812 186.606 14.186 187.306 13.4351C187.781 12.9153 188.565 12.4388 189.671 12.4388Z" fill="white"/>
<path d="M201.738 20.9435C201.99 20.106 201.99 20.1204 202.102 19.7739C202.186 19.4707 202.214 19.3552 202.214 19.1963C202.214 19.1241 202.214 19.0664 202.116 19.0664C202.046 19.0664 202.004 19.1097 201.976 19.1674C201.864 19.384 201.892 19.6151 201.71 19.8316C201.626 19.9327 201.5 20.0049 201.374 20.0627C201.248 20.1204 201.108 20.1637 200.982 20.2071C200.422 20.3803 199.666 20.4958 198.742 20.4958C198.084 20.4958 197.636 20.4958 197.482 20.2215C197.398 20.0627 197.37 19.0664 197.37 18.561C197.356 17.8968 197.356 17.247 197.356 16.5828V14.5758C197.356 13.5651 197.37 13.1319 197.454 12.7709C197.482 12.6554 197.51 12.5543 197.622 12.4821C197.776 12.3666 198.084 12.3377 198.266 12.3233C198.322 12.3233 198.42 12.3089 198.42 12.1934C198.42 12.1212 198.364 12.1212 198.308 12.1212C198.056 12.1212 197.916 12.15 197.664 12.1789C197.454 12.1934 196.978 12.2222 196.74 12.2222C196.586 12.2222 196.446 12.2078 195.984 12.1934C195.732 12.1789 195.704 12.1645 195.648 12.1645C195.592 12.1645 195.522 12.1789 195.522 12.2656C195.522 12.3666 195.606 12.3522 195.732 12.3666C195.956 12.3955 196.152 12.4244 196.264 12.6121C196.334 12.7276 196.348 12.9153 196.404 13.6228C196.46 14.3159 196.46 16.6695 196.46 17.2904V19.2541C196.46 19.9616 196.446 20.1782 196.362 20.3226C196.306 20.4237 196.194 20.5392 196.096 20.5825C195.886 20.6691 195.788 20.6836 195.76 20.6836C195.704 20.6836 195.578 20.698 195.578 20.8135C195.578 20.9001 195.662 20.9001 195.704 20.9001C195.732 20.9001 196.026 20.8713 196.796 20.8713C197.902 20.8713 197.958 20.8279 199.596 20.8279C200.94 20.8279 201.276 20.8424 201.738 20.9435Z" fill="white"/>
<path d="M202.24 16.4673C202.24 17.5791 202.618 18.8498 203.682 19.8605C204.522 20.6547 205.586 21.0301 206.65 21.0301C208.133 21.0301 209.113 20.3515 209.645 19.875C210.891 18.7343 211.115 17.3192 211.115 16.4529C211.115 15.0812 210.541 13.7672 209.533 12.9442C208.763 12.3089 207.769 11.9768 206.748 11.9768C205.516 11.9768 204.326 12.4966 203.514 13.334C202.814 14.0416 202.24 15.1101 202.24 16.4673ZM206.384 12.4388C207.503 12.4388 208.343 12.9298 209.015 13.695C209.883 14.6769 210.219 15.9042 210.219 16.9871C210.219 18.3011 209.729 19.2396 209.155 19.7739C208.679 20.2215 207.965 20.5392 207.112 20.5392C206.664 20.5392 205.194 20.4381 204.088 18.8931C203.696 18.33 203.136 17.3337 203.136 15.9764C203.136 15.0812 203.318 14.186 204.018 13.4351C204.494 12.9153 205.278 12.4388 206.384 12.4388Z" fill="white"/>
<path d="M212.319 16.6262C212.319 17.9546 212.809 18.8931 213.453 19.5573C214.419 20.5825 215.762 20.9579 217.022 20.9579C217.526 20.9579 218.03 20.9001 218.534 20.8135C219.094 20.7269 219.71 20.5825 220.144 20.5247C220.312 20.4958 220.34 20.467 220.34 20.3948C220.34 20.2359 220.228 20.3226 220.144 20.2071C220.06 20.0916 220.046 19.4562 220.046 19.1819V17.9401C220.046 17.1604 220.158 17.0016 220.2 16.9583C220.284 16.8861 220.41 16.8572 220.508 16.8283L220.578 16.785C220.592 16.7706 220.592 16.7417 220.592 16.7128C220.592 16.6117 220.564 16.6117 220.466 16.6117C220.116 16.6117 219.5 16.6695 219.206 16.6695C218.926 16.6695 218.66 16.655 218.324 16.6406C218.142 16.6262 218.002 16.6117 217.806 16.6117C217.736 16.6117 217.652 16.6117 217.652 16.7128C217.652 16.8428 217.792 16.8283 217.946 16.8428C218.226 16.8572 218.436 16.8716 218.646 16.9005C218.73 16.9149 218.814 16.9294 218.884 16.9727C218.94 17.016 218.996 17.0738 219.024 17.1315C219.08 17.2326 219.136 17.4059 219.136 17.969V19.0375C219.136 19.7595 219.08 19.9327 219.038 20.0194C218.814 20.4525 217.526 20.6114 217.134 20.6114C215.86 20.6114 215.006 20.106 214.447 19.4995C213.649 18.6476 213.299 17.4925 213.299 16.3951C213.299 14.9512 213.831 13.9261 214.489 13.2763C215.174 12.6121 215.986 12.3377 216.896 12.3377C217.694 12.3377 218.338 12.5688 218.786 12.9009C219.22 13.2185 219.486 13.6806 219.556 13.825C219.598 13.9261 219.682 14.2004 219.766 14.2004C219.794 14.2004 219.864 14.186 219.864 14.0993C219.864 13.9982 219.836 13.8972 219.794 13.6806C219.766 13.4929 219.668 13.0741 219.668 12.4533V12.1934C219.668 12.15 219.668 12.1212 219.654 12.1067C219.64 12.0923 219.612 12.0778 219.584 12.0778C219.514 12.0778 219.472 12.1789 219.36 12.3089C219.318 12.3666 219.248 12.4244 219.164 12.4244C219.108 12.4244 219.038 12.3955 218.884 12.3522C218.38 12.2078 217.806 12.049 216.994 12.049C215.692 12.049 214.503 12.5399 213.691 13.2907C212.879 14.0416 212.319 15.1823 212.319 16.6262Z" fill="white"/>
<path d="M224.777 12.0923C224.357 12.0923 224.091 12.15 223.825 12.1645C223.559 12.1934 223.181 12.2078 222.943 12.2078C222.537 12.2078 221.963 12.1645 221.627 12.1645C221.557 12.1645 221.445 12.1645 221.445 12.28C221.445 12.3955 221.627 12.3955 221.725 12.3955C221.893 12.3955 222.229 12.4677 222.341 12.5399C222.509 12.641 222.579 12.872 222.607 12.9875C222.691 13.3052 222.719 13.6228 222.733 13.9549C222.775 14.6336 222.775 15.2978 222.775 15.9764V17.0449C222.775 19.4274 222.705 19.875 222.621 20.106C222.579 20.2215 222.523 20.337 222.425 20.4237C222.285 20.5536 222.047 20.6114 221.879 20.6402C221.683 20.6691 221.529 20.6402 221.445 20.6836C221.403 20.698 221.375 20.7558 221.375 20.7991C221.375 20.9001 221.417 20.9001 221.515 20.9001C221.907 20.9001 222.425 20.8424 222.873 20.8424C223.335 20.8424 223.489 20.9146 224.679 20.9146C224.735 20.9146 224.791 20.9146 224.833 20.8713C224.847 20.8568 224.861 20.8279 224.861 20.7991C224.861 20.7124 224.791 20.698 224.749 20.698C224.553 20.6691 224.385 20.6836 224.189 20.6402C224.007 20.5969 223.909 20.5392 223.811 20.337C223.713 20.106 223.671 19.8028 223.671 18.9364V17.5936C223.671 13.5218 223.741 12.7998 223.993 12.5543C224.105 12.4533 224.315 12.3955 224.581 12.3233C224.707 12.2944 224.889 12.28 224.889 12.1789C224.889 12.0923 224.819 12.0923 224.777 12.0923Z" fill="white"/>
<path d="M226.35 20.8135C226.364 20.7702 226.392 20.7269 226.504 20.7269C226.63 20.7269 227.106 20.8424 227.386 20.9001C227.778 20.9723 228.38 21.0301 228.688 21.0301C229.416 21.0301 230.06 20.8568 230.592 20.4525C231.096 20.0627 231.432 19.4995 231.432 18.7054C231.432 18.1567 231.278 17.6802 230.928 17.247C230.578 16.8139 230.158 16.5395 229.696 16.3229L228.94 15.9908C228.478 15.7887 227.75 15.4999 227.372 15.0812C227.106 14.778 226.98 14.4314 226.98 13.9982C226.98 13.2907 227.274 12.8431 227.568 12.6121C227.834 12.3955 228.198 12.2222 228.744 12.2222C229.458 12.2222 230.27 12.4677 230.69 13.1752C230.998 13.6806 230.942 14.0127 231.054 14.0127H231.082C231.124 14.0127 231.166 13.9982 231.166 13.9261C231.166 13.7672 231.068 13.7095 231.068 13.0019C231.068 12.7854 231.096 12.5255 231.138 12.3233C231.166 12.2078 231.18 12.1789 231.18 12.1356C231.18 12.0634 231.124 12.0345 231.096 12.0345C231.04 12.0345 230.998 12.0923 230.9 12.1356C230.802 12.1789 230.69 12.2222 230.536 12.2222C230.312 12.2222 230.074 12.1356 229.808 12.0778C229.542 12.0201 229.178 11.9768 228.898 11.9768C228.142 11.9768 227.4 12.2222 226.882 12.7276C226.504 13.103 226.196 13.6661 226.196 14.4025C226.196 15.1389 226.49 15.6154 226.924 15.9908C227.064 16.1208 227.414 16.3807 228.184 16.7272L228.604 16.9149C229.262 17.2182 229.682 17.3914 230.004 17.6513C230.48 18.0268 230.62 18.4599 230.62 19.0231C230.62 19.6439 230.382 20.0194 230.186 20.2215C230.018 20.3948 229.626 20.698 228.842 20.698C228.184 20.698 227.316 20.4958 226.742 20.0771C226.434 19.8461 226.308 19.6439 226.21 19.3696C226.154 19.1963 226.07 18.9075 226.042 18.7632C226.028 18.691 226.014 18.6188 225.93 18.6188C225.874 18.6188 225.804 18.6476 225.804 18.7343C225.804 18.8209 225.86 18.922 225.958 19.3696C226.042 19.7739 226.126 20.1637 226.126 20.9435H226.294C226.308 20.9001 226.322 20.8568 226.35 20.8135Z" fill="white"/>
<path d="M240.249 12.0345C240.151 12.1067 240.081 12.1212 239.969 12.1356C239.703 12.1645 239.409 12.1645 239.129 12.1645C238.793 12.1645 238.038 12.15 237.492 12.15C237.212 12.15 236.554 12.1356 236.092 12.1356C235 12.1356 234.79 12.1789 233.544 12.1789C233.124 12.1789 232.83 12.1645 232.564 11.9768C232.494 11.9335 232.48 11.8901 232.438 11.8901C232.34 11.8901 232.34 12.1356 232.298 12.28C232.228 12.5543 232.116 12.7854 232.032 13.0164C231.934 13.2619 231.85 13.3485 231.85 13.4496C231.85 13.5506 231.962 13.5506 231.99 13.5506C232.046 13.5506 232.06 13.5073 232.074 13.464C232.13 13.2907 232.172 13.1752 232.228 13.0886C232.298 12.9731 232.382 12.8864 232.536 12.8142C233.026 12.5688 233.866 12.5543 234.174 12.5543C234.734 12.5543 235.196 12.5688 235.588 12.5977C235.63 13.1897 235.658 13.7817 235.658 14.4025V15.7598C235.658 19.8316 235.616 20.2793 235.49 20.4381C235.448 20.4958 235.392 20.5247 235.322 20.5536C235.14 20.6258 234.944 20.6402 234.552 20.698C234.454 20.7124 234.342 20.7269 234.342 20.8568C234.342 20.9579 234.398 20.9579 234.44 20.9579C234.538 20.9579 234.888 20.9001 235.098 20.8713C235.448 20.8279 235.966 20.7846 236.428 20.7846C236.96 20.7846 237.688 20.8713 237.786 20.8713C237.884 20.8713 237.912 20.8713 237.912 20.7269C237.912 20.6114 237.828 20.6114 237.758 20.6114C237.464 20.6114 236.946 20.5969 236.764 20.3226C236.708 20.2359 236.68 20.0916 236.652 19.7883C236.61 19.3696 236.61 18.9364 236.596 18.5032C236.582 17.608 236.582 16.7272 236.582 15.8465C236.582 14.7202 236.582 14.0849 236.652 12.5688C236.904 12.5543 237.24 12.5399 237.576 12.5399C238.178 12.5399 238.821 12.5832 239.199 12.6698C239.675 12.7854 239.801 13.0019 239.801 13.2041C239.801 13.2907 239.759 13.4351 239.759 13.5362C239.759 13.594 239.787 13.6228 239.871 13.6228C239.941 13.6228 239.969 13.6084 239.983 13.5073L240.067 13.0741C240.123 12.7998 240.193 12.5255 240.347 12.15L240.249 12.0345Z" fill="white"/>
<path d="M65.5846 25.8592C65.2086 25.8592 65.0456 25.8067 64.845 25.8067C64.6946 25.8067 64.5442 25.8067 64.5442 25.9117C64.5442 25.9642 64.5943 25.9773 64.6194 26.0036C64.6821 26.0298 64.7698 26.0298 64.8325 26.043C64.9202 26.0561 65.0456 26.1086 65.1083 26.1611C65.1709 26.2136 65.2086 26.2792 65.2336 26.358C65.3715 26.7124 65.384 27.3819 65.384 29.1802V32.0943C65.384 32.9212 65.384 33.3019 64.9704 33.4463C64.845 33.4857 64.7573 33.4988 64.6695 33.5119C64.6194 33.525 64.5818 33.5382 64.5818 33.6038C64.5818 33.7088 64.6946 33.7088 64.7448 33.7088C64.8325 33.7088 64.9328 33.6957 65.0205 33.6826C65.3214 33.6301 65.6222 33.6169 65.9231 33.6169C66.274 33.6169 66.5749 33.6432 67.2392 33.6694C67.5526 33.6826 67.7156 33.6957 67.8911 33.6957C69.0443 33.6957 70.1725 33.3413 70.9246 32.7112C71.8146 31.9761 72.3285 30.821 72.3285 29.6527C72.3285 28.327 71.6391 27.1587 70.6237 26.4105C69.8089 25.8329 69.0192 25.6623 67.9913 25.6623C67.5777 25.6623 67.2267 25.6885 66.9133 25.7279C66.3869 25.7804 65.9732 25.8592 65.5846 25.8592ZM67.6905 25.9248C68.4802 25.9248 69.5582 26.0561 70.3981 26.9487C70.6989 27.2768 70.9371 27.6706 71.1001 28.0907C71.2881 28.6026 71.3758 29.1539 71.3758 29.7052C71.3758 30.9391 70.9872 31.858 70.4608 32.4355C70.022 32.9212 69.2574 33.4332 68.054 33.4332C67.7908 33.4332 67.4273 33.3938 67.1139 33.3413C66.8005 33.2888 66.3994 33.1575 66.2991 32.9606C66.2114 32.79 66.1863 32.1599 66.1863 29.994C66.1863 27.2243 66.2114 26.4105 66.3116 26.2399C66.4119 26.0692 66.8883 25.9248 67.6905 25.9248Z" fill="white"/>
<path d="M73.3879 29.6396C73.3879 30.6503 73.7264 31.8055 74.679 32.7243C75.4311 33.4463 76.3838 33.7876 77.3365 33.7876C78.6652 33.7876 79.5426 33.1706 80.019 32.7375C81.1346 31.7005 81.3352 30.4141 81.3352 29.6265C81.3352 28.3795 80.8212 27.185 79.9187 26.4367C79.2293 25.8592 78.3393 25.5573 77.4242 25.5573C76.3211 25.5573 75.2556 26.0298 74.5286 26.7912C73.9018 27.4344 73.3879 28.4057 73.3879 29.6396ZM77.0983 25.9773C78.1011 25.9773 78.8532 26.4236 79.4549 27.1193C80.2321 28.0119 80.5329 29.1277 80.5329 30.1122C80.5329 31.3067 80.0942 32.1599 79.5802 32.6456C79.1541 33.0525 78.5148 33.3413 77.7501 33.3413C77.349 33.3413 76.0328 33.2494 75.0425 31.8449C74.6916 31.3329 74.1902 30.4272 74.1902 29.1933C74.1902 28.3795 74.3531 27.5656 74.9799 26.883C75.4061 26.4105 76.108 25.9773 77.0983 25.9773Z" fill="white"/>
<path d="M88.781 33.2625C88.8186 33.0394 88.8938 32.6193 88.9565 32.4093C89.0944 31.8974 89.1195 31.8711 89.1195 31.8317C89.1195 31.7792 89.0819 31.7661 89.0317 31.7661C88.9189 31.7661 88.9064 31.858 88.8813 31.9236C88.781 32.2649 88.4175 32.7506 88.2044 32.9343C87.7531 33.315 87.1765 33.4332 86.625 33.4332C85.4467 33.4332 84.657 32.8293 84.1681 32.1599C83.6416 31.4511 83.3784 30.4928 83.3784 29.5346C83.3784 29.0883 83.4285 28.642 83.5539 28.2088C83.6792 27.7756 83.8673 27.3556 84.143 27.0012C84.8199 26.1086 85.735 25.8986 86.3743 25.8986C87.0261 25.8986 87.8409 26.1742 88.242 26.4367C88.6557 26.6993 88.6557 26.9224 88.6557 27.1193V27.3687C88.6557 27.4212 88.6557 27.5 88.7434 27.5C88.8562 27.5 88.8562 27.3293 88.8688 27.185C88.8938 26.9618 88.9189 26.6862 89.0067 26.2924C89.0568 26.0692 89.0819 26.0298 89.0819 25.9904C89.0819 25.9511 89.0568 25.9117 89.0067 25.9117C88.9816 25.9117 88.7936 25.9642 88.7058 25.9642C88.5679 25.9642 88.405 25.9117 88.2044 25.8592C87.6779 25.7017 87.1389 25.6098 86.5999 25.6098C85.4216 25.6098 84.4188 26.0167 83.7043 26.6468C82.6639 27.5788 82.4257 28.7995 82.4257 29.6527C82.4257 30.7816 82.8394 31.753 83.4411 32.4224C84.118 33.1706 85.2085 33.7219 86.5623 33.7219C87.0512 33.7219 87.4022 33.6432 87.7657 33.5513L88.781 33.2625Z" fill="white"/>
<path d="M97.0859 25.6098C96.9982 25.6754 96.9355 25.6885 96.8352 25.7017C96.5971 25.7279 96.3338 25.7279 96.0831 25.7279C95.7823 25.7279 95.1054 25.7148 94.6165 25.7148C94.3658 25.7148 93.7767 25.7017 93.363 25.7017C92.3853 25.7017 92.1972 25.741 91.0816 25.741C90.7055 25.741 90.4423 25.7279 90.2041 25.5573C90.1415 25.5179 90.1289 25.4785 90.0913 25.4785C90.0036 25.4785 90.0036 25.7017 89.966 25.8329C89.9033 26.0823 89.803 26.2924 89.7278 26.5024C89.6401 26.7255 89.5649 26.8043 89.5649 26.8962C89.5649 26.9881 89.6651 26.9881 89.6902 26.9881C89.7403 26.9881 89.7529 26.9487 89.7654 26.9093C89.8156 26.7518 89.8532 26.6468 89.9033 26.568C89.966 26.463 90.0412 26.3842 90.1791 26.3186C90.6178 26.0955 91.3699 26.0823 91.6457 26.0823C92.1471 26.0823 92.5607 26.0955 92.9117 26.1217C92.9493 26.6599 92.9744 27.1981 92.9744 27.7625V28.9964C92.9744 32.6981 92.9368 33.105 92.824 33.2494C92.7864 33.3019 92.7362 33.3281 92.6736 33.3544C92.5106 33.42 92.3351 33.4332 91.9841 33.4857C91.8964 33.4988 91.7961 33.5119 91.7961 33.6301C91.7961 33.7219 91.8462 33.7219 91.8839 33.7219C91.9716 33.7219 92.285 33.6694 92.473 33.6432C92.7864 33.6038 93.2502 33.5644 93.6638 33.5644C94.1402 33.5644 94.792 33.6432 94.8797 33.6432C94.9675 33.6432 94.9926 33.6432 94.9926 33.5119C94.9926 33.4069 94.9173 33.4069 94.8547 33.4069C94.5914 33.4069 94.1276 33.3938 93.9647 33.1444C93.9145 33.0656 93.8895 32.9343 93.8644 32.6587C93.8268 32.278 93.8268 31.8842 93.8143 31.4904C93.8017 30.6766 93.8017 29.8759 93.8017 29.0752C93.8017 28.0513 93.8017 27.4737 93.8644 26.0955C94.09 26.0823 94.3909 26.0692 94.6917 26.0692C95.2307 26.0692 95.8073 26.1086 96.1458 26.1873C96.572 26.2924 96.6848 26.4893 96.6848 26.673C96.6848 26.7518 96.6472 26.883 96.6472 26.9749C96.6472 27.0274 96.6723 27.0537 96.7475 27.0537C96.8101 27.0537 96.8352 27.0406 96.8478 26.9487L96.923 26.5549C96.9731 26.3055 97.0358 26.0561 97.1737 25.7148L97.0859 25.6098Z" fill="white"/>
<path d="M97.2688 29.6396C97.2688 30.6503 97.6072 31.8055 98.5599 32.7243C99.312 33.4463 100.265 33.7876 101.217 33.7876C102.546 33.7876 103.423 33.1706 103.9 32.7375C105.015 31.7005 105.216 30.4141 105.216 29.6265C105.216 28.3795 104.702 27.185 103.8 26.4367C103.11 25.8592 102.22 25.5573 101.305 25.5573C100.202 25.5573 99.1365 26.0298 98.4095 26.7912C97.7827 27.4344 97.2688 28.4057 97.2688 29.6396ZM100.979 25.9773C101.982 25.9773 102.734 26.4236 103.336 27.1193C104.113 28.0119 104.414 29.1277 104.414 30.1122C104.414 31.3067 103.975 32.1599 103.461 32.6456C103.035 33.0525 102.396 33.3413 101.631 33.3413C101.23 33.3413 99.9137 33.2494 98.9234 31.8449C98.5724 31.3329 98.071 30.4272 98.071 29.1933C98.071 28.3795 98.234 27.5656 98.8607 26.883C99.2869 26.4105 99.9889 25.9773 100.979 25.9773Z" fill="white"/>
<path d="M110.08 29.6921C110.468 29.574 110.882 29.3508 111.158 29.0489C111.509 28.6551 111.647 28.1957 111.647 27.7363C111.647 27.1981 111.446 26.6336 110.982 26.2267C110.443 25.741 109.653 25.5835 109.089 25.5835C108.839 25.5835 108.438 25.6229 108.212 25.6492C107.823 25.6885 107.447 25.7542 107.121 25.7542C107.046 25.7542 106.908 25.7542 106.582 25.7279C106.394 25.7148 106.357 25.7017 106.282 25.7017C106.181 25.7017 106.169 25.7673 106.169 25.8198C106.169 25.8986 106.219 25.9117 106.282 25.9248C106.444 25.9511 106.658 25.9379 106.795 26.0561C106.896 26.1348 106.933 26.3055 106.958 26.4236C107.046 26.9093 107.059 27.5788 107.059 29.2589V31.8186C107.059 32.6849 107.034 33 106.908 33.1969C106.77 33.42 106.52 33.4857 106.432 33.4988C106.357 33.5119 106.269 33.525 106.269 33.6301C106.269 33.7088 106.319 33.7219 106.344 33.7219C106.47 33.7219 106.695 33.6038 107.447 33.6038C107.773 33.6038 107.961 33.6301 108.237 33.6694C108.475 33.7088 108.55 33.7351 108.651 33.7351C108.701 33.7351 108.738 33.7219 108.738 33.6432C108.738 33.5644 108.701 33.5513 108.663 33.5382L108.525 33.4988C108.275 33.4332 108.074 33.3938 107.961 33.1575C107.936 33.0919 107.924 33.0131 107.911 32.9475C107.861 32.7112 107.861 31.9892 107.861 31.2017V29.7446C108.011 29.7709 108.425 29.8365 108.977 29.8365H109.152C109.553 30.5716 110.28 31.7398 110.919 32.488C112.035 33.8007 112.925 33.9713 113.401 33.9713H113.702C113.727 33.9713 113.803 33.9713 113.803 33.8926C113.803 33.8269 113.765 33.8007 113.715 33.7876C113.514 33.7351 113.276 33.6694 112.95 33.4594C112.123 32.9212 111.245 31.7398 110.08 29.6921ZM107.861 29.4296C107.873 27.5262 107.873 27.0537 107.899 26.6599C107.924 26.2924 107.936 26.2267 107.936 26.2136C107.986 26.0036 108.199 25.9248 108.35 25.8854C108.5 25.8461 108.663 25.8329 108.814 25.8329C109.528 25.8329 110.004 26.0823 110.33 26.4761C110.594 26.8043 110.769 27.2506 110.769 27.8544C110.769 28.4188 110.606 28.8389 110.23 29.1408C109.779 29.5083 109.19 29.5608 108.763 29.5608C108.513 29.5608 108.275 29.5346 107.861 29.4296Z" fill="white"/>
<path d="M119.399 33.7682C119.412 33.7275 119.437 33.6869 119.54 33.6869C119.655 33.6869 120.091 33.7953 120.347 33.8494C120.705 33.9172 121.256 33.9713 121.537 33.9713C122.203 33.9713 122.792 33.8088 123.279 33.4295C123.74 33.0638 124.047 32.5356 124.047 31.7906C124.047 31.2759 123.906 30.8289 123.586 30.4225C123.266 30.0161 122.882 29.7588 122.459 29.5556L121.768 29.2441C121.345 29.0544 120.68 28.7835 120.334 28.3907C120.091 28.1063 119.975 27.7812 119.975 27.3748C119.975 26.7111 120.244 26.2912 120.513 26.0745C120.756 25.8713 121.089 25.7088 121.589 25.7088C122.242 25.7088 122.984 25.9391 123.369 26.6028C123.65 27.0768 123.599 27.3884 123.702 27.3884H123.727C123.766 27.3884 123.804 27.3748 123.804 27.3071C123.804 27.1581 123.714 27.1039 123.714 26.4402C123.714 26.237 123.74 25.9932 123.778 25.8036C123.804 25.6952 123.817 25.6681 123.817 25.6275C123.817 25.5598 123.766 25.5327 123.74 25.5327C123.689 25.5327 123.65 25.5869 123.561 25.6275C123.471 25.6681 123.369 25.7088 123.228 25.7088C123.023 25.7088 122.805 25.6275 122.562 25.5733C122.319 25.5192 121.986 25.4785 121.73 25.4785C121.038 25.4785 120.359 25.7088 119.886 26.1829C119.54 26.535 119.258 27.0633 119.258 27.7541C119.258 28.4449 119.527 28.8919 119.924 29.2441C120.052 29.366 120.372 29.6098 121.077 29.9349L121.461 30.111C122.062 30.3954 122.447 30.558 122.741 30.8018C123.177 31.1539 123.305 31.5603 123.305 32.0886C123.305 32.671 123.087 33.0232 122.908 33.2128C122.754 33.3754 122.395 33.6598 121.678 33.6598C121.077 33.6598 120.283 33.4702 119.758 33.0774C119.476 32.8606 119.361 32.671 119.271 32.4136C119.22 32.2511 119.143 31.9802 119.117 31.8447C119.105 31.777 119.092 31.7093 119.015 31.7093C118.964 31.7093 118.9 31.7364 118.9 31.8177C118.9 31.8989 118.951 31.9937 119.041 32.4136C119.117 32.7929 119.194 33.1586 119.194 33.8901H119.348C119.361 33.8494 119.373 33.8088 119.399 33.7682Z" fill="white"/>
<path d="M129.994 32.969C130.033 33.0774 130.058 33.1993 130.058 33.3076C130.058 33.3889 130.02 33.5514 129.815 33.6463C129.687 33.7004 129.469 33.714 129.469 33.8223C129.469 33.8765 129.521 33.8901 129.585 33.8901H129.674C129.853 33.8901 130.007 33.863 130.148 33.8359C130.378 33.8088 130.545 33.7953 130.827 33.7953C131.3 33.7953 131.544 33.8359 131.697 33.8359C131.749 33.8359 131.761 33.8223 131.761 33.7546C131.761 33.714 131.749 33.714 131.723 33.7004C131.672 33.6733 131.531 33.6463 131.467 33.6192C131.339 33.565 131.224 33.4837 131.134 33.3754C130.98 33.1993 130.839 32.9013 130.635 32.373C129.828 30.3277 129.328 29.0951 128.944 28.0386C128.739 27.4561 128.278 26.1964 128.202 25.8578C128.176 25.7359 128.138 25.5598 128.061 25.5598C128.035 25.5598 128.01 25.5733 127.997 25.5869C127.971 25.614 127.92 25.7088 127.6 26.6569C127.203 27.8083 126.614 29.4879 126.217 30.5173C125.794 31.6416 125.551 32.3188 125.269 32.8877C125.128 33.1722 124.962 33.4431 124.796 33.565C124.719 33.6192 124.642 33.6598 124.565 33.6869C124.501 33.714 124.411 33.7411 124.411 33.8088C124.411 33.8765 124.475 33.8765 124.501 33.8765C124.616 33.8765 124.744 33.8494 124.898 33.8359C125 33.8223 125.244 33.8088 125.359 33.8088C125.513 33.8088 125.538 33.8088 125.833 33.8359C126.05 33.863 126.268 33.9036 126.473 33.9036C126.614 33.9036 126.627 33.8494 126.627 33.8223C126.627 33.7275 126.435 33.7004 126.332 33.6733C126.178 33.6327 126.076 33.6056 125.935 33.5379C125.794 33.4702 125.692 33.3347 125.692 33.1044C125.692 33.0096 125.73 32.82 125.769 32.7116L126.319 31.1133L126.358 31.0185C126.409 30.9237 126.524 30.9237 126.601 30.9237H129.047C129.239 30.9237 129.264 30.9643 129.303 31.0727L129.994 32.969ZM127.882 27.4019L129.047 30.3954C129.06 30.436 129.085 30.4902 129.085 30.5444C129.085 30.5715 129.072 30.6257 129.021 30.6257H126.627C126.575 30.6257 126.55 30.6257 126.55 30.5444C126.55 30.4767 126.639 30.2329 126.665 30.1787L127.689 27.3613C127.715 27.28 127.766 27.2665 127.792 27.2665C127.843 27.2665 127.856 27.3478 127.882 27.4019Z" fill="white"/>
<path d="M133.136 25.7901C132.751 25.7901 132.585 25.7359 132.38 25.7359C132.226 25.7359 132.073 25.7359 132.073 25.8442C132.073 25.8984 132.124 25.912 132.15 25.9391C132.214 25.9661 132.303 25.9661 132.367 25.9797C132.457 25.9932 132.585 26.0474 132.649 26.1016C132.713 26.1558 132.751 26.2235 132.777 26.3048C132.918 26.6705 132.931 27.3613 132.931 29.217V32.224C132.931 33.0774 132.931 33.4702 132.508 33.6192C132.38 33.6598 132.29 33.6733 132.201 33.6869C132.15 33.7004 132.111 33.714 132.111 33.7817C132.111 33.8901 132.226 33.8901 132.278 33.8901C132.367 33.8901 132.47 33.8765 132.559 33.863C132.867 33.8088 133.174 33.7953 133.481 33.7953C133.84 33.7953 134.147 33.8223 134.826 33.8494C135.146 33.863 135.312 33.8765 135.492 33.8765C136.67 33.8765 137.822 33.5108 138.59 32.8606C139.5 32.1021 140.025 30.9101 140.025 29.7046C140.025 28.3365 139.32 27.131 138.283 26.359C137.451 25.763 136.644 25.5869 135.594 25.5869C135.172 25.5869 134.813 25.614 134.493 25.6546C133.955 25.7088 133.533 25.7901 133.136 25.7901ZM135.287 25.8578C136.094 25.8578 137.195 25.9932 138.053 26.9143C138.36 27.2529 138.603 27.6593 138.77 28.0927C138.962 28.621 139.051 29.1899 139.051 29.7588C139.051 31.032 138.655 31.9802 138.117 32.5762C137.669 33.0774 136.887 33.6056 135.658 33.6056C135.389 33.6056 135.018 33.565 134.698 33.5108C134.378 33.4566 133.968 33.3212 133.865 33.118C133.776 32.9419 133.75 32.2917 133.75 30.0568C133.75 27.1988 133.776 26.359 133.878 26.1829C133.981 26.0068 134.467 25.8578 135.287 25.8578Z" fill="white"/>
<path d="M144.304 29.8536C144.829 28.8919 146.174 26.535 146.673 26.0474C146.865 25.8578 147.006 25.8307 147.339 25.763C147.39 25.7494 147.442 25.7494 147.442 25.6817C147.442 25.614 147.403 25.6004 147.313 25.6004C147.262 25.6004 146.968 25.6411 146.763 25.6546C146.596 25.6681 146.494 25.6681 146.353 25.6681C145.674 25.6681 145.316 25.5869 145.124 25.5869C145.021 25.5869 145.009 25.614 145.009 25.6546C145.009 25.6952 145.085 25.7359 145.137 25.7494C145.265 25.7765 145.393 25.7901 145.508 25.8307C145.649 25.8713 145.879 25.9526 145.879 26.2235C145.879 26.3454 145.841 26.5079 145.636 26.9278C145.585 27.0227 145.418 27.3748 144.509 28.919L144.112 29.5962L142.947 27.9166C142.742 27.6322 142.473 27.2529 142.23 26.8737C141.91 26.3725 141.884 26.237 141.884 26.1558C141.884 25.9391 142.089 25.8442 142.358 25.8036C142.46 25.7901 142.588 25.763 142.588 25.6952C142.588 25.6681 142.576 25.6275 142.499 25.6275C142.396 25.6275 142.307 25.6411 142.204 25.6546C141.948 25.6952 141.692 25.7088 141.449 25.7088C141.205 25.7088 140.757 25.6817 140.437 25.6411C140.284 25.6275 140.168 25.614 140.015 25.614C139.963 25.614 139.874 25.614 139.874 25.6952C139.874 25.7901 140.066 25.7901 140.155 25.8036C140.245 25.8171 140.36 25.8442 140.463 25.912C140.578 25.9797 140.847 26.21 141.795 27.5509C142.102 27.9844 142.396 28.4178 142.691 28.8648L143.459 30.0161C143.472 30.3277 143.485 30.8966 143.485 31.4926V32.4678C143.485 33.3889 143.395 33.5108 143.152 33.6192C142.985 33.6869 142.742 33.714 142.652 33.7275C142.588 33.7411 142.512 33.7275 142.512 33.8494C142.512 33.9172 142.588 33.9172 142.627 33.9172C142.768 33.9172 143.075 33.8765 143.19 33.8494C143.408 33.8088 143.766 33.7953 144.023 33.7953C144.829 33.7953 144.893 33.863 145.201 33.863C145.29 33.863 145.303 33.8359 145.303 33.7817C145.303 33.7275 145.29 33.6869 145.162 33.6733C145.047 33.6598 144.816 33.6463 144.612 33.5379C144.535 33.4973 144.432 33.4295 144.394 33.3483C144.317 33.1857 144.304 31.4248 144.304 30.5173V29.8536Z" fill="white"/>
<path d="M149.514 29.5285V28.2553C149.514 27.9844 149.527 26.8872 149.565 26.6163C149.604 26.2912 149.68 26.1558 149.693 26.1422C149.783 26.0068 149.949 25.912 150.231 25.8442C150.346 25.8171 150.474 25.8171 150.474 25.7223C150.474 25.7088 150.474 25.6411 150.372 25.6411C150.321 25.6411 150.026 25.6817 149.488 25.6817C148.425 25.6817 148.297 25.614 148.054 25.614C147.952 25.614 147.875 25.614 147.875 25.6952C147.875 25.7765 147.952 25.7765 148.016 25.7901C148.144 25.8036 148.285 25.8442 148.413 25.9391C148.502 26.0068 148.579 26.088 148.63 26.2641C148.682 26.4267 148.694 26.7924 148.694 26.9278V30.0703C148.694 30.3954 148.682 30.7205 148.669 31.0456C148.605 32.5762 148.579 33.3076 148.361 33.5108C148.285 33.5785 148.157 33.6192 147.965 33.6598C147.798 33.7004 147.747 33.7004 147.747 33.7817C147.747 33.8494 147.772 33.863 147.875 33.863C148.118 33.863 148.195 33.7953 149.079 33.7953C149.796 33.7953 150.205 33.8901 150.244 33.8901C150.282 33.8901 150.346 33.8765 150.346 33.8088C150.346 33.7411 150.18 33.7004 150.141 33.6869C150.026 33.6463 149.898 33.6192 149.732 33.4973C149.591 33.3889 149.501 33.1451 149.501 32.5897V30.1381C149.501 30.111 149.501 30.0568 149.54 30.0568C149.565 30.0568 149.591 30.0839 149.668 30.1516C150.103 30.5173 150.525 30.883 150.935 31.2488L152.024 32.2511C152.382 32.5897 152.754 32.9284 153.048 33.2941C153.163 33.4431 153.189 33.4837 153.189 33.5243C153.189 33.6327 153.01 33.6327 152.843 33.6869C152.805 33.7004 152.728 33.714 152.728 33.7953C152.728 33.8359 152.754 33.863 152.843 33.863C152.907 33.863 153.458 33.7953 153.778 33.7953C154.341 33.7953 154.533 33.8359 154.751 33.8359C154.79 33.8359 154.828 33.8359 154.828 33.7546C154.828 33.7004 154.777 33.6598 154.713 33.6327C154.623 33.5921 154.495 33.5108 154.418 33.4566C154.021 33.1451 153.752 32.8606 153.483 32.6033L150.116 29.4473L152.305 27.131C153.061 26.3319 153.317 26.1287 153.407 26.061C153.509 25.9797 153.624 25.912 153.752 25.8578C153.88 25.8036 154.034 25.8307 154.034 25.7088C154.034 25.6817 154.034 25.614 153.932 25.614C153.752 25.614 153.112 25.7088 152.715 25.7088C152.574 25.7088 152.254 25.6952 152.011 25.6952C151.896 25.6952 151.883 25.7494 151.883 25.7765C151.883 25.8578 152.036 25.8713 152.101 25.8849C152.357 25.9255 152.523 26.0203 152.523 26.2235C152.523 26.4538 152.049 27.0091 151.716 27.3748L149.616 29.6369C149.591 29.664 149.578 29.664 149.527 29.664C149.514 29.664 149.514 29.6098 149.514 29.5285Z" fill="white"/>
<path d="M154.819 29.6911C154.819 30.734 155.165 31.926 156.138 32.8742C156.906 33.6192 157.88 33.9713 158.853 33.9713C160.21 33.9713 161.106 33.3347 161.593 32.8877C162.733 31.8177 162.937 30.4902 162.937 29.6775C162.937 28.3907 162.412 27.1581 161.491 26.386C160.786 25.7901 159.877 25.4785 158.942 25.4785C157.816 25.4785 156.727 25.9661 155.984 26.7518C155.344 27.4155 154.819 28.4178 154.819 29.6911ZM158.609 25.912C159.634 25.912 160.402 26.3725 161.017 27.0904C161.811 28.0115 162.118 29.1628 162.118 30.1787C162.118 31.4113 161.67 32.2917 161.145 32.7929C160.709 33.2128 160.056 33.5108 159.275 33.5108C158.866 33.5108 157.521 33.416 156.509 31.9667C156.151 31.4384 155.639 30.5038 155.639 29.2305C155.639 28.3907 155.805 27.5509 156.445 26.8466C156.881 26.359 157.598 25.912 158.609 25.912Z" fill="white"/>
<path d="M169.236 25.5869C169.134 25.5869 169.121 25.6275 169.121 25.6681C169.121 25.763 169.3 25.8036 169.403 25.8171C169.531 25.8307 169.774 25.8578 169.774 26.21C169.774 26.5621 169.275 27.8354 169.146 28.1605C168.609 29.515 167.7 31.5874 167.597 31.8312C167.341 32.4272 167.29 32.5356 167.264 32.5356C167.213 32.5356 167.149 32.3053 166.662 31.1404C166.214 30.0703 165.369 28.1334 165.011 27.2529C164.665 26.386 164.614 26.21 164.614 26.1016C164.614 25.9391 164.703 25.8849 164.818 25.8578C164.934 25.8307 165.075 25.8171 165.164 25.8036C165.318 25.7765 165.318 25.7088 165.318 25.6952C165.318 25.614 165.267 25.614 165.228 25.614C165.151 25.614 164.754 25.6681 164.089 25.6681C163.692 25.6681 163.333 25.6275 162.923 25.6275C162.77 25.6275 162.757 25.6546 162.757 25.7088C162.757 25.763 162.77 25.7901 162.808 25.8036C162.885 25.8307 163.051 25.8036 163.231 25.9255C163.461 26.0745 163.704 26.4944 163.96 27.0362C164.345 27.8218 164.69 28.5804 165.011 29.3524C166.534 32.8606 166.803 33.4566 166.88 33.7817C166.893 33.8494 166.931 33.9713 167.046 33.9713C167.213 33.9713 167.277 33.5243 167.341 33.3212C167.405 33.118 167.546 32.7252 168.058 31.5061L168.929 29.4608L169.736 27.5645C170.094 26.7247 170.273 26.3996 170.453 26.1829C170.606 25.9932 170.773 25.8713 171.003 25.8307C171.08 25.8171 171.157 25.7901 171.157 25.6952C171.157 25.614 171.106 25.614 171.042 25.614C170.619 25.614 170.35 25.6546 170.094 25.6546C169.774 25.6546 169.505 25.5869 169.236 25.5869Z" fill="white"/>
<path d="M175.733 32.969C175.771 33.0774 175.797 33.1993 175.797 33.3076C175.797 33.3889 175.759 33.5514 175.554 33.6463C175.426 33.7004 175.208 33.714 175.208 33.8223C175.208 33.8765 175.259 33.8901 175.323 33.8901H175.413C175.592 33.8901 175.746 33.863 175.887 33.8359C176.117 33.8088 176.284 33.7953 176.565 33.7953C177.039 33.7953 177.282 33.8359 177.436 33.8359C177.487 33.8359 177.5 33.8223 177.5 33.7546C177.5 33.714 177.487 33.714 177.462 33.7004C177.41 33.6733 177.27 33.6463 177.206 33.6192C177.078 33.565 176.962 33.4837 176.873 33.3754C176.719 33.1993 176.578 32.9013 176.373 32.373C175.567 30.3277 175.067 29.0951 174.683 28.0386C174.478 27.4561 174.017 26.1964 173.94 25.8578C173.915 25.7359 173.876 25.5598 173.8 25.5598C173.774 25.5598 173.748 25.5733 173.735 25.5869C173.71 25.614 173.659 25.7088 173.339 26.6569C172.942 27.8083 172.353 29.4879 171.956 30.5173C171.533 31.6416 171.29 32.3188 171.008 32.8877C170.867 33.1722 170.701 33.4431 170.534 33.565C170.457 33.6192 170.381 33.6598 170.304 33.6869C170.24 33.714 170.15 33.7411 170.15 33.8088C170.15 33.8765 170.214 33.8765 170.24 33.8765C170.355 33.8765 170.483 33.8494 170.637 33.8359C170.739 33.8223 170.982 33.8088 171.098 33.8088C171.251 33.8088 171.277 33.8088 171.571 33.8359C171.789 33.863 172.007 33.9036 172.212 33.9036C172.353 33.9036 172.365 33.8494 172.365 33.8223C172.365 33.7275 172.173 33.7004 172.071 33.6733C171.917 33.6327 171.815 33.6056 171.674 33.5379C171.533 33.4702 171.431 33.3347 171.431 33.1044C171.431 33.0096 171.469 32.82 171.507 32.7116L172.058 31.1133L172.096 31.0185C172.148 30.9237 172.263 30.9237 172.34 30.9237H174.785C174.978 30.9237 175.003 30.9643 175.042 31.0727L175.733 32.969ZM173.62 27.4019L174.785 30.3954C174.798 30.436 174.824 30.4902 174.824 30.5444C174.824 30.5715 174.811 30.6257 174.76 30.6257H172.365C172.314 30.6257 172.289 30.6257 172.289 30.5444C172.289 30.4767 172.378 30.2329 172.404 30.1787L173.428 27.3613C173.454 27.28 173.505 27.2665 173.531 27.2665C173.582 27.2665 173.595 27.3478 173.62 27.4019Z" fill="white"/>
</svg>
