<svg width="30" height="30" viewBox="0 0 30 30" fill="none" xmlns="http://www.w3.org/2000/svg">
<circle cx="15" cy="15" r="15" fill="#43D854"/>
<path d="M20.6226 9.32349C19.1195 7.82605 17.12 7.00085 14.9919 7C12.8687 7 10.866 7.82446 9.35303 9.32153C7.8374 10.8212 7.00195 12.8141 7 14.9259V14.9283V14.9298C7.00024 16.208 7.33606 17.4974 7.97351 18.6744L7.02185 23L11.3972 22.0048C12.5054 22.5632 13.7418 22.8577 14.9889 22.8582H14.9921C17.115 22.8582 19.1177 22.0336 20.6309 20.5364C22.1478 19.0355 22.9836 17.0452 22.9846 14.932C22.9852 12.8337 22.1465 10.8419 20.6226 9.32349ZM14.9919 21.6094H14.9891C13.8694 21.6089 12.7599 21.3278 11.7808 20.7961L11.5739 20.6838L8.66443 21.3456L9.29639 18.4735L9.17456 18.2634C8.56885 17.2189 8.24878 16.0658 8.24878 14.9285C8.2511 11.2472 11.2758 8.24878 14.9917 8.24878C16.7869 8.24951 18.4736 8.94543 19.7412 10.2081C21.028 11.4904 21.7363 13.1678 21.7357 14.9316C21.7343 18.6138 18.709 21.6094 14.9919 21.6094Z" fill="white"/>
<path d="M12.8173 11.4336H12.4669C12.345 11.4336 12.147 11.4792 11.9795 11.6615C11.8119 11.8439 11.3396 12.2847 11.3396 13.1812C11.3396 14.0776 11.9948 14.9438 12.0861 15.0656C12.1775 15.1871 13.3507 17.0856 15.2089 17.8159C16.7532 18.4229 17.0675 18.3021 17.4026 18.2717C17.7378 18.2415 18.4843 17.8311 18.6366 17.4056C18.7889 16.9802 18.7889 16.6155 18.7433 16.5393C18.6975 16.4634 18.5756 16.4178 18.3928 16.3268C18.21 16.2356 17.314 15.7874 17.1464 15.7264C16.9788 15.6658 16.8569 15.6354 16.735 15.8179C16.613 16 16.254 16.4214 16.1473 16.543C16.0408 16.6647 15.9341 16.6799 15.7512 16.5887C15.5684 16.4973 14.9856 16.3015 14.2872 15.6809C13.7437 15.1979 13.3665 14.5819 13.2598 14.3995C13.1532 14.2173 13.2484 14.1187 13.3401 14.0277C13.4222 13.9462 13.5332 13.8346 13.6246 13.7283C13.7159 13.6218 13.7419 13.5459 13.803 13.4243C13.8639 13.3027 13.8334 13.1963 13.7877 13.1052C13.7419 13.014 13.3911 12.113 13.2285 11.7527H13.2286C13.0917 11.4492 12.9475 11.439 12.8173 11.4336Z" fill="white"/>
</svg>
