<svg width="45" height="40" viewBox="0 0 45 40" fill="none" xmlns="http://www.w3.org/2000/svg">
<path d="M25.8091 1.22946C29.8161 2.44504 29.8333 7.59569 32.7275 10.3104C35.0763 12.5134 39.0073 12.9709 40.968 15.4481C43.305 18.4006 45.6411 21.9756 44.7341 25.4793C43.8249 28.9916 39.4741 30.7552 36.3892 33.1362C33.3573 35.4762 30.8263 38.8175 26.8235 39.303C22.8386 39.7864 18.8276 37.9222 15.7641 35.6383C13.0972 33.6501 13.4265 29.8991 11.1167 27.5933C8.27097 24.7525 1.7101 24.6248 0.997568 20.8974C0.32009 17.3533 5.79111 15.3355 8.21998 12.4396C10.3891 9.85328 11.5491 6.67252 14.5117 4.78438C17.8141 2.67963 21.9498 0.058712 25.8091 1.22946Z" fill="#D6DDF5"/>
<rect x="17.3335" y="11.3334" width="9.33333" height="4.66667" rx="1" stroke="#66788C" stroke-width="2" stroke-linecap="round" stroke-linejoin="round"/>
<path d="M26.6665 13.6667H28.9998C30.2885 13.6667 31.3332 14.7114 31.3332 16V31.1667C31.3332 32.4554 30.2885 33.5 28.9998 33.5H14.9998C13.7112 33.5 12.6665 32.4554 12.6665 31.1667V16C12.6665 14.7114 13.7112 13.6667 14.9998 13.6667H17.3332" stroke="#66788C" stroke-width="2" stroke-linecap="round" stroke-linejoin="round"/>
<path d="M17.3335 29.4167H26.6668" stroke="#66788C" stroke-width="2" stroke-linecap="round" stroke-linejoin="round"/>
<path d="M26.6668 25.9167H17.3335" stroke="#66788C" stroke-width="2" stroke-linecap="round" stroke-linejoin="round"/>
<path d="M21.9998 22.4167V18.9167" stroke="#66788C" stroke-width="2" stroke-linecap="round" stroke-linejoin="round"/>
<path d="M23.75 20.6667H20.25" stroke="#66788C" stroke-width="2" stroke-linecap="round" stroke-linejoin="round"/>
</svg>
