<svg width="60" height="60" viewBox="0 0 60 60" fill="none" xmlns="http://www.w3.org/2000/svg">
<g clip-path="url(#clip0_2490_24285)">
<circle cx="30" cy="30" r="30" fill="#F5EEE6"/>
<path d="M-16.2209 67.5664C-14.3228 73.7475 -8.5601 77.7586 -2.65071 80.4765C2.36318 82.7825 7.83209 82.0546 13.2745 81.1322C18.9972 80.1622 25.5047 79.804 28.8929 75.1301C32.3533 70.3564 31.7664 63.7726 29.9132 58.1794C28.2566 53.1795 23.527 50.4826 19.5657 46.9796C14.3932 42.4057 10.5767 34.7474 3.65764 34.9619C-3.59149 35.1867 -8.87936 41.8247 -12.6308 47.9777C-16.2282 53.8782 -18.2492 60.9617 -16.2209 67.5664Z" fill="#CBD2B0"/>
<path d="M66.1074 53.4424C72.5714 53.5976 78.2 49.4003 82.648 44.6545C86.4221 40.6279 87.462 35.2097 88.3091 29.755C89.1997 24.0195 90.919 17.7329 87.5573 13.0399C84.1239 8.24681 77.6927 6.7203 71.8004 6.70849C66.5333 6.69794 62.4784 10.3311 57.902 12.9805C51.9264 16.4399 43.454 17.6371 41.4681 24.2685C39.3875 31.2163 44.0113 38.3329 48.6612 43.8385C53.1202 49.1182 59.2003 53.2766 66.1074 53.4424Z" fill="#CBD2B0"/>
<path d="M47.0968 53.0783C46.1433 50.7446 44.9735 48.5077 43.6033 46.3978C42.8408 45.2182 42.0567 44.1546 41.293 43.2004" stroke="#573523" stroke-width="0.5" stroke-miterlimit="10"/>
<path d="M44.2794 41.7736C42.5333 42.7046 41.0261 43.3948 39.8849 43.8854C37.924 44.7276 36.8806 45.0444 36.3342 45.1989C35.465 45.447 34.5807 45.6376 33.687 45.7693C32.9612 45.8965 32.225 45.9538 31.4885 45.9406C30.7448 45.92 30.0067 45.8049 29.2913 45.5981C28.4601 45.3573 28.1704 45.1371 27.995 44.971C27.7188 44.699 27.5072 44.367 27.3761 44.0001C27.1791 43.5056 27.1639 43.0987 27.1499 42.6299C27.1321 42.0234 27.2084 41.5689 27.3189 40.9173C27.3825 40.5465 27.5426 40.1962 27.6011 39.6039C27.6333 39.3946 27.6238 39.181 27.5731 38.9755C27.4808 38.6667 27.2933 38.3959 27.0381 38.2029" stroke="#573523" stroke-width="0.5" stroke-miterlimit="10"/>
<path d="M30.1368 36.0061C29.8089 36.1812 29.4696 36.3718 29.1201 36.5778C28.7318 36.7946 28.3555 37.0328 27.9929 37.2912C27.1656 37.935 27.1618 38.2982 26.6979 38.3767C26.4742 38.4074 26.2466 38.3725 26.0419 38.2762C25.8372 38.1799 25.664 38.0262 25.5427 37.8333C25.253 37.3414 25.4995 36.7774 25.5986 36.5456C25.9799 35.6661 26.8962 35.3751 27.0919 35.3171" stroke="#573523" stroke-width="0.5" stroke-miterlimit="10"/>
<path d="M30.1407 36.0783C30.1572 36.0396 29.7188 35.6147 28.8406 34.7648C28.6017 34.533 28.3768 34.3154 28.0667 34.0437C27.6791 33.7051 27.4503 33.5467 26.4146 32.6028C25.5593 31.8302 25.2124 31.4748 24.8896 31.5958C24.5084 31.7426 24.4283 32.4624 24.4245 32.4972C24.4121 32.7852 24.4702 33.0719 24.5935 33.3316C25.2391 34.6554 29.95 36.52 30.1407 36.0783Z" stroke="#573523" stroke-width="0.5" stroke-miterlimit="10"/>
<path d="M24.9084 31.6293C25.1744 31.4522 25.4122 31.2351 25.6137 30.9854C25.7842 30.8054 25.9142 30.5902 25.9949 30.3544C26.1436 29.8394 25.9237 29.3719 25.8259 29.1608C25.7407 28.9792 25.6162 28.7744 25.0914 28.2349C24.3428 27.4726 24.081 27.3722 23.5803 26.7631C23.2664 26.3768 23.1051 26.1772 23.0313 25.8424C22.952 25.4083 23.0244 24.9599 23.2359 24.574C23.3986 24.265 23.5524 24.171 23.9984 23.7177C24.034 23.6816 24.3136 23.3649 24.8728 22.7326C25.9987 21.4578 26.5617 20.8204 26.873 20.3336C27.295 19.6743 27.6432 19.1297 27.802 18.3364C27.9799 17.4518 27.7563 17.0835 27.5479 15.4533C27.4627 14.7863 27.3026 13.5282 27.3788 12.2843C27.3992 11.9366 27.4665 11.1331 28.1108 9.06507C28.6827 7.22368 29.2381 5.43379 30.4492 3.24085C30.7897 2.62405 31.4035 1.73683 32.6185 -0.0414659C33.4877 -1.324 34.5806 -2.44043 34.8119 -3.18858C34.8672 -3.38559 34.9744 -3.56363 35.122 -3.70365C35.3452 -3.88726 35.6236 -3.98811 35.9112 -3.98952C37.7056 -4.09769 39.2916 -3.3328 39.2916 -3.3328C40.4747 -2.45975 41.3808 -1.75924 41.9971 -1.2725C42.8117 -0.628652 42.9922 -0.472842 43.4332 -0.215304C44.183 0.221223 44.554 0.276594 45.1526 0.782656C45.4619 1.05772 45.7441 1.36262 45.9952 1.69305C46.3871 2.17398 46.7459 2.68167 47.069 3.21253C48.0857 4.84532 48.3398 4.86205 49.2663 6.35191C49.7193 7.09062 50.1333 7.85314 50.5066 8.63627C51.5563 10.7622 52.1485 12.4813 52.6759 14.0317C53.446 16.2942 53.8679 17.9669 54.2009 19.2842C54.6495 21.0779 54.8655 22.2343 54.9329 23.6237C54.9627 24.2242 54.9627 24.8259 54.9329 25.4265" stroke="#573523" stroke-width="0.5" stroke-miterlimit="10"/>
<path d="M29.4609 15.0593C29.3948 14.9138 29.3059 14.709 29.2067 14.4605C29.0059 13.9454 28.9932 13.8282 29.0085 13.7175C29.0377 13.5127 29.1572 13.3492 29.3758 13.147C29.5943 12.9449 30.1738 12.4646 31.3468 12.1169C31.7045 12.0027 32.0729 11.9258 32.4461 11.8877C32.8875 11.8305 33.3353 11.8501 33.7703 11.9456C33.9571 11.9907 34.1782 12.0615 34.8695 12.4311C35.3744 12.6867 35.8645 12.9714 36.3373 13.2835C36.4771 13.3762 38.4978 14.727 38.3707 14.9678C38.2436 15.2086 36.0057 13.5333 33.2429 13.6801C31.6632 13.7716 30.3784 14.4244 29.4609 15.0593Z" stroke="#573523" stroke-width="0.5" stroke-miterlimit="10"/>
<path d="M25.1777 26.6716C25.4156 26.7061 25.6449 26.7856 25.8538 26.906C26.8298 27.4661 26.6163 28.5864 27.4881 29.0474C27.9342 29.2856 28.5594 29.2934 28.9254 28.9908C29.252 28.7203 29.3066 28.2593 29.3473 27.9052C29.3887 27.5511 29.3602 27.1922 29.2634 26.8493" stroke="#573523" stroke-width="0.5" stroke-miterlimit="10"/>
<path d="M32.5025 15.9091C32.1386 16.397 31.9251 16.983 31.8887 17.5934C31.8811 17.7467 31.8887 17.9617 32.0298 18.7356C32.1569 19.4142 32.2839 19.9782 32.3958 20.3916" stroke="#573523" stroke-width="0.5" stroke-miterlimit="10"/>
<path d="M36.7855 19.5662C35.9714 20.0569 35.0727 20.3863 34.1371 20.5371C32.419 20.8036 31.1355 20.3414 31.0948 20.5088C31.0541 20.6762 32.2182 21.2402 33.5742 21.3689C34.2566 21.4262 34.9437 21.3683 35.6075 21.1977" stroke="#573523" stroke-width="0.5" stroke-miterlimit="10"/>
<path d="M34.9826 19.5352C34.4151 19.7759 33.8317 19.976 33.2365 20.134C32.5445 20.3175 31.8391 20.4442 31.127 20.5126" stroke="#573523" stroke-width="0.5" stroke-miterlimit="10"/>
<path d="M56.3057 49.9092C56.3679 49.6401 56.4645 49.2332 56.5878 48.7387C56.8305 47.7588 56.8712 47.6648 56.9538 47.254C57.0732 46.6552 57.0122 46.7183 57.1787 45.5993C57.2969 44.8087 57.3299 44.7533 57.4329 44C57.4913 43.5699 57.4913 43.5055 57.5727 42.8862C57.6705 42.1599 58.6509 45.8048 58.5003 43C58.5003 42 58.1021 37.8001 57.7493 35.8656C57.5003 34.5 57.5532 34.1175 57.4329 33.2376C57.3147 32.3787 57.2511 32.3001 57.1508 31.5816C56.8648 29.5419 56.9131 29.1736 57.0097 28.8981C57.2054 28.3431 57.4075 28.3972 57.7493 27.5705C57.9418 27.0965 58.0766 26.6005 58.1509 26.0935C58.2598 25.4069 58.2884 24.7098 58.236 24.0164C58.1725 23.1048 58.0365 22.9773 58.0238 22.3038C58.0111 21.5183 58.1992 20.9196 58.3415 20.4199C58.5098 19.8342 58.7363 19.2673 59.0176 18.7279C59.3245 18.1571 59.6777 17.6131 60.0736 17.1016C60.2744 16.8247 60.5527 16.4435 60.9632 15.9671C61.563 15.2653 61.6978 15.2318 61.9557 14.8082C62.3675 14.1347 62.37 13.6493 62.5263 13.6493C62.811 13.6493 63.041 15.2421 63.055 15.34C63.4858 18.4227 63.7018 19.9628 62.9279 21.5917C61.7664 24.0383 58.968 25.0093 58.2449 25.2462" stroke="#573523" stroke-width="0.5" stroke-miterlimit="10"/>
<path d="M58.3135 25.1522C58.7339 24.5479 59.1062 23.9106 59.4267 23.2464C59.6479 22.7841 59.7927 22.4042 60.0469 21.7334C60.3011 21.0625 60.4764 20.5345 60.5819 20.2203C60.9492 19.1219 60.9123 19.1052 61.0902 18.7073C61.3126 18.2051 61.3813 18.2077 61.8794 17.3089C62.3268 16.4989 62.5492 16.0946 62.6419 15.7096C62.7659 15.023 62.7249 14.3164 62.5225 13.6493" stroke="#573523" stroke-width="0.5" stroke-miterlimit="10"/>
<path d="M57.5493 27.9812C57.5033 27.7557 57.4236 27.5385 57.313 27.3374C57.1545 27.0544 56.9281 26.8165 56.6547 26.6459C55.9761 26.1784 55.6151 26.0458 54.9848 25.6749C54.2045 25.2152 54.235 25.1096 53.6123 24.8083C53.1675 24.592 52.8079 24.422 52.3021 24.3692C51.7124 24.3113 51.2664 24.4568 50.7771 24.6152C50.1827 24.813 49.62 25.098 49.1072 25.4612C48.527 25.8516 48.0012 26.3194 47.5441 26.8519C47.4996 26.9034 47.1628 27.1648 47.0472 27.4957C47.0111 27.611 46.9864 27.7296 46.9735 27.8499C46.9619 27.9422 46.9619 28.0357 46.9735 28.128C46.9965 28.234 47.0284 28.3378 47.0688 28.4383C47.1018 28.6753 46.6494 28.8942 46.0432 29.2946C45.7352 29.4957 45.4382 29.7136 45.1537 29.9475C44.8698 30.1674 44.6111 30.4188 44.3823 30.6969C44.1589 30.9794 43.9707 31.2886 43.8218 31.6176C43.675 31.9362 43.5584 32.2682 43.4736 32.6092C43.2979 33.3471 43.2408 34.1089 43.3046 34.8652C43.3288 35.2129 43.3605 35.3301 43.3605 35.6932C43.3605 36.2778 43.2792 36.6358 43.3605 36.6628C43.4419 36.6899 43.56 36.283 43.9807 35.9211C44.1514 35.7805 44.341 35.6652 44.5437 35.5786C45.2528 35.2309 45.052 35.2657 45.953 34.806C46.9011 34.3257 46.8578 34.4197 47.8682 33.9213C48.3858 33.6838 48.8849 33.407 49.3614 33.0933C49.7922 32.7998 49.8697 32.689 50.1506 32.5512C50.7555 32.2512 51.0008 32.5229 51.8128 32.3516C52.3079 32.2475 52.7773 32.0434 53.1929 31.7516C53.5741 31.4973 53.9002 31.1669 54.1511 30.7806C54.3291 30.4999 54.3761 30.3184 54.6302 30.0673C54.8114 29.8767 55.033 29.7305 55.2784 29.6398C55.6266 29.5174 55.7689 29.6166 56.1514 29.5251C56.4272 29.4608 56.6908 29.3511 56.9317 29.2007" stroke="#573523" stroke-width="0.5" stroke-miterlimit="10"/>
<path d="M55.3209 26.0046C55.1761 26.0137 54.9778 26.0304 54.7427 26.0613C54.3357 26.1111 53.933 26.192 53.538 26.3034C53.0423 26.4323 52.5736 26.6503 52.154 26.9472C51.5644 27.3876 51.2912 27.9091 50.8616 28.7242C50.6143 29.1871 50.4162 29.6753 50.2707 30.1806C50.1587 30.5915 50.083 31.0116 50.0445 31.4361C50.0085 31.8213 50.0022 32.2088 50.0254 32.595" stroke="#573523" stroke-width="0.5" stroke-miterlimit="10"/>
<path d="M43.4531 36.4129C43.8331 35.9069 44.171 35.3698 44.4634 34.8072C44.8892 34.0565 44.9362 33.768 45.4038 32.9452C45.7432 32.349 45.9643 31.9588 46.3443 31.521C46.5984 31.23 46.789 31.0691 48.3509 29.9372C49.2735 29.2689 49.4514 29.1491 49.9153 28.8014C50.5265 28.3456 51.1137 27.9722 51.4403 27.7121" stroke="#573523" stroke-width="0.5" stroke-miterlimit="10"/>
<path d="M46.1918 31.7026C46.019 31.767 45.6416 31.861 45.3124 31.9602C44.9833 32.0593 44.8257 32.089 44.6313 32.1533C44.2226 32.2841 43.8322 32.4676 43.4697 32.6993" stroke="#573523" stroke-width="0.5" stroke-miterlimit="10"/>
<path d="M54.7923 22.7751C54.4911 22.5639 54.2306 22.3888 54.0298 22.2677C53.1262 21.696 53.3753 21.9613 52.9381 21.6612C52.8241 21.5628 52.68 21.5073 52.5302 21.5041C52.3752 21.5157 52.2913 21.6059 52.1007 21.754C51.8763 21.922 51.6411 22.0747 51.3966 22.2111C51.1855 22.3349 50.9607 22.433 50.7269 22.5034C50.3708 22.5972 50.0004 22.6217 49.6353 22.5755C49.23 22.5421 48.8289 22.4679 48.4381 22.354C47.7913 22.1737 47.668 22.0553 46.5751 21.6612C46.2719 21.541 45.9611 21.4412 45.6449 21.3625C45.1925 21.2698 44.9345 21.2955 44.1199 21.3187C43.0282 21.3509 42.4742 21.3664 42.0599 21.2981C41.6457 21.2199 41.2366 21.1163 40.8348 20.9878C40.2223 20.8088 40.0825 20.6736 39.6199 20.5912C38.9946 20.4804 38.7303 20.5912 38.6795 20.474C38.5651 20.201 39.7698 19.4207 40.4434 18.9854C40.8327 18.7171 41.2385 18.474 41.6583 18.2579C42.2023 17.989 42.7721 17.7772 43.3587 17.6256C44.0195 17.457 44.6663 17.4132 45.9588 17.3256C46.34 17.2999 46.035 17.3256 47.5536 17.2625C47.99 17.2258 48.4289 17.2327 48.8639 17.2831C49.1688 17.3118 49.4683 17.3837 49.7534 17.4969C50.1347 17.6604 50.3698 17.8677 50.7993 18.2579C51.1173 18.5493 51.4174 18.8602 51.6978 19.1889C52.2811 19.8508 52.2061 19.8546 52.5531 20.219C52.9437 20.6124 53.3764 20.9605 53.843 21.2569C54.1228 21.4452 54.413 21.6172 54.7122 21.772" stroke="#573523" stroke-width="0.5" stroke-miterlimit="10"/>
<path d="M54.2139 19.346C54.3066 19.194 54.524 18.8309 54.6739 18.518C54.9992 17.8471 55.4135 16.7551 55.5876 13.9969C55.6817 12.5161 55.7274 11.7756 55.5876 11.2129C55.3063 10.1509 54.7525 9.18329 53.9826 8.40834C53.7983 8.2242 53.9038 8.35426 52.3127 7.10262C50.9847 6.05702 50.7763 5.86 50.559 5.62564C49.8994 4.91098 50.0011 4.75517 49.3339 4.0199C49.1966 3.86924 48.8548 3.50482 47.6221 2.56352C47.0655 2.13987 46.317 1.58874 45.3994 0.9758" stroke="#573523" stroke-width="0.5" stroke-miterlimit="10"/>
<path d="M52.5186 13.5629C52.5859 13.3775 52.6965 12.9745 52.8248 12.6371C53.0663 12.0061 53.1413 11.8439 53.3687 11.2567C53.5761 10.7632 53.7551 10.258 53.905 9.74365C53.9996 9.36868 54.065 8.98679 54.1007 8.60147" stroke="#573523" stroke-width="0.5" stroke-miterlimit="10"/>
<path d="M50.9133 9.48228C50.8967 9.0509 50.8878 8.39161 50.9006 7.91259C50.9184 7.26874 50.9641 6.65966 51.0277 6.09952" stroke="#573523" stroke-width="0.5" stroke-miterlimit="10"/>
<path d="M52.7621 14.2867C52.4482 14.203 51.9996 14.1952 51.6184 14.1463C50.905 14.0548 50.1828 14.0596 49.4707 14.1605" stroke="#573523" stroke-width="0.5" stroke-miterlimit="10"/>
<path d="M51.1359 9.97286C50.6352 9.8853 49.9846 9.71533 49.4254 9.57239C48.7468 9.39727 48.1241 9.20154 47.5586 8.9968" stroke="#573523" stroke-width="0.5" stroke-miterlimit="10"/>
<path d="M54.2377 19.4374C53.8511 19.2441 53.4809 19.0188 53.1308 18.764C52.0544 17.9488 51.8371 17.3063 50.4112 15.3902C49.6487 14.3729 49.373 14.0935 48.7198 13.1071C47.9573 11.9482 47.7806 11.4859 47.7031 10.994C47.637 10.5614 47.6828 10.3231 47.5913 9.50933C47.5214 8.8951 47.4286 8.46115 47.3651 8.13923C47.2189 7.40267 47.0003 5.95015 46.8796 5.2342C46.6718 4.03324 46.3761 2.8496 45.9951 1.69305" stroke="#573523" stroke-width="0.5" stroke-miterlimit="10"/>
<path d="M49.3722 17.3771C48.9317 17.1111 48.5093 16.8156 48.1077 16.4924C47.3808 15.9207 46.9373 15.4108 46.2421 14.6021C45.5241 13.769 45.1607 13.3415 44.9599 12.8251C44.7651 12.3083 44.6577 11.762 44.6422 11.209C44.632 10.9219 44.6498 10.7712 44.7489 9.74237C44.8175 9.02255 44.8684 8.48172 44.8862 8.27569C45.0247 6.58367 44.5278 5.681 44.7375 5.57155C44.9205 5.47239 45.6271 6.05829 47.5053 8.88477" stroke="#573523" stroke-width="0.5" stroke-miterlimit="10"/>
</g>
<defs>
<clipPath id="clip0_2490_24285">
<rect width="60" height="60" rx="30" fill="white"/>
</clipPath>
</defs>
</svg>
