<svg width="45" height="40" viewBox="0 0 45 40" fill="none" xmlns="http://www.w3.org/2000/svg">
<path d="M43.6619 11.2518C43.1019 9.466 42.1817 7.7356 40.8117 7.05887C38.3291 5.83467 35.7248 8.48511 33.0761 8.61546C29.781 8.77731 27.1931 5.14816 24.2772 3.1147C20.0356 0.157926 14.8533 0.601117 10.268 2.45643C5.87272 4.23462 1.36062 7.91266 0.318731 13.8284C-0.550467 18.7849 1.61636 24.365 5.17045 26.3202C9.05512 28.4602 13.9257 26.5777 17.405 29.7061C19.233 31.3518 20.3078 34.0989 21.9336 36.0759C25.2081 40.0732 30.4594 40.3285 34.4502 37.7009C38.4409 35.0732 46.5885 23.4026 43.6619 11.2518Z" fill="#D6DDF5"/>
<path d="M16.5002 25.6667H11.8335C9.9005 25.6667 8.3335 24.0997 8.3335 22.1667V14C8.3335 12.067 9.9005 10.5 11.8335 10.5H27.0002C28.9332 10.5 30.5002 12.067 30.5002 14V21" stroke="#66788C" stroke-width="2" stroke-linecap="round" stroke-linejoin="round"/>
<path fill-rule="evenodd" clip-rule="evenodd" d="M23.5 26.833V21.5833C23.5 20.6168 24.2835 19.8333 25.25 19.8333V19.8333C26.2165 19.8333 27 20.6168 27 21.5833V24.2091L29.7086 24.6508C30.947 24.8528 31.804 25.9979 31.6484 27.243L31.2261 30.6226C31.0802 31.7903 30.0876 32.6666 28.9108 32.6666H24.4821C23.7018 32.6666 22.9732 32.2767 22.5405 31.6275L20.2771 28.2319C19.8409 27.5775 19.9271 26.7061 20.4833 26.1499H20.4834C20.7928 25.8405 21.2125 25.6666 21.6501 25.6666C22.0878 25.6666 22.5075 25.8405 22.8169 26.1499L23.5 26.833Z" stroke="#66788C" stroke-width="2" stroke-linecap="round" stroke-linejoin="round"/>
<path fill-rule="evenodd" clip-rule="evenodd" d="M16.302 15.7701L16.4999 15.9711L16.7046 15.7548C17.0519 15.3843 17.5356 15.1718 18.0434 15.1667C18.5512 15.1616 19.0391 15.3643 19.3937 15.7278L19.4354 15.7701C20.1882 16.5437 20.1882 17.776 19.4354 18.5496L17.3887 20.6277C17.1543 20.8659 16.8341 21 16.4999 21C16.1658 21 15.8456 20.8659 15.6112 20.6277L13.5646 18.5496C12.8118 17.776 12.8118 16.5437 13.5646 15.7701V15.7701C13.9256 15.4034 14.4187 15.1968 14.9333 15.1968C15.4479 15.1968 15.941 15.4034 16.302 15.7701V15.7701Z" stroke="#66788C" stroke-width="2" stroke-linecap="round" stroke-linejoin="round"/>
</svg>
