<svg width="32" height="32" viewBox="0 0 32 32" fill="none" xmlns="http://www.w3.org/2000/svg">
<path d="M12.7587 25.3468L12.9173 25.8068C13.4667 27.4028 15.2053 28.2508 16.8013 27.7014V27.7014C18.3973 27.1521 19.2453 25.4134 18.696 23.8174L18.5373 23.3574" stroke="white" stroke-width="1.5" stroke-linecap="round" stroke-linejoin="round"/>
<path d="M14.6468 6.93888L14.2481 5.78154C13.8081 4.50554 12.4175 3.82688 11.1401 4.26688V4.26688C9.86412 4.70688 9.18545 6.09754 9.62412 7.37354L10.0228 8.53088" stroke="white" stroke-width="1.5" stroke-linecap="round" stroke-linejoin="round"/>
<path fill-rule="evenodd" clip-rule="evenodd" d="M7.40539 15.6882V15.6882C6.31873 12.5336 7.99606 9.09489 11.1507 8.00822L13.4361 7.22156C16.5907 6.13489 20.0294 7.81222 21.1161 10.9669V10.9669L22.3294 14.4922C22.5601 15.1616 23.0467 15.7109 23.6814 16.0202L24.7681 16.5496C25.4041 16.8602 25.8907 17.4096 26.1201 18.0776V18.0776C26.5734 19.3936 25.8734 20.8282 24.5574 21.2816L11.0441 25.9349C9.72806 26.3882 8.29339 25.6882 7.84006 24.3722V24.3722C7.60939 23.7029 7.65473 22.9709 7.96406 22.3349L8.49339 21.2482C8.80406 20.6122 8.84806 19.8802 8.61739 19.2109L7.40539 15.6882Z" stroke="white" stroke-width="1.5" stroke-linecap="round" stroke-linejoin="round"/>
</svg>
