<svg width="16" height="17" viewBox="0 0 16 17" fill="none" xmlns="http://www.w3.org/2000/svg">
<path d="M11.488 10.1737C11.552 9.64573 11.6 9.11773 11.6 8.57373C11.6 8.02973 11.552 7.50173 11.488 6.97373H14.192C14.32 7.48573 14.4 8.02173 14.4 8.57373C14.4 9.12573 14.32 9.66173 14.192 10.1737H11.488ZM10.072 14.6217C10.552 13.7337 10.92 12.7737 11.176 11.7737H13.536C12.7609 13.1084 11.5313 14.1193 10.072 14.6217ZM9.872 10.1737H6.128C6.048 9.64573 6 9.11773 6 8.57373C6 8.02973 6.048 7.49373 6.128 6.97373H9.872C9.944 7.49373 10 8.02973 10 8.57373C10 9.11773 9.944 9.64573 9.872 10.1737ZM8 14.9417C7.336 13.9817 6.8 12.9177 6.472 11.7737H9.528C9.2 12.9177 8.664 13.9817 8 14.9417ZM4.8 5.37373H2.464C3.23108 4.0355 4.45984 3.02292 5.92 2.52573C5.44 3.41373 5.08 4.37373 4.8 5.37373ZM2.464 11.7737H4.8C5.08 12.7737 5.44 13.7337 5.92 14.6217C4.4629 14.1191 3.23588 13.1079 2.464 11.7737ZM1.808 10.1737C1.68 9.66173 1.6 9.12573 1.6 8.57373C1.6 8.02173 1.68 7.48573 1.808 6.97373H4.512C4.448 7.50173 4.4 8.02973 4.4 8.57373C4.4 9.11773 4.448 9.64573 4.512 10.1737H1.808ZM8 2.19773C8.664 3.15773 9.2 4.22973 9.528 5.37373H6.472C6.8 4.22973 7.336 3.15773 8 2.19773ZM13.536 5.37373H11.176C10.9256 4.3829 10.5549 3.42645 10.072 2.52573C11.544 3.02973 12.768 4.04573 13.536 5.37373ZM8 0.57373C3.576 0.57373 0 4.17373 0 8.57373C0 10.6955 0.842855 12.7303 2.34315 14.2306C3.08601 14.9735 3.96793 15.5627 4.93853 15.9648C5.90914 16.3668 6.94943 16.5737 8 16.5737C10.1217 16.5737 12.1566 15.7309 13.6569 14.2306C15.1571 12.7303 16 10.6955 16 8.57373C16 7.52316 15.7931 6.48287 15.391 5.51226C14.989 4.54166 14.3997 3.65974 13.6569 2.91688C12.914 2.17401 12.0321 1.58473 11.0615 1.18269C10.0909 0.780657 9.05058 0.57373 8 0.57373Z" fill="#66788C"/>
</svg>
