<svg width="18" height="18" viewBox="0 0 18 18" fill="none" xmlns="http://www.w3.org/2000/svg">
<g clip-path="url(#clip0_9_2688)">
<path fill-rule="evenodd" clip-rule="evenodd" d="M15.3254 2.61392C13.6344 0.929306 11.385 0.000961305 8.99094 0C6.60223 0 4.34921 0.927521 2.64716 2.61172C0.942078 4.29881 0.00219727 6.54085 0 8.91664V8.92104C0.000274658 10.359 0.378067 11.8096 1.0952 13.1337L0.0245819 18L4.94687 16.8804C6.19354 17.5086 7.58455 17.8399 8.9875 17.8404H8.99107C11.3794 17.8404 13.6324 16.9128 15.3347 15.2284C17.0413 13.54 17.9816 11.3008 17.9827 8.92351C17.9834 6.56296 17.0398 4.32216 15.3254 2.61392ZM6.15056 4.98724H6.54469C6.69122 4.99329 6.85341 5.00482 7.00749 5.34622C7.11374 5.58168 7.29128 6.02233 7.43167 6.37048C7.53298 6.62174 7.61487 6.82483 7.63646 6.86783C7.68782 6.97028 7.72215 7.09003 7.65363 7.22681C7.63949 7.25496 7.62703 7.28093 7.61525 7.30548C7.56981 7.4002 7.53457 7.47365 7.45299 7.56876C7.35013 7.68837 7.2253 7.81389 7.13287 7.90562C7.02974 8.00793 6.92262 8.1189 7.04251 8.32393C7.16254 8.5291 7.58688 9.22206 8.19841 9.76547C8.85892 10.3524 9.42752 10.6016 9.71414 10.7272C9.76845 10.751 9.81263 10.7704 9.8454 10.7868C10.0511 10.8894 10.1711 10.8722 10.291 10.7353C10.4111 10.5985 10.8149 10.1245 10.9521 9.91956C11.0893 9.71425 11.2264 9.74844 11.4149 9.8167C11.5944 9.88191 12.516 10.3418 12.7819 10.4745C12.7954 10.4812 12.8073 10.4871 12.8172 10.4921C12.8574 10.5121 12.895 10.5302 12.9299 10.547C13.0732 10.6159 13.17 10.6625 13.2115 10.7312C13.2628 10.8169 13.2628 11.2272 13.0914 11.7058C12.9201 12.1844 12.0803 12.6461 11.7032 12.6801C11.6669 12.6834 11.6309 12.6877 11.5938 12.692C11.2454 12.7329 10.8055 12.7845 9.23524 12.1674C7.30302 11.4079 6.02914 9.52571 5.76616 9.13716C5.74463 9.10535 5.72988 9.08355 5.72209 9.0732L5.71971 9.07002C5.60851 8.92187 4.88232 7.95434 4.88232 6.95325C4.88232 6.00925 5.34781 5.51439 5.56201 5.28666C5.57666 5.27109 5.59014 5.25677 5.6022 5.24364C5.79062 5.0386 6.01337 4.98724 6.15056 4.98724Z" fill="#66788C"/>
</g>
<defs>
<clipPath id="clip0_9_2688">
<rect width="18" height="18" fill="white"/>
</clipPath>
</defs>
</svg>
