<svg width="24" height="25" viewBox="0 0 24 25" fill="none" xmlns="http://www.w3.org/2000/svg">
<path d="M18.3639 6.13604C21.8787 9.65076 21.8787 15.3492 18.3639 18.8639C14.8492 22.3787 9.15074 22.3787 5.63604 18.8639C2.12132 15.3492 2.12132 9.65074 5.63604 6.13604C9.15076 2.62132 14.8492 2.62132 18.3639 6.13604" stroke="#331F07" stroke-width="1.5" stroke-linecap="round" stroke-linejoin="round"/>
<path d="M13.803 15.2461L11.549 17.5001L10.196 16.1471" stroke="#331F07" stroke-width="1.5" stroke-linecap="round" stroke-linejoin="round"/>
<path d="M9 9.86377H8C7.172 9.86377 6.5 10.5358 6.5 11.3638V19.4998" stroke="#331F07" stroke-width="1.5" stroke-linecap="round" stroke-linejoin="round"/>
<path d="M15 9.86377H16C16.828 9.86377 17.5 10.5358 17.5 11.3638V19.4998" stroke="#331F07" stroke-width="1.5" stroke-linecap="round" stroke-linejoin="round"/>
<path fill-rule="evenodd" clip-rule="evenodd" d="M13.905 11.227H10.096C9.49 11.227 9 10.737 9 10.132V9.595C9 8.99 9.49 8.5 10.095 8.5H13.904C14.51 8.5 15 8.99 15 9.595V10.131C15 10.737 14.51 11.227 13.905 11.227V11.227Z" stroke="#331F07" stroke-width="1.5" stroke-linecap="round" stroke-linejoin="round"/>
</svg>
