<svg width="25" height="25" viewBox="0 0 25 25" fill="none" xmlns="http://www.w3.org/2000/svg">
<path d="M14.6009 12.9053L14.9997 14.5003" stroke="#331F07" stroke-width="1.5" stroke-linecap="round" stroke-linejoin="round"/>
<path d="M16.5 7.5H8.5" stroke="#331F07" stroke-width="1.5" stroke-linecap="round" stroke-linejoin="round"/>
<path fill-rule="evenodd" clip-rule="evenodd" d="M10.5 3.5H14.5C15.6046 3.5 16.5 4.39543 16.5 5.5V9.5C16.5 11.7091 14.7091 13.5 12.5 13.5V13.5C10.2909 13.5 8.5 11.7091 8.5 9.5V5.5C8.5 4.39543 9.39543 3.5 10.5 3.5Z" stroke="#331F07" stroke-width="1.5" stroke-linecap="round" stroke-linejoin="round"/>
<path d="M10.401 12.9048L9.65804 15.8768" stroke="#331F07" stroke-width="1.5" stroke-linecap="round" stroke-linejoin="round"/>
<path d="M13.5 16.5642C12.0898 16.8441 10.6263 16.5468 9.437 15.739C9.23736 15.6061 8.99315 15.5579 8.758 15.605L5.912 16.174C4.5095 16.4543 3.49991 17.6857 3.5 19.116V19.5" stroke="#331F07" stroke-width="1.5" stroke-linecap="round" stroke-linejoin="round"/>
<path d="M8.5 15.6567V19.5002" stroke="#331F07" stroke-width="1.5" stroke-linecap="round" stroke-linejoin="round"/>
<circle cx="8.5" cy="21" r="1.5" stroke="#331F07" stroke-width="1.5" stroke-linecap="round" stroke-linejoin="round"/>
<path fill-rule="evenodd" clip-rule="evenodd" d="M18.3302 17.0173L18.4999 17.1896L18.6754 17.0042C18.973 16.6866 19.3876 16.5045 19.8229 16.5001C20.2582 16.4957 20.6763 16.6695 20.9804 16.981L21.016 17.0172C21.6613 17.6803 21.6613 18.7366 21.016 19.3997L19.2617 21.181C19.0608 21.3851 18.7864 21.5 18.5 21.5C18.2135 21.5 17.9391 21.3851 17.7382 21.181L15.9839 19.3997C15.3387 18.7366 15.3387 17.6803 15.9839 17.0173V17.0173C16.2934 16.7029 16.716 16.5259 17.1571 16.5259C17.5982 16.5259 18.0208 16.7029 18.3302 17.0173Z" stroke="#331F07" stroke-width="1.5" stroke-linecap="round" stroke-linejoin="round"/>
</svg>
