<svg width="24" height="25" viewBox="0 0 24 25" fill="none" xmlns="http://www.w3.org/2000/svg">
<path fill-rule="evenodd" clip-rule="evenodd" d="M13.0005 16.9925C13.049 17.9935 13.4481 18.9456 14.1279 19.682C14.6709 20.3127 15.3189 20.8449 16.0431 21.2549C16.6738 21.6067 17.4468 21.584 18.0557 21.1956C18.7121 20.776 19.3024 20.2609 19.807 19.6672C20.4994 18.9383 20.9217 17.9945 21.0039 16.9925C21.0086 16.3964 20.7857 15.8209 20.3807 15.3835C19.9914 14.9594 19.4435 14.7159 18.8678 14.7112C18.145 14.6607 17.4465 14.983 17.0159 15.5657L17.0022 15.5858L16.9884 15.5657C16.5966 15.0144 15.9561 14.6941 15.28 14.7112C14.672 14.7009 14.0859 14.938 13.6561 15.3681C13.2263 15.7983 12.9897 16.3845 13.0005 16.9925Z" stroke="#331F07" stroke-width="1.5" stroke-linecap="round" stroke-linejoin="round"/>
<path d="M13.0005 10.4992H17.0022" stroke="#331F07" stroke-width="1.5" stroke-linecap="round" stroke-linejoin="round"/>
<path d="M6.99805 10.2251L7.91743 11.0534L9.7682 9.38672" stroke="#331F07" stroke-width="1.5" stroke-linecap="round" stroke-linejoin="round"/>
<path d="M9.99925 21.5041H7.99842C5.23585 21.5041 2.99634 19.2646 2.99634 16.502V8.49867C2.99634 5.73609 5.23585 3.49658 7.99842 3.49658H16.0018C18.7643 3.49658 21.0038 5.73609 21.0038 8.49867V11.4999" stroke="#331F07" stroke-width="1.5" stroke-linecap="round" stroke-linejoin="round"/>
<path d="M6.99805 15.227L7.91743 16.0554L9.7682 14.3887" stroke="#331F07" stroke-width="1.5" stroke-linecap="round" stroke-linejoin="round"/>
</svg>
