<svg width="41" height="39" viewBox="0 0 41 39" fill="none" xmlns="http://www.w3.org/2000/svg">
<path d="M1.25513 28.7975C3.38578 33.7467 8.54977 36.5611 13.7218 38.2923C18.1101 39.7612 22.6099 38.6792 27.0704 37.4385C31.7605 36.1339 37.1597 35.2668 39.5741 31.1014C42.0399 26.8472 40.968 21.4497 38.9268 16.983C37.1021 12.9903 32.9165 11.1729 29.3009 8.62116C24.5797 5.28918 20.7174 -0.714344 14.962 0.0699013C8.93203 0.891556 5.10594 6.8491 2.51923 12.2705C0.0386688 17.4694 -1.02157 23.5091 1.25513 28.7975Z" fill="#D6DDF5"/>
<path fill-rule="evenodd" clip-rule="evenodd" d="M19 14.6627C19.8038 13.7223 21.1945 12.6665 23.312 12.6665C27.015 12.6665 29.5 16.1432 29.5 19.3807C29.5 26.1485 21.0743 31.3332 19 31.3332C16.9257 31.3332 8.5 26.1485 8.5 19.3807C8.5 16.1432 10.985 12.6665 14.688 12.6665C16.8055 12.6665 18.1962 13.7223 19 14.6627Z" stroke="#66788C" stroke-width="2" stroke-linecap="round" stroke-linejoin="round"/>
<path d="M22.3704 19.7319L18.1576 23.9448L15.6294 21.4166" stroke="#66788C" stroke-width="2" stroke-linecap="round" stroke-linejoin="round"/>
</svg>
