<svg width="45" height="40" viewBox="0 0 45 40" fill="none" xmlns="http://www.w3.org/2000/svg">
<path d="M43.6616 11.252C43.1016 9.46624 42.1814 7.73585 40.8114 7.05911C38.3288 5.83491 35.7245 8.48536 33.0758 8.61571C29.7808 8.77756 27.1929 5.1484 24.2769 3.11494C20.0354 0.158169 14.8531 0.60136 10.2678 2.45668C5.87247 4.23487 1.36037 7.9129 0.318486 13.8286C-0.550712 18.7852 1.61612 24.3652 5.17021 26.3205C9.05487 28.4604 13.9255 26.5779 17.4048 29.7063C19.2328 31.352 20.3076 34.0991 21.9333 36.0761C25.2078 40.0735 30.4592 40.3288 34.4499 37.7011C38.4407 35.0735 46.5883 23.4028 43.6616 11.252Z" fill="#D6DDF5"/>
<path d="M16.4999 25.6667H11.8333C9.90026 25.6667 8.33325 24.0997 8.33325 22.1667V14C8.33325 12.067 9.90026 10.5 11.8333 10.5H26.9999C28.9329 10.5 30.4999 12.067 30.4999 14V21" stroke="#66788C" stroke-width="2" stroke-linecap="round" stroke-linejoin="round"/>
<path fill-rule="evenodd" clip-rule="evenodd" d="M23.5 26.8332V21.5835C23.5 20.617 24.2835 19.8335 25.25 19.8335V19.8335C26.2165 19.8335 27 20.617 27 21.5835V24.2093L29.7086 24.651C30.947 24.8529 31.804 25.9981 31.6484 27.2431L31.2261 30.6228C31.0802 31.7905 30.0876 32.6668 28.9108 32.6668H24.4821C23.7018 32.6668 22.9732 32.2769 22.5405 31.6276L20.2771 28.2321C19.8409 27.5777 19.9271 26.7063 20.4833 26.1501H20.4834C20.7928 25.8407 21.2125 25.6668 21.6501 25.6668C22.0878 25.6668 22.5075 25.8407 22.8169 26.1501L23.5 26.8332Z" stroke="#66788C" stroke-width="2" stroke-linecap="round" stroke-linejoin="round"/>
<path fill-rule="evenodd" clip-rule="evenodd" d="M16.302 15.77L16.4999 15.971L16.7046 15.7547C17.0519 15.3842 17.5356 15.1717 18.0434 15.1666C18.5512 15.1615 19.0391 15.3642 19.3937 15.7277L19.4354 15.7699C20.1882 16.5435 20.1882 17.7759 19.4354 18.5495L17.3887 20.6276C17.1543 20.8658 16.8341 20.9999 16.4999 20.9999C16.1658 20.9999 15.8456 20.8658 15.6112 20.6276L13.5646 18.5495C12.8118 17.7759 12.8118 16.5436 13.5646 15.77V15.77C13.9256 15.4032 14.4187 15.1967 14.9333 15.1967C15.4479 15.1967 15.941 15.4032 16.302 15.77V15.77Z" stroke="#66788C" stroke-width="2" stroke-linecap="round" stroke-linejoin="round"/>
</svg>
