<svg width="45" height="45" viewBox="0 0 45 45" fill="none" xmlns="http://www.w3.org/2000/svg">
<path d="M1.27129 20.065C2.66251 16.0579 8.55741 16.0407 11.6644 13.1465C14.1857 10.7977 14.7094 6.86674 17.5445 4.90601C20.9235 2.56905 25.0151 0.232924 29.0251 1.13991C33.0449 2.04914 35.0633 6.39992 37.7884 9.48486C40.4665 12.5167 44.2905 15.0477 44.8463 19.0505C45.3995 23.0354 43.2659 27.0464 40.652 30.1099C38.3765 32.7768 34.0835 32.4475 31.4446 34.7573C28.1933 37.6031 28.0471 44.1639 23.7811 44.8765C19.7249 45.5539 17.4156 40.0829 14.1012 37.654C11.1412 35.4849 7.50085 34.3249 5.33988 31.3624C2.931 28.0599 -0.0686206 23.9242 1.27129 20.065Z" fill="#D6DDF5"/>
<rect x="17.3333" y="11.3335" width="9.33333" height="4.66667" rx="1" stroke="#66788C" stroke-width="2" stroke-linecap="round" stroke-linejoin="round"/>
<path d="M26.6667 13.6665H29.0001C30.2887 13.6665 31.3334 14.7112 31.3334 15.9998V31.1665C31.3334 32.4552 30.2887 33.4998 29.0001 33.4998H15.0001C13.7114 33.4998 12.6667 32.4552 12.6667 31.1665V15.9998C12.6667 14.7112 13.7114 13.6665 15.0001 13.6665H17.3334" stroke="#66788C" stroke-width="2" stroke-linecap="round" stroke-linejoin="round"/>
<path d="M17.3333 29.4168H26.6666" stroke="#66788C" stroke-width="2" stroke-linecap="round" stroke-linejoin="round"/>
<path d="M26.6666 25.9168H17.3333" stroke="#66788C" stroke-width="2" stroke-linecap="round" stroke-linejoin="round"/>
<path d="M22.0001 22.4165V18.9165" stroke="#66788C" stroke-width="2" stroke-linecap="round" stroke-linejoin="round"/>
<path d="M23.75 20.6668H20.25" stroke="#66788C" stroke-width="2" stroke-linecap="round" stroke-linejoin="round"/>
</svg>
