<svg width="24" height="24" viewBox="0 0 24 24" fill="none" xmlns="http://www.w3.org/2000/svg">
<path fill-rule="evenodd" clip-rule="evenodd" d="M12 21V21C7.029 21 3 16.971 3 12V12C3 7.029 7.029 3 12 3V3C16.971 3 21 7.029 21 12V12C21 16.971 16.971 21 12 21Z" stroke="#66788C" stroke-width="1.5" stroke-linecap="round" stroke-linejoin="round"/>
<path d="M11.0903 11.2469C11.197 10.9923 11.25 10.7138 11.25 10.412V10.004C11.25 9.70243 11.1971 9.42784 11.0903 9.18103C10.9918 8.92689 10.8479 8.70894 10.6586 8.52787C10.4695 8.347 10.2438 8.20761 9.98219 8.10942C9.7195 8.00281 9.42518 7.95 9.1 7.95C8.77482 7.95 8.48049 8.00281 8.21781 8.10942C7.95622 8.20761 7.73053 8.347 7.54144 8.52787C7.3522 8.70888 7.20439 8.92669 7.09789 9.18066L7.09788 9.18066L7.09758 9.18143C6.9989 9.42813 6.95 9.70255 6.95 10.004V10.412C6.95 10.7135 6.9989 10.9917 7.09737 11.246L7.09734 11.2461L7.09812 11.2479C7.2047 11.4938 7.35249 11.7074 7.54144 11.8881C7.73037 12.0689 7.95584 12.2122 8.21718 12.3183L8.21717 12.3183L8.21844 12.3188C8.48093 12.4172 8.77501 12.466 9.1 12.466C9.42499 12.466 9.71907 12.4172 9.98156 12.3188L9.98156 12.3188L9.98282 12.3183C10.2442 12.2122 10.4696 12.0689 10.6586 11.8881C10.8477 11.7072 10.9917 11.4933 11.0903 11.2469ZM11.0903 11.2469C11.0902 11.2471 11.0902 11.2472 11.0901 11.2473L11.044 11.228M11.0903 11.2469C11.0903 11.2468 11.0904 11.2467 11.0904 11.2466L11.044 11.228M11.044 11.228C10.948 11.468 10.808 11.676 10.624 11.852C10.44 12.028 10.22 12.168 9.964 12.272M11.044 11.228C11.148 10.98 11.2 10.708 11.2 10.412V10.004C11.2 9.708 11.148 9.44 11.044 9.2C10.948 8.952 10.808 8.74 10.624 8.564C10.44 8.388 10.22 8.252 9.964 8.156V12.272M9.964 12.272C9.708 12.368 9.42 12.416 9.1 12.416C8.78 12.416 8.492 12.368 8.236 12.272C7.98 12.168 7.76 12.028 7.576 11.852C7.392 11.676 7.248 11.468 7.144 11.228C7.048 10.98 7 10.708 7 10.412V10.004C7 9.708 7.048 9.44 7.144 9.2C7.248 8.952 7.392 8.74 7.576 8.564C7.76 8.388 7.98 8.252 8.236 8.156L9.964 12.272ZM8.44 9.296L8.47617 9.33052C8.63357 9.16562 8.83989 9.082 9.1 9.082C9.35164 9.082 9.54958 9.16527 9.699 9.32963L9.69896 9.32967L9.70064 9.33136C9.85684 9.48755 9.938 9.70938 9.938 10.004V10.412C9.938 10.7065 9.85688 10.933 9.69983 11.0975L9.69979 11.0975C9.55057 11.2542 9.35239 11.334 9.1 11.334C8.83964 11.334 8.63334 11.2542 8.4762 11.0975C8.32722 10.9331 8.25 10.7066 8.25 10.412V10.004C8.25 9.70873 8.32754 9.48658 8.47621 9.33048L8.44 9.296ZM8.44 9.296C8.28 9.464 8.2 9.7 8.2 10.004V10.412C8.2 10.716 8.28 10.956 8.44 11.132C8.608 11.3 8.828 11.384 9.1 11.384C9.364 11.384 9.576 11.3 9.736 11.132M8.44 9.296L9.736 11.132M9.736 11.132C9.904 10.956 9.988 10.716 9.988 10.412M9.736 11.132L9.988 10.412M16.1022 12.3094C15.8395 12.2028 15.5452 12.15 15.22 12.15C14.8948 12.15 14.6005 12.2028 14.3378 12.3094C14.0762 12.4076 13.8505 12.547 13.6614 12.7279C13.4722 12.9089 13.3244 13.1267 13.2179 13.3807L13.2176 13.3814C13.1189 13.6281 13.07 13.9026 13.07 14.204V14.612C13.07 14.9135 13.1189 15.1917 13.2174 15.4461L13.2173 15.4461L13.2181 15.4479C13.3247 15.6938 13.4725 15.9074 13.6614 16.0881C13.8504 16.2689 14.0758 16.4122 14.3372 16.5183L14.3372 16.5183L16.084 12.356M16.1022 12.3094C16.1024 12.3095 16.1026 12.3096 16.1028 12.3097L16.084 12.356M16.1022 12.3094C16.102 12.3093 16.1018 12.3093 16.1016 12.3092L16.084 12.356M16.1022 12.3094C16.3638 12.4076 16.5895 12.547 16.7786 12.7279C16.9679 12.9089 17.1118 13.1269 17.2103 13.381M16.084 12.356C16.34 12.452 16.56 12.588 16.744 12.764C16.928 12.94 17.068 13.152 17.164 13.4M17.2103 13.381C17.2101 13.3807 17.21 13.3804 17.2099 13.3801L17.164 13.4M17.2103 13.381C17.2104 13.3813 17.2105 13.3816 17.2106 13.382L17.164 13.4M17.2103 13.381L17.164 13.4M14.56 13.496L14.5962 13.5305C14.7536 13.3656 14.9599 13.282 15.22 13.282C15.4716 13.282 15.6696 13.3653 15.819 13.5296L15.819 13.5297L15.8206 13.5314C15.9768 13.6875 16.058 13.9094 16.058 14.204V14.612C16.058 14.9065 15.9769 15.133 15.8198 15.2975L15.8198 15.2975C15.6706 15.4542 15.4724 15.534 15.22 15.534C14.9596 15.534 14.7533 15.4542 14.5962 15.2975C14.4472 15.1331 14.37 14.9066 14.37 14.612V14.204C14.37 13.9087 14.4475 13.6866 14.5962 13.5305L14.56 13.496ZM14.56 13.496C14.4 13.664 14.32 13.9 14.32 14.204V14.612C14.32 14.916 14.4 15.156 14.56 15.332C14.728 15.5 14.948 15.584 15.22 15.584C15.484 15.584 15.696 15.5 15.856 15.332M14.56 13.496L15.856 15.332M15.856 15.332C16.024 15.156 16.108 14.916 16.108 14.612M15.856 15.332L16.108 14.612M9.988 10.412V10.004M9.988 10.412V10.004M9.988 10.004C9.988 9.7 9.904 9.464 9.736 9.296L9.988 10.004ZM16.108 14.612V14.204M16.108 14.612V14.204M16.108 14.204C16.108 13.9 16.024 13.664 15.856 13.496L16.108 14.204ZM17.2103 15.447C17.2103 15.4468 17.2104 15.4467 17.2104 15.4466L17.164 15.428L17.2101 15.4473C17.2102 15.4472 17.2102 15.4471 17.2103 15.447ZM13.96 8.058H13.9313L13.9169 8.08273L8.99686 16.4827L8.95277 16.558H9.04H10.36H10.3887L10.4031 16.5333L15.3231 8.13327L15.3672 8.058H15.28H13.96Z" fill="#66788C" stroke="black" stroke-width="0.1"/>
</svg>
