<svg width="60" height="60" viewBox="0 0 60 60" fill="none" xmlns="http://www.w3.org/2000/svg">
<g clip-path="url(#clip0_1579_18154)">
<circle cx="30" cy="30" r="30" fill="#F5EEE6"/>
<path d="M-16.2212 67.5664C-14.323 73.7475 -8.56034 77.7586 -2.65096 80.4765C2.36293 82.7825 7.83185 82.0546 13.2743 81.1322C18.9969 80.1622 25.5045 79.804 28.8927 75.1301C32.3531 70.3564 31.7662 63.7726 29.9129 58.1794C28.2563 53.1795 23.5268 50.4826 19.5655 46.9796C14.393 42.4057 10.5765 34.7474 3.6574 34.9619C-3.59173 35.1867 -8.87961 41.8247 -12.631 47.9777C-16.2285 53.8782 -18.2494 60.9617 -16.2212 67.5664Z" fill="#CBD2B0"/>
<path d="M66.1074 53.4426C72.5714 53.5978 78.2 49.4004 82.648 44.6546C86.4221 40.628 87.462 35.2098 88.3091 29.7551C89.1997 24.0196 90.919 17.7331 87.5573 13.04C84.1239 8.24693 77.6927 6.72042 71.8004 6.70861C66.5333 6.69806 62.4784 10.3313 57.902 12.9806C51.9264 16.44 43.454 17.6372 41.4681 24.2687C39.3875 31.2164 44.0113 38.333 48.6612 43.8386C53.1202 49.1183 59.2003 53.2767 66.1074 53.4426Z" fill="#CBD2B0"/>
<path d="M47.0971 53.078C46.1435 50.7443 44.9738 48.5075 43.6036 46.3975C42.8411 45.218 42.057 44.1544 41.2932 43.2002" stroke="#573523" stroke-width="0.5" stroke-miterlimit="10"/>
<path d="M44.2796 41.7739C42.5335 42.7049 41.0263 43.3951 39.8851 43.8857C37.9242 44.7278 36.8809 45.0446 36.3344 45.1991C35.4652 45.4473 34.5809 45.6378 33.6873 45.7696C32.9614 45.8967 32.2253 45.9541 31.4888 45.9408C30.7451 45.9202 30.0069 45.8051 29.2915 45.5983C28.4604 45.3575 28.1706 45.1373 27.9953 44.9712C27.719 44.6993 27.5074 44.3673 27.3764 44.0003C27.1794 43.5058 27.1641 43.0989 27.1502 42.6302C27.1324 42.0237 27.2086 41.5691 27.3192 40.9176C27.3827 40.5467 27.5428 40.1965 27.6013 39.6041C27.6335 39.3949 27.624 39.1812 27.5733 38.9757C27.481 38.6669 27.2935 38.3961 27.0383 38.2031" stroke="#573523" stroke-width="0.5" stroke-miterlimit="10"/>
<path d="M30.1365 36.0058C29.8086 36.1809 29.4693 36.3715 29.1199 36.5776C28.7316 36.7944 28.3553 37.0325 27.9926 37.2909C27.1653 37.9348 27.1615 38.2979 26.6977 38.3765C26.474 38.4071 26.2464 38.3722 26.0417 38.2759C25.8369 38.1796 25.6637 38.026 25.5425 37.8331C25.2527 37.3412 25.4993 36.7771 25.5984 36.5454C25.9796 35.6659 26.8959 35.3748 27.0916 35.3169" stroke="#573523" stroke-width="0.5" stroke-miterlimit="10"/>
<path d="M30.1404 36.0784C30.1569 36.0398 29.7185 35.6148 28.8404 34.7649C28.6015 34.5332 28.3765 34.3155 28.0664 34.0438C27.6788 33.7052 27.4501 33.5468 26.4144 32.6029C25.5591 31.8303 25.2122 31.4749 24.8894 31.5959C24.5081 31.7427 24.4281 32.4626 24.4242 32.4973C24.4118 32.7853 24.4699 33.072 24.5933 33.3317C25.2388 34.6555 29.9498 36.5201 30.1404 36.0784Z" stroke="#573523" stroke-width="0.5" stroke-miterlimit="10"/>
<path d="M24.9084 31.6293C25.1744 31.4522 25.4122 31.2351 25.6137 30.9854C25.7842 30.8054 25.9142 30.5902 25.9949 30.3544C26.1436 29.8394 25.9237 29.3719 25.8259 29.1608C25.7407 28.9792 25.6162 28.7744 25.0914 28.2349C24.3428 27.4726 24.081 27.3722 23.5803 26.7631C23.2664 26.3768 23.1051 26.1772 23.0313 25.8424C22.952 25.4083 23.0244 24.9599 23.2359 24.574C23.3986 24.265 23.5524 24.171 23.9984 23.7177C24.034 23.6816 24.3136 23.3649 24.8728 22.7326C25.9987 21.4578 26.5617 20.8204 26.873 20.3336C27.295 19.6743 27.6432 19.1297 27.802 18.3364C27.9799 17.4518 27.7563 17.0835 27.5479 15.4533C27.4627 14.7863 27.3026 13.5282 27.3788 12.2843C27.3992 11.9366 27.4665 11.1331 28.1108 9.06507C28.6827 7.22368 29.2381 5.43379 30.4492 3.24085C30.7897 2.62405 31.4035 1.73683 32.6185 -0.0414659C33.4877 -1.324 34.5806 -2.44043 34.8119 -3.18858C34.8672 -3.38559 34.9744 -3.56363 35.122 -3.70365C35.3452 -3.88726 35.6236 -3.98811 35.9112 -3.98952C37.7056 -4.09769 39.2916 -3.3328 39.2916 -3.3328C40.4747 -2.45975 41.3808 -1.75924 41.9971 -1.2725C42.8117 -0.628652 42.9922 -0.472842 43.4332 -0.215304C44.183 0.221223 44.554 0.276594 45.1526 0.782656C45.4619 1.05772 45.7441 1.36262 45.9952 1.69305C46.3871 2.17398 46.7459 2.68167 47.069 3.21253C48.0857 4.84532 48.3398 4.86205 49.2663 6.35191C49.7193 7.09062 50.1333 7.85314 50.5066 8.63627C51.5563 10.7622 52.1485 12.4813 52.6759 14.0317C53.446 16.2942 53.8679 17.9669 54.2009 19.2842C54.6495 21.0779 54.8655 22.2343 54.9329 23.6237C54.9627 24.2242 54.9627 24.8259 54.9329 25.4265" stroke="#573523" stroke-width="0.5" stroke-miterlimit="10"/>
<path d="M29.4604 15.059C29.3943 14.9135 29.3054 14.7088 29.2063 14.4602C29.0055 13.9452 28.9928 13.828 29.008 13.7172C29.0372 13.5125 29.1567 13.349 29.3753 13.1468C29.5939 12.9446 30.1733 12.4643 31.3463 12.1166C31.7041 12.0024 32.0724 11.9256 32.4456 11.8874C32.887 11.8303 33.3349 11.8499 33.7698 11.9454C33.9566 11.9904 34.1777 12.0613 34.8691 12.4308C35.3739 12.6865 35.864 12.9711 36.3369 13.2833C36.4766 13.376 38.4973 14.7268 38.3702 14.9676C38.2431 15.2084 36.0052 13.5331 33.2424 13.6799C31.6628 13.7713 30.378 14.4242 29.4604 15.059Z" stroke="#573523" stroke-width="0.5" stroke-miterlimit="10"/>
<path d="M25.1777 26.6719C25.4156 26.7064 25.6449 26.7859 25.8538 26.9062C26.8298 27.4664 26.6163 28.5867 27.4881 29.0477C27.9342 29.2859 28.5594 29.2936 28.9254 28.991C29.252 28.7206 29.3066 28.2596 29.3473 27.9055C29.3887 27.5514 29.3602 27.1924 29.2634 26.8496" stroke="#573523" stroke-width="0.5" stroke-miterlimit="10"/>
<path d="M32.5028 15.9092C32.1389 16.3971 31.9253 16.983 31.889 17.5935C31.8813 17.7467 31.889 17.9618 32.03 18.7357C32.1571 19.4143 32.2842 19.9783 32.396 20.3916" stroke="#573523" stroke-width="0.5" stroke-miterlimit="10"/>
<path d="M36.7855 19.5664C35.9714 20.0571 35.0727 20.3866 34.1371 20.5373C32.419 20.8039 31.1355 20.3416 31.0948 20.509C31.0541 20.6764 32.2182 21.2404 33.5742 21.3692C34.2566 21.4265 34.9437 21.3686 35.6075 21.1979" stroke="#573523" stroke-width="0.5" stroke-miterlimit="10"/>
<path d="M34.9822 19.5352C34.4146 19.7758 33.8312 19.9759 33.236 20.1339C32.544 20.3175 31.8386 20.4441 31.1265 20.5125" stroke="#573523" stroke-width="0.5" stroke-miterlimit="10"/>
<path d="M56.3054 49.9094C56.3677 49.6402 56.4643 49.2333 56.5875 48.7388C56.8303 47.7589 56.8709 47.6649 56.9535 47.2541C57.073 46.6554 57.012 46.7185 57.1785 45.5995C57.2967 44.8088 57.3297 44.7535 57.4326 44.0002C57.4911 43.5701 57.4911 43.5057 57.5724 42.8863C57.6703 42.16 58.6506 45.8049 58.5 43.0002C58.5 42.0002 58.1018 37.8002 57.7491 35.8657C57.5 34.5002 57.5529 34.1177 57.4326 33.2377C57.3144 32.3789 57.2509 32.3003 57.1505 31.5818C56.8646 29.5421 56.9129 29.1738 57.0094 28.8982C57.2052 28.3432 57.4072 28.3973 57.7491 27.5706C57.9415 27.0966 58.0764 26.6006 58.1506 26.0936C58.2595 25.4071 58.2881 24.7099 58.2358 24.0166C58.1723 23.1049 58.0363 22.9774 58.0236 22.304C58.0109 21.5185 58.1989 20.9197 58.3413 20.4201C58.5095 19.8343 58.7361 19.2674 59.0173 18.7281C59.3243 18.1572 59.6775 17.6132 60.0734 17.1017C60.2742 16.8249 60.5525 16.4437 60.963 15.9673C61.5628 15.2655 61.6975 15.232 61.9555 14.8083C62.3672 14.1349 62.3698 13.6494 62.5261 13.6494C62.8108 13.6494 63.0408 15.2423 63.0548 15.3401C63.4856 18.4229 63.7016 19.963 62.9277 21.5919C61.7661 24.0385 58.9678 25.0094 58.2447 25.2463" stroke="#573523" stroke-width="0.5" stroke-miterlimit="10"/>
<path d="M58.3132 25.1523C58.7337 24.548 59.1059 23.9108 59.4265 23.2465C59.6476 22.7843 59.7925 22.4044 60.0467 21.7335C60.3008 21.0626 60.4762 20.5347 60.5817 20.2205C60.9489 19.1221 60.9121 19.1053 61.09 18.7074C61.3124 18.2052 61.381 18.2078 61.8792 17.309C62.3265 16.4991 62.5489 16.0947 62.6417 15.7097C62.7656 15.0232 62.7246 14.3165 62.5222 13.6494" stroke="#573523" stroke-width="0.5" stroke-miterlimit="10"/>
<path d="M57.5496 27.9814C57.5036 27.7559 57.4239 27.5388 57.3132 27.3376C57.1548 27.0546 56.9283 26.8167 56.6549 26.6461C55.9763 26.1786 55.6154 26.046 54.985 25.6752C54.2048 25.2155 54.2353 25.1099 53.6126 24.8085C53.1678 24.5922 52.8081 24.4222 52.3023 24.3694C51.7127 24.3115 51.2666 24.457 50.7773 24.6154C50.1829 24.8132 49.6203 25.0982 49.1075 25.4614C48.5272 25.8518 48.0015 26.3196 47.5443 26.8521C47.4999 26.9036 47.1631 27.165 47.0474 27.496C47.0113 27.6112 46.9866 27.7298 46.9737 27.8501C46.9622 27.9424 46.9622 28.0359 46.9737 28.1282C46.9967 28.2342 47.0286 28.338 47.069 28.4385C47.1021 28.6755 46.6497 28.8944 46.0435 29.2949C45.7355 29.4959 45.4385 29.7139 45.1539 29.9477C44.87 30.1677 44.6113 30.419 44.3825 30.6972C44.1592 30.9796 43.971 31.2889 43.8221 31.6179C43.6752 31.9364 43.5586 32.2684 43.4739 32.6094C43.2981 33.3473 43.241 34.1091 43.3049 34.8654C43.329 35.2131 43.3608 35.3303 43.3608 35.6934C43.3608 36.278 43.2794 36.636 43.3608 36.663C43.4421 36.6901 43.5603 36.2832 43.9809 35.9213C44.1516 35.7807 44.3412 35.6654 44.5439 35.5788C45.253 35.2311 45.0522 35.2659 45.9533 34.8062C46.9013 34.3259 46.8581 34.4199 47.8684 33.9215C48.386 33.684 48.8852 33.4072 49.3616 33.0936C49.7924 32.8 49.87 32.6892 50.1508 32.5514C50.7557 32.2514 51.001 32.5231 51.8131 32.3518C52.3082 32.2477 52.7775 32.0436 53.1932 31.7518C53.5744 31.4975 53.9004 31.1671 54.1514 30.7809C54.3293 30.5001 54.3763 30.3186 54.6305 30.0675C54.8116 29.8769 55.0333 29.7307 55.2786 29.64C55.6268 29.5176 55.7692 29.6168 56.1517 29.5254C56.4275 29.461 56.691 29.3514 56.932 29.2009" stroke="#573523" stroke-width="0.5" stroke-miterlimit="10"/>
<path d="M55.3205 26.0044C55.1756 26.0134 54.9773 26.0301 54.7422 26.0611C54.3352 26.1109 53.9325 26.1918 53.5375 26.3031C53.0418 26.432 52.5731 26.6501 52.1536 26.947C51.5639 27.3874 51.2907 27.9089 50.8611 28.724C50.6138 29.1869 50.4158 29.6751 50.2702 30.1804C50.1582 30.5913 50.0825 31.0114 50.044 31.4359C50.008 31.8211 50.0017 32.2086 50.0249 32.5948" stroke="#573523" stroke-width="0.5" stroke-miterlimit="10"/>
<path d="M43.4534 36.4128C43.8333 35.9067 44.1712 35.3696 44.4637 34.807C44.8894 34.0563 44.9364 33.7679 45.4041 32.9451C45.7434 32.3489 45.9645 31.9587 46.3445 31.5209C46.5987 31.2299 46.7893 31.0689 48.3511 29.937C49.2737 29.2687 49.4517 29.149 49.9155 28.8013C50.5268 28.3455 51.1139 27.972 51.4405 27.7119" stroke="#573523" stroke-width="0.5" stroke-miterlimit="10"/>
<path d="M46.1921 31.7026C46.0192 31.767 45.6418 31.861 45.3127 31.9602C44.9835 32.0593 44.8259 32.089 44.6315 32.1533C44.2228 32.2841 43.8324 32.4676 43.47 32.6993" stroke="#573523" stroke-width="0.5" stroke-miterlimit="10"/>
<path d="M54.7918 22.775C54.4906 22.5639 54.2301 22.3887 54.0293 22.2677C53.1257 21.696 53.3748 21.9612 52.9376 21.6612C52.8236 21.5627 52.6795 21.5072 52.5297 21.5041C52.3747 21.5157 52.2908 21.6058 52.1002 21.7539C51.8758 21.922 51.6406 22.0747 51.3961 22.211C51.185 22.3348 50.9602 22.4329 50.7264 22.5033C50.3703 22.5971 49.9999 22.6216 49.6348 22.5754C49.2295 22.542 48.8285 22.4678 48.4377 22.354C47.7908 22.1737 47.6675 22.0552 46.5746 21.6612C46.2714 21.5409 45.9606 21.4411 45.6444 21.3624C45.192 21.2697 44.934 21.2955 44.1194 21.3187C43.0277 21.3509 42.4737 21.3663 42.0594 21.2981C41.6452 21.2198 41.2361 21.1162 40.8343 20.9877C40.2218 20.8087 40.082 20.6735 39.6194 20.5911C38.9941 20.4804 38.7298 20.5911 38.679 20.4739C38.5646 20.201 39.7694 19.4206 40.4429 18.9854C40.8322 18.717 41.238 18.474 41.6578 18.2578C42.2019 17.989 42.7716 17.7771 43.3582 17.6256C44.019 17.4569 44.6658 17.4131 45.9583 17.3256C46.3395 17.2998 46.0345 17.3256 47.5532 17.2625C47.9895 17.2257 48.4284 17.2326 48.8634 17.2831C49.1683 17.3117 49.4678 17.3837 49.753 17.4968C50.1342 17.6603 50.3693 17.8677 50.7988 18.2578C51.1168 18.5493 51.4169 18.8602 51.6973 19.1888C52.2806 19.8507 52.2057 19.8546 52.5526 20.219C52.9433 20.6123 53.3759 20.9604 53.8425 21.2569C54.1223 21.4452 54.4125 21.6171 54.7117 21.7719" stroke="#573523" stroke-width="0.5" stroke-miterlimit="10"/>
<path d="M54.2136 19.3458C54.3064 19.1938 54.5237 18.8307 54.6737 18.5178C54.999 17.8469 55.4133 16.7549 55.5874 13.9967C55.6814 12.5159 55.7272 11.7754 55.5874 11.2127C55.306 10.1507 54.7523 9.18307 53.9823 8.40812C53.7981 8.22398 53.9035 8.35404 52.3125 7.10241C50.9845 6.0568 50.776 5.85979 50.5587 5.62543C49.8992 4.91076 50.0008 4.75495 49.3337 4.01968C49.1964 3.86902 48.8546 3.50461 47.6218 2.56331C47.0652 2.13966 46.3167 1.58853 45.3992 0.975586" stroke="#573523" stroke-width="0.5" stroke-miterlimit="10"/>
<path d="M52.5183 13.563C52.5857 13.3776 52.6962 12.9746 52.8246 12.6372C53.066 12.0062 53.141 11.844 53.3685 11.2568C53.5758 10.7633 53.7549 10.2581 53.9048 9.74374C53.9993 9.36878 54.0648 8.98688 54.1005 8.60156" stroke="#573523" stroke-width="0.5" stroke-miterlimit="10"/>
<path d="M50.9133 9.48237C50.8967 9.05099 50.8878 8.3917 50.9006 7.91268C50.9184 7.26883 50.9641 6.65975 51.0277 6.09961" stroke="#573523" stroke-width="0.5" stroke-miterlimit="10"/>
<path d="M52.7624 14.2867C52.4485 14.203 51.9999 14.1952 51.6186 14.1463C50.9053 14.0548 50.1831 14.0596 49.4709 14.1605" stroke="#573523" stroke-width="0.5" stroke-miterlimit="10"/>
<path d="M51.1357 9.97265C50.635 9.88509 49.9843 9.71511 49.4252 9.57218C48.7466 9.39705 48.1239 9.20132 47.5583 8.99658" stroke="#573523" stroke-width="0.5" stroke-miterlimit="10"/>
<path d="M54.2377 19.4372C53.8511 19.2439 53.4809 19.0187 53.1308 18.7638C52.0544 17.9487 51.8371 17.3061 50.4112 15.39C49.6487 14.3727 49.373 14.0933 48.7198 13.1069C47.9573 11.948 47.7806 11.4857 47.7031 10.9938C47.637 10.5612 47.6828 10.323 47.5913 9.50914C47.5214 8.89492 47.4286 8.46097 47.3651 8.13904C47.2189 7.40249 47.0003 5.94997 46.8796 5.23402C46.6718 4.03306 46.3761 2.84942 45.9951 1.69287" stroke="#573523" stroke-width="0.5" stroke-miterlimit="10"/>
<path d="M49.3717 17.3773C48.9312 17.1113 48.5088 16.8158 48.1072 16.4926C47.3803 15.9209 46.9368 15.411 46.2416 14.6023C45.5236 13.7692 45.1602 13.3417 44.9594 12.8253C44.7646 12.3085 44.6572 11.7622 44.6417 11.2093C44.6315 10.9221 44.6493 10.7714 44.7484 9.74258C44.817 9.02277 44.8679 8.48194 44.8857 8.27591C45.0242 6.58388 44.5273 5.68121 44.737 5.57176C44.92 5.47261 45.6266 6.05851 47.5049 8.88498" stroke="#573523" stroke-width="0.5" stroke-miterlimit="10"/>
</g>
<defs>
<clipPath id="clip0_1579_18154">
<rect width="60" height="60" rx="30" fill="white"/>
</clipPath>
</defs>
</svg>
