<svg width="39" height="40" viewBox="0 0 39 40" fill="none" xmlns="http://www.w3.org/2000/svg">
<path d="M28.6771 38.6474C33.5155 36.5818 36.2669 31.5753 37.9594 26.5611C39.3953 22.3066 38.3376 17.9441 37.1246 13.6197C35.8493 9.07271 35.0016 3.83815 30.9295 1.49746C26.7705 -0.893158 21.4938 0.146101 17.1272 2.12504C13.2238 3.89403 11.4472 7.95192 8.95255 11.4573C5.69517 16.0345 -0.173936 19.7789 0.59275 25.3587C1.39601 31.2047 7.22016 34.9141 12.5202 37.4219C17.6026 39.8268 23.5071 40.8547 28.6771 38.6474Z" fill="#D6DDF5"/>
<path d="M14.1646 28.252H18.8332" stroke="#66788C" stroke-width="2" stroke-linecap="round" stroke-linejoin="round"/>
<path d="M26.4197 27.1577L24.2306 29.3468L22.9182 28.0334" stroke="#66788C" stroke-width="2" stroke-linecap="round" stroke-linejoin="round"/>
<rect x="9.49585" y="12.4956" width="21.0088" height="21.0088" rx="4" stroke="#66788C" stroke-width="2" stroke-linecap="round" stroke-linejoin="round"/>
<path d="M23.5018 24.1671H14.1646" stroke="#66788C" stroke-width="2" stroke-linecap="round" stroke-linejoin="round"/>
<path d="M15.9151 20.082V16.5806" stroke="#66788C" stroke-width="2" stroke-linecap="round" stroke-linejoin="round"/>
<path d="M17.666 18.3311H14.1646" stroke="#66788C" stroke-width="2" stroke-linecap="round" stroke-linejoin="round"/>
</svg>
